<svg xmlns="http://www.w3.org/2000/svg" width="860" height="900" viewBox="0 0 860 900">

  <rect x="0" y="0" width="860" height="900" fill="#0d1117"/>

  <!-- Title bar -->
  <rect x="30" y="20" width="800" height="48" rx="8" fill="#161b22" stroke="#30363d" stroke-width="1"/>
  <circle cx="58" cy="44" r="7" fill="#ff5f57"/>
  <circle cx="80" cy="44" r="7" fill="#febc2e"/>
  <circle cx="102" cy="44" r="7" fill="#28c840"/>
  <text x="430" y="49" fill="#8b949e" font-size="13" text-anchor="middle" font-family="'Segoe UI', sans-serif">rfPortfolio/ — project structure</text>

  <!-- Main box -->
  <rect x="30" y="82" width="800" height="800" rx="8" fill="#161b22" stroke="#30363d" stroke-width="1"/>

  <!-- ROOT -->
  <rect x="54" y="108" width="110" height="26" rx="5" fill="#2d2016" stroke="#d29922" stroke-width="1"/>
  <text x="109" y="125" fill="#e3b341" font-size="13" font-weight="600" text-anchor="middle" font-family="'SF Mono', monospace">rfPortfolio/</text>

  <!-- Trunk -->
  <line x1="109" y1="134" x2="109" y2="840" stroke="#30363d" stroke-width="1.5"/>

  <!-- ── public/ ── -->
  <line x1="109" y1="170" x2="137" y2="170" stroke="#30363d" stroke-width="1.5"/>
  <rect x="137" y="157" width="72" height="26" rx="5" fill="#12261e" stroke="#3fb950" stroke-width="1"/>
  <text x="173" y="174" fill="#3fb950" font-size="12" font-weight="600" text-anchor="middle" font-family="'SF Mono', monospace">public/</text>
  <line x1="173" y1="183" x2="173" y2="260" stroke="#30363d" stroke-width="1"/>

  <line x1="173" y1="200" x2="198" y2="200" stroke="#30363d" stroke-width="1"/>
  <text x="205" y="204" fill="#6e7681" font-size="11.5" font-family="'SF Mono', monospace">favicon.svg · ogImage.jpg · profile.webp · robots.txt</text>

  <line x1="173" y1="224" x2="198" y2="224" stroke="#30363d" stroke-width="1"/>
  <rect x="198" y="214" width="80" height="22" rx="4" fill="#12261e" stroke="#3fb950" stroke-width="0.5"/>
  <text x="238" y="229" fill="#3fb950" font-size="11" text-anchor="middle" font-family="'SF Mono', monospace">projects/</text>
  <line x1="238" y1="236" x2="238" y2="252" stroke="#30363d" stroke-width="1"/>
  <line x1="238" y1="248" x2="260" y2="248" stroke="#30363d" stroke-width="1"/>
  <text x="267" y="252" fill="#484f58" font-size="11" font-family="'Segoe UI', sans-serif">imágenes .webp de proyectos</text>

  <!-- ── src/ ── -->
  <line x1="109" y1="292" x2="137" y2="292" stroke="#30363d" stroke-width="1.5"/>
  <rect x="137" y="279" width="48" height="26" rx="5" fill="#1c2a3a" stroke="#388bfd" stroke-width="1"/>
  <text x="161" y="296" fill="#79c0ff" font-size="12" font-weight="600" text-anchor="middle" font-family="'SF Mono', monospace">src/</text>

  <!-- src trunk -->
  <line x1="161" y1="305" x2="161" y2="780" stroke="#30363d" stroke-width="1"/>

  <!-- assets/ -->
  <line x1="161" y1="328" x2="186" y2="328" stroke="#30363d" stroke-width="1"/>
  <rect x="186" y="316" width="72" height="22" rx="4" fill="#12261e" stroke="#3fb950" stroke-width="0.5"/>
  <text x="222" y="331" fill="#3fb950" font-size="11" text-anchor="middle" font-family="'SF Mono', monospace">assets/</text>
  <text x="267" y="331" fill="#484f58" font-size="11" font-family="'Segoe UI', sans-serif">SVGs · recursos estáticos</text>

  <!-- components/ -->
  <line x1="161" y1="360" x2="186" y2="360" stroke="#30363d" stroke-width="1"/>
  <rect x="186" y="348" width="108" height="22" rx="4" fill="#12261e" stroke="#3fb950" stroke-width="0.5"/>
  <text x="240" y="363" fill="#3fb950" font-size="11" text-anchor="middle" font-family="'SF Mono', monospace">components/</text>
  <text x="303" y="363" fill="#484f58" font-size="11" font-family="'Segoe UI', sans-serif">Badge · Hero · Header · Footer · Projects…</text>

  <line x1="240" y1="370" x2="240" y2="416" stroke="#30363d" stroke-width="1"/>
  <line x1="240" y1="386" x2="262" y2="386" stroke="#30363d" stroke-width="1"/>
  <rect x="262" y="376" width="60" height="20" rx="3" fill="#12261e" stroke="#3fb950" stroke-width="0.5"/>
  <text x="292" y="389" fill="#3fb950" font-size="10.5" text-anchor="middle" font-family="'SF Mono', monospace">icons/</text>

  <line x1="240" y1="410" x2="262" y2="410" stroke="#30363d" stroke-width="1"/>
  <rect x="262" y="400" width="60" height="20" rx="3" fill="#12261e" stroke="#3fb950" stroke-width="0.5"/>
  <text x="292" y="413" fill="#3fb950" font-size="10.5" text-anchor="middle" font-family="'SF Mono', monospace">logos/</text>

  <!-- content/ -->
  <line x1="161" y1="450" x2="186" y2="450" stroke="#30363d" stroke-width="1"/>
  <rect x="186" y="438" width="80" height="22" rx="4" fill="#271d30" stroke="#bc8cff" stroke-width="0.5"/>
  <text x="226" y="453" fill="#bc8cff" font-size="11" text-anchor="middle" font-family="'SF Mono', monospace">content/</text>
  <text x="275" y="453" fill="#484f58" font-size="11" font-family="'Segoe UI', sans-serif">Content Collections (Astro)</text>

  <line x1="226" y1="460" x2="226" y2="500" stroke="#30363d" stroke-width="1"/>
  <line x1="226" y1="474" x2="248" y2="474" stroke="#30363d" stroke-width="1"/>
  <text x="255" y="478" fill="#6e7681" font-size="11" font-family="'SF Mono', monospace">config.ts</text>
  <text x="348" y="478" fill="#484f58" font-size="11" font-family="'Segoe UI', sans-serif">schema de colecciones</text>

  <line x1="226" y1="496" x2="248" y2="496" stroke="#30363d" stroke-width="1"/>
  <rect x="248" y="486" width="64" height="20" rx="3" fill="#271d30" stroke="#bc8cff" stroke-width="0.5"/>
  <text x="280" y="499" fill="#bc8cff" font-size="10.5" text-anchor="middle" font-family="'SF Mono', monospace">works/</text>
  <text x="320" y="499" fill="#484f58" font-size="11" font-family="'Segoe UI', sans-serif">proyectos en .md</text>

  <!-- i18n/ -->
  <line x1="161" y1="536" x2="186" y2="536" stroke="#30363d" stroke-width="1"/>
  <rect x="186" y="524" width="56" height="22" rx="4" fill="#1c2a3a" stroke="#388bfd" stroke-width="0.5"/>
  <text x="214" y="539" fill="#79c0ff" font-size="11" text-anchor="middle" font-family="'SF Mono', monospace">i18n/</text>

  <line x1="214" y1="546" x2="214" y2="570" stroke="#30363d" stroke-width="1"/>
  <line x1="214" y1="558" x2="236" y2="558" stroke="#30363d" stroke-width="1"/>
  <text x="243" y="562" fill="#6e7681" font-size="11" font-family="'SF Mono', monospace">es.json · en.json</text>

  <!-- layouts/ -->
  <line x1="161" y1="600" x2="186" y2="600" stroke="#30363d" stroke-width="1"/>
  <rect x="186" y="588" width="76" height="22" rx="4" fill="#12261e" stroke="#3fb950" stroke-width="0.5"/>
  <text x="224" y="603" fill="#3fb950" font-size="11" text-anchor="middle" font-family="'SF Mono', monospace">layouts/</text>

  <line x1="224" y1="610" x2="224" y2="628" stroke="#30363d" stroke-width="1"/>
  <line x1="224" y1="624" x2="246" y2="624" stroke="#30363d" stroke-width="1"/>
  <text x="253" y="628" fill="#6e7681" font-size="11" font-family="'SF Mono', monospace">Layout.astro</text>
  <text x="370" y="628" fill="#484f58" font-size="11" font-family="'Segoe UI', sans-serif">head · meta · temas</text>

  <!-- pages/ -->
  <line x1="161" y1="660" x2="186" y2="660" stroke="#30363d" stroke-width="1"/>
  <rect x="186" y="648" width="68" height="22" rx="4" fill="#1c2a3a" stroke="#388bfd" stroke-width="0.5"/>
  <text x="220" y="663" fill="#79c0ff" font-size="11" text-anchor="middle" font-family="'SF Mono', monospace">pages/</text>

  <line x1="220" y1="670" x2="220" y2="716" stroke="#30363d" stroke-width="1"/>
  <line x1="220" y1="682" x2="242" y2="682" stroke="#30363d" stroke-width="1"/>
  <text x="249" y="686" fill="#6e7681" font-size="11" font-family="'SF Mono', monospace">index.astro</text>
  <text x="360" y="686" fill="#484f58" font-size="11" font-family="'Segoe UI', sans-serif">Home (ES)</text>

  <line x1="220" y1="700" x2="242" y2="700" stroke="#30363d" stroke-width="1"/>
  <text x="249" y="704" fill="#6e7681" font-size="11" font-family="'SF Mono', monospace">en/index.astro</text>
  <text x="380" y="704" fill="#484f58" font-size="11" font-family="'Segoe UI', sans-serif">Home (EN)</text>

  <line x1="220" y1="718" x2="242" y2="718" stroke="#30363d" stroke-width="1"/>
  <text x="249" y="722" fill="#6e7681" font-size="11" font-family="'SF Mono', monospace">projects/[id].astro</text>
  <text x="420" y="722" fill="#484f58" font-size="11" font-family="'Segoe UI', sans-serif">página dinámica de proyecto</text>

  <!-- styles/ -->
  <line x1="161" y1="756" x2="186" y2="756" stroke="#30363d" stroke-width="1"/>
  <rect x="186" y="744" width="68" height="22" rx="4" fill="#2d1b2e" stroke="#f778ba" stroke-width="0.5"/>
  <text x="220" y="759" fill="#f778ba" font-size="11" text-anchor="middle" font-family="'SF Mono', monospace">styles/</text>

  <line x1="220" y1="766" x2="220" y2="782" stroke="#30363d" stroke-width="1"/>
  <line x1="220" y1="778" x2="242" y2="778" stroke="#30363d" stroke-width="1"/>
  <text x="249" y="782" fill="#6e7681" font-size="11" font-family="'SF Mono', monospace">global.css</text>
  <text x="360" y="782" fill="#484f58" font-size="11" font-family="'Segoe UI', sans-serif">Tailwind config + estilos globales</text>

  <!-- Config files -->
  <line x1="109" y1="818" x2="137" y2="818" stroke="#30363d" stroke-width="1.5"/>
  <text x="144" y="822" fill="#6e7681" font-size="11.5" font-family="'SF Mono', monospace">astro.config.mjs · tailwind.config.mjs · tsconfig.json · package.json</text>

  <!-- LEGEND -->
  <rect x="572" y="108" width="228" height="152" rx="7" fill="#0d1117" stroke="#30363d" stroke-width="1"/>
  <text x="686" y="128" fill="#6e7681" font-size="11" text-anchor="middle" font-family="'Segoe UI', sans-serif">leyenda</text>
  <rect x="590" y="140" width="12" height="12" rx="3" fill="#2d2016" stroke="#d29922" stroke-width="1"/>
  <text x="610" y="151" fill="#8b949e" font-size="11" font-family="'Segoe UI', sans-serif">Root</text>
  <rect x="590" y="160" width="12" height="12" rx="3" fill="#12261e" stroke="#3fb950" stroke-width="1"/>
  <text x="610" y="171" fill="#8b949e" font-size="11" font-family="'Segoe UI', sans-serif">UI / Componentes Astro</text>
  <rect x="590" y="180" width="12" height="12" rx="3" fill="#271d30" stroke="#bc8cff" stroke-width="1"/>
  <text x="610" y="191" fill="#8b949e" font-size="11" font-family="'Segoe UI', sans-serif">Content Collections</text>
  <rect x="590" y="200" width="12" height="12" rx="3" fill="#1c2a3a" stroke="#388bfd" stroke-width="1"/>
  <text x="610" y="211" fill="#8b949e" font-size="11" font-family="'Segoe UI', sans-serif">Routing / i18n</text>
  <rect x="590" y="220" width="12" height="12" rx="3" fill="#2d1b2e" stroke="#f778ba" stroke-width="1"/>
  <text x="610" y="231" fill="#8b949e" font-size="11" font-family="'Segoe UI', sans-serif">Estilos globales</text>
  <text x="686" y="252" fill="#484f58" font-size="10" text-anchor="middle" font-family="'Segoe UI', sans-serif">Astro · Tailwind · TypeScript · pnpm</text>
</svg>
