<svg width="149" height="83" viewBox="0 0 149 83" fill="none" xmlns="http://www.w3.org/2000/svg">
<path fill-rule="evenodd" clip-rule="evenodd" d="M68.7101 59.3954H80.2943V59.4036C90.6949 59.4036 99.1597 50.938 99.1597 40.5374V18.8662C99.1597 8.46475 90.6949 -3.8147e-06 80.2943 -3.8147e-06H68.7101C58.3094 -3.8147e-06 49.8447 8.46475 49.8447 18.8662V40.53C49.8447 50.9306 58.3094 59.3954 68.7101 59.3954ZM52.1955 18.8662C52.1955 9.7586 59.6025 2.35163 68.7101 2.35163H80.2943C89.4019 2.35163 96.8088 9.7586 96.8088 18.8662V40.5374C96.8088 49.645 89.4019 57.0519 80.2943 57.0519H68.7101C59.6025 57.0519 52.1955 49.645 52.1955 40.5374V18.8662ZM81.9555 18.8727C81.9982 18.7865 82.0485 18.7003 82.0988 18.6141L82.1124 18.5909C82.1671 18.4961 82.2692 18.4259 82.4097 18.3785C82.551 18.3319 82.7389 18.2927 82.9668 18.2535C83.1938 18.2143 83.523 18.1988 83.9461 18.1988H83.9462C84.1341 18.1988 84.3775 18.1988 84.6829 18.1833C84.8183 18.1797 84.9569 18.1746 85.1 18.1694C85.2798 18.1628 85.4666 18.156 85.6631 18.1514L85.668 18.1512C86.0184 18.1357 86.3697 18.1203 86.7291 18.0967C87.0893 18.073 87.4185 18.0493 87.724 18.0264C87.7713 18.2617 87.795 18.4496 87.795 18.5827C87.795 18.9584 87.6774 19.1545 87.4421 19.1782C86.6033 19.2958 86.0388 19.4526 85.7644 19.6487C85.4826 19.8447 85.3413 20.111 85.3413 20.4402C85.3413 20.4638 85.3568 20.7693 85.396 21.3648C85.4282 21.8545 85.4659 22.6079 85.5172 23.6343L85.5173 23.6345L85.5528 24.3438C85.6239 25.7307 85.7097 27.5808 85.8118 29.8925C85.9139 32.2049 86.0388 35.0736 86.1802 38.4985C86.2038 38.9453 86.3525 39.2663 86.6343 39.4787C86.9169 39.6903 87.4887 39.8626 88.3513 40.0031C88.4689 40.0268 88.5547 40.0897 88.6102 40.1918C88.6649 40.3012 88.696 40.4189 88.696 40.5602C88.696 40.7007 88.6723 40.8894 88.6257 41.1246C88.2247 41.1013 87.8406 41.08 87.4746 41.0596C87.0967 41.0387 86.7381 41.0187 86.3999 40.9988C85.7334 40.9596 85.1224 40.9441 84.5653 40.9441C84.33 40.9441 84.0401 40.9441 83.688 40.9596C83.4961 40.968 83.3019 40.9743 83.1016 40.9808L83.1011 40.9808C82.9332 40.9862 82.7612 40.9917 82.5829 40.9988C82.1981 41.007 81.8142 41.0299 81.4458 41.0535C81.0774 41.0772 80.7483 41.1009 80.4665 41.1246C80.4191 40.8894 80.3954 40.7007 80.3954 40.5602C80.3954 40.1836 80.513 40.0031 80.7483 40.0031C81.6811 39.8152 82.3158 39.6274 82.6531 39.4395C82.9904 39.2508 83.1628 38.9371 83.1628 38.4912C83.1628 38.4201 83.1465 37.9888 83.1073 37.1973C83.0762 36.4058 83.0297 35.4338 82.9668 34.2894C82.9039 33.1451 82.8491 31.9149 82.7944 30.5827C82.7589 29.8309 82.7261 29.1043 82.6943 28.4028L82.6942 28.3995C82.6697 27.8582 82.6459 27.3319 82.6221 26.8204C82.5901 26.224 82.5622 25.6678 82.5364 25.1529C82.5113 24.653 82.4882 24.1921 82.4652 23.7712C82.4179 22.9168 82.3942 22.3997 82.3942 22.2118L74.7291 40.7244C74.6351 40.9359 74.5486 41.0928 74.4628 41.1949C74.3844 41.297 74.2741 41.3517 74.1336 41.3517C73.9686 41.3517 73.8665 41.3435 73.82 41.3198L65.2449 21.6474C65.2221 21.8827 65.1902 22.4463 65.1592 23.3481C65.1292 24.0377 65.0944 24.8233 65.0552 25.7087L65.0179 26.5541C64.9748 27.5288 64.9221 28.542 64.8669 29.602L64.8668 29.6046L64.8218 30.4724C64.7516 31.852 64.6887 33.1222 64.6339 34.2894C64.5938 35.035 64.5633 35.7036 64.5363 36.2958L64.5362 36.2974C64.521 36.6325 64.5068 36.943 64.4926 37.2292C64.4534 38.0207 64.4379 38.4438 64.4379 38.4912C64.4379 39.2116 65.2294 39.7131 66.8206 39.9958C67.0558 40.0194 67.1735 40.2073 67.1735 40.552C67.1735 40.6933 67.1498 40.8812 67.1024 41.1164C66.5121 41.0718 65.9284 41.0344 65.3512 40.9975L65.3507 40.9974L65.2449 40.9906C64.6413 40.9523 64.1006 40.9359 63.6382 40.9359C63.2625 40.9359 62.761 40.9523 62.1336 40.9906C61.5063 41.0225 60.9109 41.0691 60.3464 41.1164C60.2999 40.8812 60.2762 40.6933 60.2762 40.552C60.2762 40.2228 60.3938 40.0423 60.6291 39.9958C61.2556 39.8781 61.7653 39.7058 62.1492 39.4861C62.5331 39.2663 62.7528 38.9371 62.8002 38.4912C62.8002 38.2788 62.823 37.6915 62.8704 36.7276C62.917 35.763 62.9725 34.6112 63.0273 33.279C63.0554 32.6834 63.0833 32.0723 63.1119 31.4457C63.1474 30.6698 63.184 29.87 63.2233 29.0462C63.2459 28.5661 63.2678 28.0965 63.2892 27.638C63.3341 26.6745 63.3767 25.7601 63.4193 24.9C63.4741 23.6299 63.5206 22.5802 63.5598 21.7487C63.599 20.918 63.6145 20.4949 63.6145 20.4712C63.6145 20.0955 63.4659 19.8292 63.1759 19.6487C62.8859 19.4681 62.3297 19.3195 61.5145 19.1782C61.2792 19.1545 61.1616 18.9584 61.1616 18.5827C61.1616 18.4414 61.1853 18.2535 61.2319 18.0264C61.5382 18.0493 61.8829 18.073 62.2668 18.0967C62.6507 18.1204 63.0346 18.1359 63.4193 18.1514C63.6243 18.1558 63.8248 18.1622 64.0209 18.1685L64.0211 18.1686C64.1922 18.1741 64.3601 18.1795 64.5245 18.1833C64.8765 18.1988 65.1509 18.1988 65.3625 18.1988H65.3626C65.7857 18.1988 66.1075 18.2143 66.3427 18.2535C66.578 18.2846 66.7659 18.3319 66.899 18.3785C67.0321 18.4259 67.1342 18.4961 67.1971 18.5909C67.2519 18.6848 67.3066 18.7787 67.354 18.8727L74.8467 36.3356L81.9474 18.8727H81.9555ZM113.527 80.0826C113.221 79.871 112.892 79.7297 112.531 79.6513L112.547 79.6431V79.5966C113.041 79.51 113.488 79.3532 113.896 79.1187C114.303 78.8835 114.648 78.5935 114.938 78.2406C115.22 77.8878 115.447 77.4802 115.604 77.0179C115.76 76.5555 115.839 76.0695 115.839 75.5133C115.839 74.9562 115.745 74.4236 115.572 73.9139C115.4 73.4042 115.134 72.9574 114.781 72.5662C114.421 72.1814 113.974 71.8686 113.432 71.6407C112.884 71.4136 112.257 71.296 111.528 71.296C111.003 71.296 110.502 71.4063 110.023 71.6333C109.545 71.8604 109.13 72.1659 108.769 72.5498C108.409 72.9345 108.126 73.3814 107.915 73.8902C107.703 74.3999 107.601 74.9407 107.601 75.5206C107.601 76.1006 107.688 76.6413 107.852 77.1273C108.017 77.6133 108.259 78.0364 108.566 78.4048C108.871 78.7732 109.247 79.0632 109.678 79.2911C110.118 79.51 110.603 79.6513 111.144 79.7142C111.324 79.7689 111.52 79.8629 111.716 80.0042C111.912 80.1455 112.116 80.3015 112.328 80.482C112.54 80.6625 112.759 80.8504 112.986 81.0464C113.213 81.2425 113.449 81.423 113.691 81.5872C113.935 81.7522 114.186 81.8853 114.452 81.9866C114.711 82.0887 114.993 82.1434 115.282 82.1434C115.369 82.1434 115.47 82.1279 115.604 82.1042C115.737 82.0814 115.862 82.0421 115.988 81.9866C116.113 81.9319 116.223 81.8616 116.325 81.7832C116.427 81.7048 116.49 81.6182 116.513 81.5169C116.513 81.4777 116.49 81.454 116.451 81.454C116.364 81.454 116.278 81.4696 116.176 81.5088C116.074 81.548 115.965 81.5635 115.847 81.5635C115.612 81.5635 115.385 81.4777 115.141 81.3054C114.899 81.133 114.648 80.9443 114.382 80.7254C114.114 80.5057 113.833 80.2941 113.527 80.0826ZM112.978 78.9064C112.657 79.0558 112.296 79.1342 111.904 79.1342V79.1498C111.426 79.1498 110.995 79.0403 110.619 78.8206C110.243 78.6009 109.922 78.3035 109.671 77.9115C109.42 77.5194 109.224 77.0644 109.091 76.5318C108.95 75.9985 108.887 75.4267 108.887 74.8075C108.887 74.337 108.957 73.9294 109.098 73.5692C109.24 73.2082 109.436 72.9027 109.671 72.6601C109.905 72.4167 110.18 72.2288 110.493 72.0957C110.807 71.9625 111.128 71.8996 111.474 71.8996C111.991 71.8996 112.437 72.0091 112.83 72.2288C113.213 72.4485 113.534 72.7459 113.793 73.1224C114.052 73.5063 114.24 73.945 114.365 74.4628C114.491 74.9717 114.554 75.5288 114.554 76.1324C114.554 76.5629 114.491 76.9631 114.358 77.3315C114.232 77.6917 114.052 78.0136 113.817 78.2799C113.582 78.5461 113.307 78.7577 112.978 78.9064ZM42.0452 79.5225C41.6687 79.5854 41.2848 79.6401 40.8927 79.6793C40.5014 79.7185 40.0465 79.734 39.5139 79.734C38.7926 79.734 38.1735 79.6246 37.6401 79.4048C37.1075 79.1851 36.6681 78.8951 36.3234 78.5194C35.9705 78.1428 35.7124 77.696 35.54 77.1871C35.3677 76.6775 35.2811 76.113 35.2811 75.5176C35.2811 75.016 35.3677 74.5137 35.54 74.0122C35.7124 73.5106 35.9705 73.0638 36.316 72.6644C36.6607 72.265 37.0993 71.9358 37.6246 71.6842C38.1498 71.4261 38.7608 71.3003 39.4665 71.3003C39.7173 71.3003 39.9607 71.3003 40.1878 71.3166C40.4148 71.3322 40.6419 71.3477 40.8698 71.3869C41.0969 71.4179 41.324 71.4571 41.551 71.5045C41.7789 71.5511 42.0297 71.6066 42.296 71.6768C42.3115 71.9668 42.3434 72.2723 42.3899 72.586C42.4373 72.8996 42.5002 73.2051 42.5704 73.5033C42.5549 73.5188 42.5231 73.5343 42.4683 73.5425L42.4529 73.5449C42.4115 73.5515 42.371 73.558 42.3434 73.558C42.2102 73.558 42.1236 73.5033 42.0926 73.393C41.9431 72.8367 41.685 72.4373 41.3321 72.1939C40.9711 71.9513 40.4622 71.8337 39.7957 71.8337C39.2631 71.8337 38.7926 71.9194 38.3932 72.0918C37.993 72.265 37.6638 72.5076 37.3975 72.8131C37.1312 73.1185 36.9352 73.4796 36.802 73.9027C36.6681 74.3258 36.5978 74.7808 36.5978 75.2741C36.5978 75.8467 36.6844 76.3793 36.8568 76.8653C37.0291 77.3513 37.2643 77.7671 37.5543 78.1191C37.8516 78.472 38.2045 78.7383 38.6048 78.9343C39.0124 79.1304 39.451 79.2243 39.9215 79.2243C40.1641 79.2243 40.4075 79.2088 40.6501 79.1777C40.8927 79.1459 41.1051 79.0993 41.2692 79.052V77.1398C41.2692 76.9127 41.2063 76.7559 41.0732 76.6693C40.9401 76.5835 40.713 76.5206 40.3993 76.4732C40.3291 76.4732 40.2899 76.434 40.258 76.3875C40.227 76.3401 40.2188 76.2854 40.2188 76.238C40.2188 76.1759 40.227 76.1049 40.2425 76.0346C40.4851 76.0501 40.7522 76.0657 41.0422 76.082C41.3321 76.0975 41.5903 76.0975 41.8026 76.0975C42.0142 76.0975 42.2649 76.0975 42.5468 76.082C42.6245 76.0775 42.6991 76.0737 42.7708 76.07C42.9599 76.0604 43.1281 76.0518 43.2762 76.0346C43.2917 76.1212 43.299 76.1833 43.299 76.238C43.299 76.3246 43.2835 76.3793 43.2525 76.4112C43.2206 76.4422 43.1896 76.4577 43.1422 76.4659C42.8759 76.4969 42.6881 76.5517 42.586 76.6382C42.4839 76.7167 42.4291 76.8416 42.4291 77.0066V79.2325C42.4291 79.3109 42.4054 79.3738 42.3662 79.4203C42.327 79.4677 42.2102 79.5143 42.0142 79.5461L42.0452 79.5225ZM21.5102 76.6119H24.3005L24.2923 76.6201L25.0846 78.6809C25.1157 78.7594 25.1312 78.8223 25.1312 78.8696C25.1312 78.9791 25.0683 79.0575 24.9352 79.1122C24.802 79.167 24.6297 79.2143 24.4099 79.2535C24.3871 79.2535 24.3634 79.2691 24.3315 79.3001C24.3005 79.332 24.285 79.3785 24.285 79.4569C24.285 79.5117 24.2923 79.5745 24.3087 79.6611C24.4858 79.6438 24.68 79.6348 24.888 79.6252L24.8884 79.6251L24.9619 79.6217L25.0244 79.6187L25.1238 79.6138C25.4212 79.5982 25.6956 79.5982 25.9227 79.5982C26.1506 79.5982 26.3932 79.5982 26.6521 79.6138L26.9535 79.6317C27.1156 79.6413 27.2798 79.6511 27.4436 79.6611C27.4591 79.5745 27.4673 79.5043 27.4673 79.4569C27.4673 79.3785 27.451 79.332 27.4199 79.3001C27.3889 79.2691 27.3497 79.2454 27.3023 79.2299C27.1381 79.1988 26.965 79.1514 26.7926 79.0885C26.6203 79.0256 26.5026 78.9317 26.4561 78.8141L23.4306 71.3295C23.3677 71.3132 23.3129 71.3058 23.2819 71.3058C23.1798 71.3058 23.1014 71.3761 23.0467 71.5174L20.0285 78.7749C19.9738 78.9162 19.8798 79.0101 19.7467 79.073C19.6209 79.1359 19.4257 79.1906 19.1667 79.2299C19.0965 79.2454 19.0573 79.2691 19.0336 79.3083C19.0099 79.3475 19.0017 79.4022 19.0017 79.4569C19.0017 79.528 19.0099 79.5982 19.0254 79.6611C19.1471 79.6459 19.2685 79.637 19.3855 79.6285L19.3859 79.6285C19.4502 79.6238 19.5133 79.6193 19.5743 79.6138C19.7467 79.5982 19.919 79.5982 20.084 79.5982C20.3266 79.5982 20.57 79.5982 20.8208 79.6138C21.0716 79.6293 21.3068 79.6448 21.5339 79.6611C21.5494 79.5745 21.5576 79.5117 21.5576 79.4569C21.5576 79.4022 21.5494 79.363 21.5257 79.3238C21.502 79.2846 21.4628 79.2609 21.4081 79.2535C20.8992 79.1751 20.6485 79.0493 20.6485 78.877C20.6485 78.8067 20.6713 78.7283 20.7105 78.6262L21.5102 76.6119ZM22.9364 73.0302L24.0971 76.0949H21.7218L22.9364 73.0302ZM8.23292 71.5909C8.20923 71.6301 8.17819 71.693 8.17819 71.693L8.20923 71.6848L5.66972 77.9319L2.98972 71.6848L2.97892 71.6625C2.96642 71.6363 2.95265 71.6075 2.93499 71.5835C2.9113 71.5443 2.8721 71.5206 2.82472 71.5051C2.77906 71.4854 2.72771 71.4764 2.66213 71.465L2.62133 71.4577C2.53475 71.4422 2.41712 71.4422 2.26846 71.4422H1.97032C1.84535 71.4341 1.71956 71.4267 1.57906 71.4267C1.45598 71.4267 1.33909 71.4205 1.2176 71.414H1.21757H1.21753H1.21749H1.21745H1.21739H1.21733H1.21727H1.21719H1.2171H1.217L1.1633 71.4112C1.04164 71.4042 0.937548 71.3971 0.841105 71.3906L0.79491 71.3875C0.77939 71.4659 0.771222 71.5362 0.771222 71.5835C0.771222 71.7167 0.81043 71.7869 0.897013 71.7951C1.18699 71.8498 1.39037 71.9045 1.49248 71.9674C1.59458 72.0377 1.64931 72.1316 1.64931 72.2648C1.64931 72.2729 1.64931 72.4216 1.63379 72.7197C1.62562 73.0179 1.6101 73.3936 1.58641 73.8486C1.56273 74.3027 1.53985 74.7969 1.51617 75.3295C1.49248 75.8629 1.46879 76.3644 1.4451 76.8423C1.42958 77.3127 1.41406 77.7203 1.39037 78.0732C1.36669 78.4261 1.36669 78.6295 1.36669 78.7079C1.34382 78.8721 1.27275 78.9897 1.13226 79.0681C0.999115 79.1465 0.818597 79.2094 0.59152 79.2486C0.504937 79.2641 0.465729 79.327 0.465729 79.4447C0.465729 79.4994 0.473897 79.5623 0.489417 79.648C0.628427 79.6318 0.775242 79.623 0.92986 79.6137L0.93079 79.6137C0.993923 79.6099 1.05836 79.606 1.12409 79.6015C1.35117 79.586 1.53169 79.586 1.66483 79.586C1.82983 79.586 2.0177 79.586 2.23742 79.6015C2.45633 79.617 2.67606 79.6325 2.90313 79.648C2.91865 79.5623 2.92682 79.492 2.92682 79.4447C2.92682 79.327 2.88762 79.2568 2.80103 79.2486C2.22925 79.1465 1.94745 78.9668 1.94745 78.7079C1.94745 78.6924 1.94745 78.5429 1.96297 78.2611C1.97032 77.9793 1.98666 77.6264 2.00953 77.2106C2.03322 76.7957 2.0569 76.3407 2.08059 75.8474C2.09005 75.643 2.10104 75.4427 2.11178 75.2471C2.12702 74.9695 2.14174 74.7013 2.15084 74.4441C2.16636 74.0054 2.18188 73.6207 2.19821 73.2997C2.20334 73.1961 2.20758 73.1045 2.21125 73.0251C2.21868 72.8644 2.22378 72.754 2.22925 72.6961L5.29398 79.7265C5.3095 79.7428 5.34871 79.7428 5.40344 79.7428C5.45081 79.7428 5.49002 79.7265 5.52106 79.6873C5.5521 79.648 5.58395 79.5933 5.61499 79.5149L8.35871 72.8921C8.35871 72.9623 8.36606 73.1429 8.38158 73.4483C8.38817 73.5719 8.39463 73.7042 8.40154 73.8459C8.41177 74.0555 8.42299 74.2856 8.43712 74.538C8.45073 74.7897 8.46202 75.0498 8.47375 75.3199C8.48174 75.5039 8.48994 75.6926 8.4992 75.8866C8.50875 76.0791 8.51697 76.2653 8.52493 76.4456C8.53672 76.7129 8.54796 76.9673 8.5621 77.2106C8.57762 77.6264 8.59396 77.9711 8.60947 78.2529C8.62499 78.5355 8.62499 78.6924 8.62499 78.716C8.62499 78.8721 8.5621 78.9823 8.44448 79.0526C8.32685 79.1236 8.09978 79.1857 7.76243 79.2568C7.67666 79.2568 7.63745 79.3189 7.63745 79.4528C7.63745 79.5076 7.6448 79.5696 7.66114 79.6562C7.76243 79.648 7.88005 79.6407 8.01319 79.6325L8.04986 79.6305C8.17152 79.6237 8.29312 79.617 8.42079 79.617C8.55475 79.6088 8.68789 79.6015 8.81286 79.6015H9.12652C9.33073 79.6015 9.54964 79.6015 9.78489 79.617C10.0201 79.6325 10.2864 79.648 10.5764 79.6644C10.5919 79.5778 10.6001 79.5149 10.6001 79.4602C10.6001 79.4054 10.5919 79.3662 10.569 79.327C10.5454 79.2878 10.5135 79.2641 10.4751 79.2568C10.1688 79.2094 9.9654 79.1465 9.8633 79.0681C9.7612 78.9897 9.69912 78.8721 9.69912 78.716C9.67284 78.1337 9.65022 77.5971 9.62953 77.1061L9.62953 77.1061C9.60648 76.5593 9.58582 76.0692 9.56516 75.6358C9.54618 75.2371 9.5291 74.8752 9.51386 74.5519L9.51369 74.5484L9.5136 74.5465C9.49747 74.2044 9.48338 73.9057 9.47122 73.6525L9.46087 73.4321L9.46086 73.432L9.46085 73.4318C9.44277 73.0459 9.42963 72.7656 9.4165 72.5866C9.40098 72.375 9.40098 72.2648 9.40098 72.2574C9.40098 72.1398 9.44835 72.0459 9.54964 71.9748C9.65174 71.8964 9.85513 71.8417 10.1533 71.8024C10.2399 71.7951 10.2791 71.724 10.2791 71.5909C10.2791 71.5443 10.2709 71.4814 10.2554 71.3949C10.2248 71.3971 10.1935 71.4 10.1614 71.4029C10.0788 71.4105 9.99083 71.4185 9.89434 71.4185C9.7612 71.4267 9.63622 71.4341 9.51043 71.4341L9.48807 71.4355L9.48775 71.4355C9.3712 71.4432 9.26114 71.4504 9.15756 71.4504H8.89128C8.74262 71.4504 8.61683 71.4504 8.53841 71.4659C8.46 71.4814 8.38975 71.4969 8.34237 71.5125C8.28765 71.5362 8.25661 71.5598 8.23292 71.5909ZM58.4424 72.3744V77.6021L58.4342 77.5866L53.9433 71.5903C53.8886 71.52 53.8257 71.4808 53.7473 71.4653C53.6689 71.449 53.512 71.4416 53.2694 71.4416H52.87C52.7281 71.4416 52.5943 71.4342 52.4666 71.4272L52.4461 71.4261C52.2994 71.418 52.1376 71.4028 51.9748 71.3875L51.9746 71.3875L51.9682 71.3869C51.9527 71.4179 51.9527 71.449 51.9527 71.4726C51.9372 71.5045 51.9372 71.5437 51.9372 71.5829C51.9372 71.7079 51.9837 71.779 52.0777 71.7945C52.3758 71.841 52.58 71.8958 52.674 71.9668C52.7679 72.0371 52.8145 72.1392 52.8145 72.2723V78.7073C52.8145 78.8796 52.7597 78.9972 52.6584 79.0601C52.5563 79.1304 52.3521 79.1851 52.0548 79.248C51.9609 79.2635 51.9135 79.3264 51.9135 79.444C51.9135 79.4988 51.9217 79.5617 51.9372 79.6474C52.0686 79.6307 52.2132 79.6218 52.3702 79.6122C52.4279 79.6087 52.4872 79.605 52.5482 79.6009C52.7752 79.5854 52.9713 79.5854 53.1363 79.5854C53.3242 79.5854 53.5202 79.5854 53.7318 79.6009L54.3664 79.6474C54.3828 79.5617 54.3901 79.4914 54.3901 79.444C54.3901 79.3346 54.3509 79.2635 54.2651 79.248C53.936 79.1933 53.7081 79.1304 53.5904 79.0601C53.4728 78.9891 53.4181 78.8714 53.4181 78.7073V72.813L58.4971 79.5069C58.56 79.6009 58.6147 79.6556 58.6695 79.6866C58.7242 79.7185 58.7716 79.734 58.8345 79.734H58.9366C58.9749 79.734 59.0223 79.7185 59.0223 79.7185V72.3426C59.0223 72.1784 59.0771 72.0526 59.1792 71.9823C59.2813 71.9121 59.4773 71.8492 59.7591 71.81C59.8457 71.8018 59.8849 71.7316 59.8849 71.5984C59.8849 71.5511 59.8767 71.489 59.8612 71.4024C59.7306 71.4182 59.5999 71.4267 59.4693 71.4352C59.4039 71.4395 59.3385 71.4438 59.2731 71.449C59.0771 71.4653 58.8892 71.4653 58.7013 71.4653C58.5126 71.4653 58.3092 71.4653 58.0895 71.449L57.4548 71.4024C57.4393 71.4808 57.4312 71.5511 57.4312 71.5984C57.4312 71.7316 57.4785 71.8018 57.5725 71.81C57.8861 71.8492 58.1132 71.9039 58.2463 71.9823C58.3795 72.0608 58.4424 72.1939 58.4424 72.3744ZM70.8804 78.7117C70.8804 78.8767 70.9433 78.9935 71.0528 79.0564C71.1704 79.1193 71.3901 79.1822 71.7038 79.2524C71.7896 79.2679 71.8288 79.339 71.8288 79.4485C71.8288 79.4958 71.8206 79.5661 71.8051 79.6519L71.0291 79.6053C70.771 79.5898 70.5276 79.5898 70.2923 79.5898C70.0571 79.5898 69.8226 79.5898 69.5482 79.6053C69.469 79.6098 69.3918 79.6136 69.3162 79.6174L69.3145 79.6175L69.3142 79.6175L69.3138 79.6176L69.3134 79.6176C69.1279 79.6269 68.9519 79.6357 68.7796 79.6519C68.764 79.5661 68.7567 79.5032 68.7567 79.4485C68.7567 79.3308 68.7959 79.2679 68.8817 79.2524C69.1953 79.1895 69.415 79.1348 69.5327 79.0646C69.6503 79.0017 69.705 78.884 69.705 78.7117V72.3396C69.705 72.1746 69.6503 72.057 69.5327 71.9786C69.415 71.9084 69.1953 71.8455 68.8817 71.7989C68.8351 71.7907 68.7959 71.767 68.7796 71.7205C68.764 71.6813 68.7567 71.6339 68.7567 71.5792C68.7567 71.5244 68.764 71.4616 68.7796 71.3831C69.0303 71.3987 69.2893 71.415 69.5637 71.4305C69.8382 71.446 70.0808 71.446 70.2923 71.446C70.5039 71.446 70.7391 71.446 71.0136 71.4305L71.0965 71.426L71.1517 71.4231L71.2547 71.418C71.442 71.4088 71.6237 71.3998 71.8051 71.3831C71.8206 71.4697 71.8288 71.5326 71.8288 71.5792C71.8288 71.705 71.7896 71.7752 71.7038 71.7907C71.3901 71.8381 71.1704 71.9002 71.0528 71.9713C70.9352 72.0415 70.8804 72.1591 70.8804 72.3315V78.7035V78.7117ZM81.5719 71.9859C81.7051 72.057 81.768 72.1746 81.768 72.3388L81.7443 72.3233V78.6953C81.7443 78.8595 81.6658 78.9771 81.509 79.04C81.3522 79.1029 81.1333 79.1658 80.8588 79.2361C80.7722 79.2442 80.733 79.3063 80.733 79.4321C80.733 79.4868 80.7412 79.5497 80.7567 79.6355C80.9284 79.6194 81.1114 79.6105 81.3033 79.6013C81.3835 79.5975 81.4652 79.5935 81.5482 79.5889C81.8308 79.5734 82.0816 79.5734 82.3087 79.5734C82.5521 79.5734 82.7865 79.5808 83.0063 79.5889C83.226 79.5963 83.422 79.6045 83.5862 79.6126C83.7704 79.6193 83.9414 79.6266 84.0997 79.6333L84.1027 79.6335L84.1042 79.6335L84.1049 79.6335L84.1506 79.6355C84.1661 79.5571 84.1743 79.4795 84.1743 79.4239C84.1743 79.2908 84.1269 79.2206 84.0257 79.2124C83.712 79.1732 83.4531 79.1184 83.2415 79.0555C83.0299 78.9935 82.9205 78.8759 82.9205 78.7109V75.8111H84.7853C84.9503 75.8111 85.0679 75.8969 85.1463 76.0619C85.2247 76.2261 85.2795 76.4148 85.3105 76.6337C85.3187 76.7047 85.3497 76.7439 85.3889 76.7668C85.4363 76.7905 85.491 76.7987 85.5539 76.7987C85.6087 76.7987 85.6789 76.7905 85.7418 76.775C85.7181 76.516 85.7026 76.289 85.6944 76.0856C85.6789 75.8895 85.6789 75.7172 85.6789 75.5759C85.6789 75.4035 85.6789 75.192 85.6944 74.9567C85.7108 74.7133 85.7263 74.5018 85.7418 74.3221C85.6789 74.3057 85.6087 74.2984 85.5458 74.2984C85.42 74.2984 85.3424 74.3531 85.3187 74.4625C85.2713 74.6823 85.2166 74.8783 85.1463 75.0425C85.0679 75.2075 84.9503 75.2859 84.7853 75.2859H82.9205V71.9549H84.7698C85.0205 71.9549 85.2321 71.9786 85.3971 72.0251C85.5613 72.0725 85.7026 72.1428 85.8276 72.2449C85.9534 72.347 86.0555 72.4801 86.1567 72.6369C86.2589 72.7938 86.3528 72.9816 86.4549 73.2087C86.4941 73.279 86.557 73.3182 86.6591 73.3182C86.6983 73.3182 86.7449 73.3182 86.7841 73.3027C86.8314 73.2871 86.8625 73.2635 86.8862 73.2324C86.8078 73.0756 86.7449 72.8877 86.7138 72.6762C86.682 72.4646 86.6509 72.2604 86.6272 72.0725C86.6035 71.8838 86.5643 71.7115 86.5251 71.5783C86.4859 71.4452 86.4157 71.3749 86.3136 71.3749C86.2041 71.3749 86.0007 71.3905 85.7108 71.4142C85.4208 71.4378 85.1145 71.4534 84.7853 71.4534H82.3087C82.0734 71.4534 81.8308 71.4534 81.5719 71.4378C81.313 71.4215 81.0467 71.406 80.7722 71.3905C80.7567 71.4689 80.7494 71.5391 80.7494 71.5865C80.7494 71.6494 80.7494 71.696 80.7649 71.7278C80.7804 71.7589 80.8114 71.7825 80.8743 71.7981C81.2117 71.861 81.4388 71.923 81.5719 71.9859ZM97.7336 78.7117C97.7336 78.8767 97.7965 78.9935 97.906 79.0564C98.0236 79.1193 98.2433 79.1822 98.557 79.2524C98.6427 79.2679 98.682 79.339 98.682 79.4485C98.682 79.4958 98.6738 79.5661 98.6583 79.6519L97.8823 79.6053C97.6242 79.5898 97.3808 79.5898 97.1455 79.5898C96.9103 79.5898 96.6758 79.5898 96.4014 79.6053C96.3551 79.6079 96.3095 79.6103 96.2645 79.6126L96.1677 79.6175L96.1674 79.6175L96.167 79.6176L96.1666 79.6176C95.9811 79.6269 95.8051 79.6357 95.6328 79.6519C95.6172 79.5661 95.6099 79.5032 95.6099 79.4485C95.6099 79.3308 95.6491 79.2679 95.7349 79.2524C96.0485 79.1895 96.2682 79.1348 96.3859 79.0646C96.5035 79.0017 96.5582 78.884 96.5582 78.7117V72.3396C96.5582 72.1746 96.5035 72.057 96.3859 71.9786C96.2682 71.9084 96.0485 71.8455 95.7349 71.7989C95.6883 71.7907 95.6491 71.767 95.6328 71.7205C95.6172 71.6813 95.6099 71.6339 95.6099 71.5792C95.6099 71.5244 95.6172 71.4616 95.6328 71.3831L95.7447 71.3901C95.9605 71.4035 96.1831 71.4173 96.4169 71.4305C96.6914 71.446 96.934 71.446 97.1455 71.446C97.3571 71.446 97.5923 71.446 97.8668 71.4305C97.9484 71.4259 98.0286 71.4219 98.1079 71.418C98.2952 71.4088 98.4769 71.3998 98.6583 71.3831C98.6738 71.4697 98.682 71.5326 98.682 71.5792C98.682 71.705 98.6427 71.7752 98.557 71.7907C98.2433 71.8381 98.0236 71.9002 97.906 71.9713C97.7884 72.0415 97.7336 72.1591 97.7336 72.3315V78.7035V78.7117ZM131.977 76.5524C131.977 77.0302 131.922 77.4615 131.812 77.8454C131.703 78.2375 131.522 78.5667 131.264 78.8566C131.013 79.1393 130.676 79.3582 130.253 79.515C129.837 79.6718 129.313 79.7421 128.685 79.7421C127.964 79.7421 127.384 79.6563 126.946 79.4758C126.506 79.2953 126.161 79.0608 125.926 78.7709C125.691 78.4801 125.527 78.1435 125.448 77.7596C125.37 77.3831 125.331 76.991 125.331 76.5997V72.3433C125.331 72.1791 125.268 72.0533 125.158 71.983C125.041 71.9046 124.821 71.8499 124.492 71.8107C124.406 71.8025 124.367 71.7323 124.367 71.5991C124.367 71.5518 124.367 71.4815 124.391 71.4031C124.641 71.4186 124.899 71.4341 125.158 71.4497C125.406 71.4653 125.652 71.4652 125.886 71.4652H125.919H125.949C126.16 71.4652 126.402 71.4653 126.678 71.4497C126.765 71.445 126.851 71.4411 126.935 71.4372C127.131 71.4283 127.318 71.4197 127.494 71.4031C127.51 71.4889 127.517 71.5518 127.517 71.5991C127.517 71.7323 127.478 71.8025 127.392 71.8107C127.079 71.8499 126.852 71.912 126.71 71.983C126.577 72.0615 126.506 72.1791 126.506 72.3433V76.3253C126.506 77.1952 126.678 77.8609 127.024 78.3241C127.369 78.7864 127.957 79.0216 128.779 79.0216C129.25 79.0216 129.642 78.9661 129.971 78.8648C130.3 78.7627 130.558 78.5977 130.77 78.3788C130.981 78.1591 131.131 77.8773 131.225 77.5317C131.319 77.187 131.358 76.7721 131.358 76.2861V72.3433C131.358 72.1791 131.295 72.0533 131.17 71.983C131.044 71.9046 130.817 71.8499 130.495 71.8107C130.402 71.8025 130.355 71.7323 130.355 71.5991C130.355 71.5518 130.362 71.4815 130.379 71.4031C130.621 71.4186 130.856 71.4341 131.084 71.4497C131.3 71.4653 131.489 71.4652 131.656 71.4652H131.679H131.706C131.894 71.4652 132.089 71.4653 132.283 71.4497C132.349 71.4446 132.416 71.4404 132.482 71.4362C132.619 71.4276 132.754 71.4191 132.886 71.4031C132.902 71.4889 132.91 71.5518 132.91 71.5991C132.91 71.6384 132.894 71.6849 132.871 71.7323C132.847 71.7788 132.816 71.8025 132.769 71.8107C132.463 71.8417 132.243 71.8965 132.126 71.983C132.008 72.0688 131.946 72.1864 131.946 72.3514V76.5605L131.977 76.5524ZM143.898 75.1702V71.9642L143.89 71.956H145.74C145.991 71.956 146.202 71.9879 146.374 72.0344C146.547 72.09 146.688 72.1602 146.814 72.2623C146.939 72.3636 147.041 72.4894 147.135 72.6462C147.229 72.8031 147.323 72.9828 147.425 73.2025C147.456 73.2727 147.527 73.312 147.636 73.312C147.723 73.312 147.801 73.2809 147.864 73.2335C147.77 73.0849 147.707 72.9044 147.676 72.6854L147.656 72.5495C147.631 72.3861 147.608 72.2274 147.589 72.0736C147.566 71.8858 147.534 71.7134 147.495 71.5803C147.456 71.4471 147.386 71.3761 147.276 71.3761C147.195 71.3761 147.048 71.3884 146.831 71.4066L146.83 71.4067L146.727 71.4153C146.446 71.439 146.124 71.4545 145.748 71.4545H143.279C143.089 71.4545 142.886 71.4476 142.654 71.4398L142.652 71.4398L142.628 71.439C142.385 71.4308 142.087 71.4153 141.727 71.3924C141.723 71.4076 141.719 71.4228 141.716 71.438C141.713 71.454 141.711 71.4701 141.711 71.4864V71.5958C141.711 71.7216 141.75 71.7918 141.836 71.8074C142.182 71.8776 142.424 71.9405 142.542 72.0034C142.66 72.0663 142.722 72.1839 142.722 72.3481V78.7202C142.722 78.8925 142.66 79.0101 142.518 79.073C142.377 79.1433 142.15 79.1988 141.836 79.2609C141.75 79.2772 141.711 79.3393 141.711 79.4569C141.711 79.5117 141.719 79.5745 141.735 79.6611C141.911 79.6445 142.094 79.6356 142.282 79.6263L142.285 79.6262C142.365 79.6223 142.445 79.6183 142.526 79.6138C142.801 79.5982 143.059 79.5982 143.302 79.5982H146.045C146.135 79.5982 146.239 79.6036 146.355 79.6096L146.437 79.6138C146.586 79.6219 146.735 79.6293 146.884 79.6293C147.033 79.6293 147.166 79.6374 147.292 79.6456C147.417 79.6611 147.519 79.6611 147.582 79.6611C147.66 79.6611 147.73 79.5982 147.785 79.4496C147.841 79.3001 147.895 79.1359 147.942 78.9317C147.976 78.7851 148.014 78.6342 148.053 78.479L148.055 78.4719C148.069 78.4142 148.084 78.3559 148.099 78.297C148.153 78.07 148.216 77.8821 148.295 77.7253C148.248 77.6934 148.209 77.6705 148.162 77.6468C148.114 77.6232 148.068 77.6076 148.029 77.6076C147.926 77.6076 147.864 77.6387 147.841 77.6934C147.739 77.8894 147.636 78.0781 147.527 78.2423C147.417 78.4073 147.299 78.5478 147.159 78.6736C147.017 78.7986 146.86 78.8925 146.68 78.9636C146.5 79.0338 146.289 79.073 146.045 79.073H145.356C144.838 79.073 144.47 79.0493 144.243 78.9873C144.015 78.9244 143.906 78.8067 143.906 78.6344V75.6791H145.857C146.03 75.6791 146.147 75.7575 146.218 75.9225C146.289 76.0867 146.351 76.2827 146.39 76.518C146.414 76.6274 146.492 76.683 146.625 76.683C146.68 76.683 146.743 76.6748 146.814 76.6593C146.8 76.5026 146.791 76.3546 146.783 76.217V76.2168L146.783 76.2141C146.778 76.1255 146.773 76.0412 146.767 75.9617C146.751 75.7575 146.751 75.5852 146.751 75.4439C146.751 75.2715 146.751 75.0681 146.767 74.8329C146.782 74.5976 146.798 74.3861 146.814 74.2056C146.79 74.1982 146.751 74.19 146.712 74.1827C146.664 74.1664 146.633 74.1664 146.61 74.1664C146.485 74.1664 146.406 74.2219 146.383 74.3314C146.335 74.5666 146.281 74.7626 146.21 74.9268C146.132 75.0918 146.014 75.1702 145.849 75.1702H143.898Z" fill="black"/>
</svg>
