<svg width="182" height="40" viewBox="0 0 182 40" fill="none" xmlns="http://www.w3.org/2000/svg">
<path fill-rule="evenodd" clip-rule="evenodd" d="M11.102 26.3126L8.67441 35.4845L5.91193 34.8107L7.75188 27.9505L3.83668 26.4412L4.49348 19.0839L0.13031 14.0539L5.02969 10.0778L4.66946 9.05002L4.88263 8.56276C7.32042 3.22911 12.2024 0.0706105 17.4402 0.519848L17.1982 3.22991C13.3333 2.89833 9.64634 5.31274 7.68662 9.24019L8.30936 10.96L4.09375 14.3932L7.3936 18.2126L6.81666 24.6758L11.102 26.3126ZM87.4523 16.0674C87.4523 16.1646 87.4033 16.8458 87.3053 18.111H67.3242C67.6844 19.7333 68.5347 21.014 69.8767 21.955C71.2188 22.8952 72.8884 23.3657 74.8847 23.3657C76.2594 23.3657 77.4781 23.1631 78.5424 22.7571C79.6059 22.352 80.5959 21.7116 81.5124 20.836L85.5867 25.2142C83.0995 28.0363 79.4671 29.4478 74.6878 29.4478C71.7097 29.4478 69.0754 28.8719 66.7842 27.7202C64.493 26.5685 62.7254 24.9716 61.4822 22.9279C60.2382 20.8842 59.6166 18.5652 59.6166 15.9702C59.6166 13.4078 60.23 11.097 61.4569 9.03695C62.6846 6.97773 64.3705 5.37185 66.5139 4.22013C68.658 3.06841 71.0554 2.49336 73.706 2.49336C76.2921 2.49336 78.6323 3.04472 80.7266 4.14743C82.8218 5.25015 84.466 6.83152 85.661 8.89073C86.8552 10.9508 87.4523 13.3432 87.4523 16.0674ZM47.7351 6.33652C48.6516 5.07126 49.8874 4.11476 51.4418 3.4662C52.9971 2.81764 54.7884 2.49336 56.8182 2.49336V9.49927C55.967 9.43474 55.3944 9.40207 55.0996 9.40207C52.9064 9.40207 51.1886 10.0098 49.9446 11.226C48.7014 12.4431 48.079 14.2671 48.079 16.7004V29.0581H40.4204V21.8533L38.7135 23.5047V30.8896L34.6792 32.0593L35.902 39.0505L33.0905 39.4858L31.4879 30.1422L35.902 28.8769V22.3889L39.5287 18.8667L35.6349 15.0857L36.4084 13.4259C34.8058 9.34583 31.3474 6.62581 27.4675 6.62581V3.90496C32.7254 3.90496 37.3078 7.46877 39.2616 12.9905L39.4307 13.4945L38.9806 14.4869L40.4204 15.88V2.88217H47.7351V6.33652ZM69.3858 9.69367C70.5645 8.72083 72.0209 8.234 73.755 8.234C75.4573 8.234 76.8973 8.729 78.076 9.71818C79.2539 10.7074 79.9743 12.029 80.2357 13.683H67.2261C67.4875 11.9971 68.208 10.6673 69.3858 9.69367ZM111.411 2.88217H118.775L107.63 29.0581H99.7259L88.631 2.88217H96.5354L103.85 20.6898L111.411 2.88217ZM126.998 27.7202C129.208 28.8719 131.703 29.4478 134.485 29.4478C137.267 29.4478 139.754 28.8719 141.947 27.7202C144.14 26.5685 145.859 24.9716 147.102 22.9279C148.346 20.8842 148.967 18.5652 148.967 15.9702C148.967 13.3751 148.346 11.0561 147.102 9.01244C145.859 6.96956 144.14 5.37185 141.947 4.22013C139.754 3.06841 137.267 2.49336 134.485 2.49336C131.703 2.49336 129.208 3.06841 126.998 4.22013C124.789 5.37185 123.063 6.96956 121.819 9.01244C120.575 11.0561 119.953 13.3751 119.953 15.9702C119.953 18.5652 120.575 20.8842 121.819 22.9279C123.063 24.9716 124.789 26.5685 126.998 27.7202ZM134.485 23.2195C136.449 23.2195 138.06 22.5627 139.321 21.2493C140.581 19.9358 141.211 18.1756 141.211 15.9702C141.211 13.7647 140.581 12.0053 139.321 10.691C138.06 9.37756 136.449 8.72083 134.485 8.72083C132.521 8.72083 130.901 9.37756 129.624 10.691C128.348 12.0053 127.71 13.7647 127.71 15.9702C127.71 18.1756 128.348 19.9358 129.624 21.2493C130.901 22.5627 132.521 23.2195 134.485 23.2195ZM159.155 27.7202C161.363 28.8719 163.86 29.4478 166.642 29.4478C169.423 29.4478 171.911 28.8719 174.104 27.7202C176.297 26.5685 178.015 24.9716 179.258 22.9279C180.502 20.8842 181.124 18.5652 181.124 15.9702C181.124 13.3751 180.502 11.0561 179.258 9.01244C178.015 6.96956 176.297 5.37185 174.104 4.22013C171.911 3.06841 169.423 2.49336 166.642 2.49336C163.86 2.49336 161.363 3.06841 159.155 4.22013C156.945 5.37185 155.219 6.96956 153.975 9.01244C152.731 11.0561 152.11 13.3751 152.11 15.9702C152.11 18.5652 152.731 20.8842 153.975 22.9279C155.219 24.9716 156.945 26.5685 159.155 27.7202ZM166.642 23.2195C168.605 23.2195 170.217 22.5627 171.477 21.2493C172.737 19.9358 173.368 18.1756 173.368 15.9702C173.368 13.7647 172.737 12.0053 171.477 10.691C170.217 9.37756 168.605 8.72083 166.642 8.72083C164.677 8.72083 163.058 9.37756 161.781 10.691C160.505 12.0053 159.866 13.7647 159.866 15.9702C159.866 18.1756 160.505 19.9358 161.781 21.2493C163.058 22.5627 164.677 23.2195 166.642 23.2195ZM22.1421 39.0431L24.9781 39.4858L26.6232 30.1855L25.6871 29.7289C24.6367 29.2951 23.529 29.006 22.3969 28.8712C20.6391 28.5943 18.8519 28.3035 18.1429 27.2792C17.6683 26.3619 17.5768 25.3001 17.888 24.3174L15.0522 23.7646L15.0516 23.763C14.0253 25.3402 13.9464 27.1012 13.8762 28.6674C13.8158 30.0155 13.7619 31.2193 13.1158 32.0374C9.962 36.03 10.4978 40.2865 17.9448 38.982C18.8497 38.8236 19.6788 38.3847 20.5321 37.9329C21.1574 37.6019 21.7956 37.264 22.4861 37.0246L22.1421 39.0431ZM24.9273 24.5779C25.0972 24.5909 25.2688 24.5909 25.4387 24.5779C26.0733 24.5909 26.6925 24.39 27.194 24.0077C29.7237 22.0114 27.5812 16.4839 24.5263 12.1923C22.4254 9.25912 19.2602 5.99999 16.4952 5.60628C15.6997 5.45354 14.8763 5.65284 14.2424 6.14947C11.8973 7.99059 13.5367 12.8344 16.202 16.9642C16.291 16.8687 16.4274 16.7257 16.6308 16.5199C17.0883 16.0576 17.54 15.6279 17.54 15.6279L16.7044 17.7165C16.7681 17.8088 16.8318 17.9003 16.8963 17.9918C18.9972 20.925 22.1632 24.1841 24.9273 24.5779ZM16.0256 8.28138H15.9153C15.6106 8.72982 16.0117 11.9751 19.163 16.43C22.3151 20.8842 24.9273 22.0522 25.5081 21.8619C25.8258 21.4135 25.4109 18.1682 22.2596 13.7133C19.3705 9.73451 16.7721 8.28138 16.0256 8.28138Z" fill="black"/>
</svg>
