<svg width="205" height="42" viewBox="0 0 205 42" fill="none" xmlns="http://www.w3.org/2000/svg">
<path fill-rule="evenodd" clip-rule="evenodd" d="M183.694 32.4668H174.887L174.198 27.8419C174.034 28.2683 173.837 28.6783 173.608 29.072C172.132 31.663 169.868 32.9585 166.818 32.9585C164.981 32.9585 163.308 32.4014 161.8 31.2856C159.143 29.3506 157.814 26.3496 157.814 22.2818C157.814 19.0022 158.667 16.2798 160.373 14.1152C162.34 11.7202 164.882 10.5228 167.999 10.5228C170.327 10.5228 172.329 11.2448 174.001 12.6882V1.7656H169.524V0.486446H180.25V31.1386H182.513C182.742 31.1386 182.939 31.1549 183.103 31.1876C183.497 31.2856 183.694 31.712 183.694 32.4668ZM167.655 12.6392C165.588 13.8848 164.555 16.903 164.555 21.692C164.555 22.9385 164.637 24.0698 164.801 25.0868C165.359 28.8262 166.785 30.6959 169.081 30.6959C169.77 30.6959 170.41 30.5154 171 30.1543C173.066 28.8098 174.099 25.6773 174.099 20.7568C174.099 19.6418 174.034 18.5922 173.903 17.6079C173.346 13.9673 171.886 12.1466 169.524 12.1466C168.868 12.1466 168.244 12.3108 167.655 12.6392ZM21.3895 11.8504C23.4887 11.9158 24.5546 13.7038 24.5873 17.2137C24.5873 18.7551 24.1283 19.7058 23.2102 20.0669C22.5542 20.2964 21.57 20.3789 20.2582 20.3127L17.1093 20.1657C17.3388 14.7208 18.765 11.9485 21.3895 11.8504ZM30.5902 27.3979L29.409 27.0042C28.4909 29.0054 27.0476 30.3662 25.0799 31.0883C24.2924 31.3832 23.4887 31.531 22.6686 31.531C20.045 31.531 18.3558 29.8582 17.601 26.5124C17.3061 25.1345 17.142 23.4943 17.1093 21.5919L21.6353 21.7397C26.9161 21.9039 29.9833 21.0675 30.836 19.2305C31.0329 18.7714 31.1309 18.2633 31.1309 17.7054C31.1309 14.9176 29.7047 12.8837 26.8507 11.6046C25.2432 10.916 23.4233 10.5713 21.3895 10.5713C17.6827 10.5713 14.7969 11.8341 12.7303 14.3597C11.1555 16.3275 10.368 18.7714 10.368 21.6907C10.368 26.4471 12.1561 29.7593 15.7313 31.629C17.4368 32.5145 19.3719 32.958 21.5373 32.958C25.3747 32.958 28.1299 31.6127 29.8027 28.9229C30.1311 28.4312 30.3933 27.9231 30.5902 27.3979ZM40.7648 31.1879H39.8794L39.9284 18.4944C40.1253 15.9027 40.978 14.2135 42.4867 13.426C42.9131 13.1965 43.3395 13.0822 43.7658 13.0822C44.9796 13.0822 45.8487 13.8361 46.374 15.3456C46.6035 16.0668 46.7178 16.8706 46.7178 17.756V28.6296C46.7178 29.9741 46.4066 30.7778 45.7834 31.04C45.4885 31.1389 45.0785 31.1879 44.5533 31.1879V32.467H54.9841C54.9841 31.7123 54.7709 31.3031 54.3445 31.2369C54.1477 31.2042 53.9508 31.1879 53.754 31.1879H52.9175V18.5925V18.2478C53.1471 15.5253 54.0325 13.8361 55.5747 13.1802C55.9022 13.0495 56.2306 12.9833 56.5581 12.9833C57.9688 12.9833 58.9367 13.8197 59.4611 15.4926C59.658 16.1812 59.7568 16.9359 59.7568 17.756V28.6296C59.7568 29.9741 59.4448 30.7778 58.8215 31.04C58.5267 31.1389 58.1166 31.1879 57.5914 31.1879V32.467H68.8097C68.8097 31.7123 68.5965 31.3031 68.1701 31.2369C67.9732 31.2042 67.7764 31.1879 67.5795 31.1879H65.9557V18.3466C65.9557 15.1316 64.8897 12.8526 62.7578 11.5073C61.7735 10.8841 60.7076 10.5729 59.5599 10.5729C56.3776 10.6055 53.9998 12.1306 52.4258 15.1487C51.6384 12.82 50.2441 11.3603 48.2437 10.7697C47.7185 10.6382 47.194 10.5729 46.6688 10.5729C43.52 10.6055 41.2239 12.0489 39.7806 14.902L39.5347 11.3105H30.7767V12.5896H33.6307V28.6296C33.6307 30.1383 32.9258 30.9747 31.5151 31.1389C31.2856 31.1716 31.0397 31.1879 30.7767 31.1879V32.467H41.946C41.946 31.7123 41.7328 31.3031 41.3064 31.2369C41.1422 31.2042 40.9617 31.1879 40.7648 31.1879ZM77.0655 30.7006V40.5409H79.5748C79.7716 40.5409 79.9685 40.5573 80.1653 40.5899C80.5917 40.6561 80.8049 41.0653 80.8049 41.8201H68.0126V40.5409C68.439 40.5409 68.8327 40.5082 69.1929 40.4429C70.276 40.2126 70.8168 39.3933 70.8168 37.9826V12.5949H68.0126V11.3157H76.7208L76.9675 16.0386C77.295 15.1205 77.7867 14.2678 78.4435 13.4803C80.0828 11.5453 82.2156 10.5773 84.8392 10.5773C86.5774 10.5773 88.1196 11.0862 89.4641 12.1032C91.957 13.9721 93.2035 16.9902 93.2035 21.156C93.2035 24.3702 92.3834 27.06 90.7432 29.2246C88.7755 31.7176 86.1674 32.9641 82.9205 32.9641C80.296 32.8987 78.3446 32.144 77.0655 30.7006ZM86.463 21.8936C86.463 15.9896 85.0524 13.0049 82.2319 12.9388C81.313 12.9388 80.4602 13.3162 79.6728 14.0709C77.9019 15.8091 77.0165 18.7284 77.0165 22.8289C77.0165 25.0262 77.3113 26.8795 77.9019 28.3882C78.7873 30.5528 80.1163 31.6359 81.8872 31.6359C84.9045 31.6024 86.4304 28.3555 86.463 21.8936ZM105.789 31.1896H102.148V20.5619C102.377 17.1182 103.214 15.0189 104.657 14.2642C104.887 14.1662 105.1 14.1172 105.297 14.1172C105.658 14.1172 106.051 14.4937 106.478 15.2485C107.068 16.2981 107.708 16.954 108.396 17.2162C108.725 17.315 109.085 17.364 109.479 17.364C110.791 17.364 111.726 16.7408 112.284 15.4943C112.481 15.0679 112.579 14.6252 112.579 14.1662C112.579 12.526 111.775 11.4927 110.168 11.0663C109.774 10.9683 109.364 10.9185 108.938 10.9185C106.904 10.9185 105.117 11.7222 103.575 13.3297C102.886 14.1171 102.361 14.9699 102.001 15.888L101.656 11.3122H93.0459V12.5913H95.8999V28.6313C95.8999 30.0746 95.3257 30.8947 94.1772 31.0916C93.8497 31.1569 93.4723 31.1896 93.0459 31.1896V32.4688H106.969C106.969 31.714 106.756 31.3048 106.33 31.2386C106.167 31.2059 105.986 31.1896 105.789 31.1896ZM126.001 17.2137C125.968 13.7038 124.902 11.9158 122.803 11.8504C120.179 11.9485 118.752 14.7208 118.522 20.1657L121.671 20.3127C122.984 20.3789 123.967 20.2964 124.623 20.0669C125.542 19.7058 126.001 18.7551 126.001 17.2137ZM130.823 27.0042L132.004 27.3979C131.807 27.9231 131.544 28.4312 131.216 28.9229C129.544 31.6127 126.788 32.958 122.951 32.958C120.786 32.958 118.85 32.5145 117.145 31.629C113.57 29.7593 111.782 26.4471 111.782 21.6907C111.782 18.7714 112.569 16.3275 114.144 14.3597C116.21 11.8341 119.096 10.5713 122.803 10.5713C124.836 10.5713 126.657 10.916 128.264 11.6046C131.118 12.8837 132.545 14.9176 132.545 17.7054C132.545 18.2633 132.447 18.7714 132.25 19.2305C131.397 21.0675 128.33 21.9039 123.049 21.7397L118.522 21.5919C118.556 23.4943 118.719 25.1345 119.015 26.5124C119.769 29.8582 121.458 31.531 124.082 31.531C124.902 31.531 125.706 31.3832 126.493 31.0883C128.461 30.3662 129.905 29.0054 130.823 27.0042ZM142.522 31.1879H141.292L141.341 18.5925C141.571 16.0015 142.522 14.296 144.195 13.4759C144.654 13.2463 145.13 13.1312 145.622 13.1312C147.491 13.1312 148.591 14.2298 148.918 16.4279C148.984 16.8543 149.017 17.297 149.017 17.756V28.6296C149.017 30.0068 148.656 30.8105 147.935 31.04C147.606 31.1389 147.213 31.1879 146.754 31.1879V32.467H158.119C158.119 31.7123 157.906 31.3031 157.479 31.2369C157.282 31.2042 157.086 31.1879 156.889 31.1879H155.265V18.5925C155.265 14.5255 153.822 11.9835 150.936 10.9666C150.148 10.7036 149.328 10.5729 148.475 10.5729C146.081 10.5729 144.047 11.5237 142.375 13.426C141.883 13.9839 141.489 14.5582 141.193 15.1487L140.948 11.3105H132.19V12.5896H135.044V28.6296C135.044 30.1383 134.339 30.9747 132.928 31.1389C132.699 31.1716 132.453 31.1879 132.19 31.1879V32.467H143.703C143.703 31.7123 143.49 31.3031 143.063 31.2369C142.9 31.2042 142.719 31.1879 142.522 31.1879ZM194.41 11.8504C196.509 11.9158 197.575 13.7038 197.608 17.2137C197.608 18.7551 197.149 19.7058 196.231 20.0669C195.575 20.2964 194.59 20.3789 193.279 20.3127L190.13 20.1657C190.359 14.7208 191.786 11.9485 194.41 11.8504ZM203.611 27.3979L202.429 27.0042C201.511 29.0054 200.068 30.3662 198.1 31.0883C197.313 31.3832 196.509 31.531 195.689 31.531C193.065 31.531 191.376 29.8582 190.621 26.5124C190.327 25.1345 190.162 23.4943 190.13 21.5919L194.656 21.7397C199.936 21.9039 203.004 21.0675 203.856 19.2305C204.053 18.7714 204.151 18.2633 204.151 17.7054C204.151 14.9176 202.725 12.8837 199.871 11.6046C198.264 10.916 196.444 10.5713 194.41 10.5713C190.703 10.5713 187.817 11.8341 185.751 14.3597C184.176 16.3275 183.389 18.7714 183.389 21.6907C183.389 26.4471 185.176 29.7593 188.752 31.629C190.457 32.5145 192.392 32.958 194.558 32.958C198.395 32.958 201.15 31.6127 202.823 28.9229C203.151 28.4312 203.414 27.9231 203.611 27.3979ZM5.79213 26.1698C7.0386 26.8592 7.66184 27.8917 7.66184 29.2696C7.66184 29.8602 7.53033 30.4173 7.26813 30.9425C6.61222 32.1236 5.57894 32.7134 4.16828 32.7134C3.61121 32.7134 3.08599 32.5827 2.59426 32.3205C1.34779 31.6972 0.724548 30.6803 0.724548 29.2696C0.724548 28.7118 0.856057 28.171 1.11826 27.6458C1.77417 26.3993 2.79111 25.7761 4.16828 25.7761C4.72617 25.7761 5.26773 25.9076 5.79213 26.1698Z" fill="black"/>
</svg>
