<svg width="100" height="106" viewBox="0 0 100 106" fill="none" xmlns="http://www.w3.org/2000/svg">
<g clip-path="url(#clip0_83_123)">
<path fill-rule="evenodd" clip-rule="evenodd" d="M40.8209 34.6828C40.7531 35.1096 40.6796 35.4624 40.5383 35.8209L40.5439 35.8265C39.1983 39.5253 34.9522 42.8769 30.2143 44.8685C27.6644 45.9383 25.4028 46.5073 23.3505 46.5073C22.7116 46.5073 19.3871 46.2911 17.9002 43.7304C17.2613 35.6103 16.9786 21.8681 16.9786 2.49811C17.9002 1.64456 24.617 0.079712 25.1145 0.079712C25.3237 0.079712 25.7477 0.079712 26.2453 0.0057373H27.376C29.1457 0.0057373 34.5225 1.14381 35.5855 1.92908C36.083 2.35586 36.5749 2.85661 37.0724 3.42564C39.1248 5.91802 40.1142 8.69491 40.1142 11.7563C40.1142 16.5988 37.7792 21.0828 33.1826 25.214V25.9253C33.6801 26.2838 34.5282 26.6366 35.8003 26.9951C37.2873 27.3479 38.2032 27.6324 38.5594 27.8487C40.0407 29.4875 40.8209 30.9101 40.8209 32.0481V34.6828ZM23.799 7.26086L23.3448 7.26094C22.7059 7.90395 22.4233 9.04203 22.4233 10.6809C22.4233 12.5302 23.0565 16.3029 24.4021 21.9307C24.4756 21.9307 25.041 22.0729 25.041 22.1469C25.3972 22.2209 25.6064 21.8624 25.5385 21.5779C32.2553 20.7926 35.3706 17.3044 34.8052 11.0393L34.7374 10.2541C32.0428 7.25866 30.0223 7.2592 23.799 7.26086ZM24.3505 40.8927L24.3506 40.8927L24.3508 40.8927L24.3511 40.8927C25.2669 41.01 25.6961 41.0649 25.6686 41.0787L25.6629 41.0844C28.4559 40.9592 34.7996 37.1524 34.7996 34.6771C34.7996 33.0383 31.967 31.8262 30.2708 31.8262C30.0616 31.8262 29.4962 31.9002 28.5747 32.0425C27.376 32.1847 26.0304 32.4692 24.4021 32.896C23.6275 33.3968 23.2713 34.3926 23.2713 35.9574C23.2713 36.3121 23.3422 37.2006 23.46 38.6756L23.46 38.6756L23.4601 38.6767L23.4603 38.6792C23.5087 39.2858 23.565 39.9915 23.6275 40.7999C23.8954 40.8344 24.1362 40.8652 24.3505 40.8927ZM46.2373 44.8627C46.1638 44.7945 46.0903 44.7205 46.0225 44.5782H46.0338L45.9821 44.5513C45.8589 44.4875 45.7421 44.4269 45.6776 44.362C45.2536 43.3662 45.0387 42.3704 45.0387 41.3006C45.0387 40.6576 45.1066 39.804 45.3214 38.6659C45.5306 37.5279 45.6041 36.6743 45.6041 36.1053V31.7635C45.6041 26.6365 46.096 20.508 47.1589 13.3894C47.7243 12.5358 49.7767 12.3936 51.1901 12.3196C52.0382 13.1048 52.4623 14.8859 52.4623 17.5206C52.4623 18.2169 52.4089 19.1906 52.3456 20.3465L52.3209 20.7982C52.2938 21.3237 52.2674 21.7817 52.2449 22.1718L52.2449 22.1724C52.2065 22.838 52.1796 23.3061 52.1796 23.5751C52.1796 26.2097 51.9647 29.4874 51.5407 33.4024L51.0431 37.7441C51.0431 37.9405 51.0782 38.2047 51.1222 38.5367C51.1419 38.6856 51.1635 38.8482 51.1845 39.0244C51.258 39.5935 51.258 40.0202 51.258 40.3048C51.258 43.3662 49.7032 44.8627 46.6614 44.8627H46.2373ZM48.8551 8.18845C48.9198 8.22234 48.9846 8.2407 49.0428 8.25722C49.1117 8.27676 49.1714 8.29371 49.2113 8.33071C51.7407 8.33071 51.8401 8.15829 53.2937 5.6377C53.468 5.33556 53.6617 4.99967 53.8814 4.62629C53.8814 1.70714 52.7506 0.210571 50.5569 0.210571C48.3632 0.210571 46.5935 1.91768 46.5935 4.12554C46.5935 5.47984 47.2324 6.76017 48.431 8.11448C48.5045 8.18845 48.6459 8.18845 48.8551 8.18845ZM70.8882 47.4234C64.946 47.7762 61.9721 47.9925 62.0456 47.9925L62.0399 48.0096C60.2703 48.0096 57.5112 47.2983 57.5112 45.8017C57.5112 45.3749 57.7204 44.6636 58.0766 43.7361L58.9246 41.4599C60.6943 41.4599 63.5947 41.386 67.5581 41.2437C68.5475 41.2437 69.8196 41.1697 71.448 41.0275C75.4113 40.1682 77.9556 38.8879 78.8771 35.3997C78.8093 35.2575 77.0396 33.9032 73.6417 31.4108C65.0082 25.0034 60.6943 19.8764 60.6943 16.1037C60.6943 15.1762 60.8356 14.4649 61.1918 13.8959C63.9509 9.05336 68.4118 7.48851 74.354 6.1342C74.7837 6.06592 75.7732 5.99194 77.328 5.99194C82.49 5.99194 85.0399 7.69905 85.0399 11.1872C85.0399 11.614 85.0399 11.9668 84.972 12.1831C83.6264 13.6796 81.9302 14.3909 79.8779 14.3909C78.3966 14.3909 77.6163 13.6796 77.6163 12.1831C77.5428 12.1831 77.3336 12.1831 77.1188 12.1091H76.6213C72.59 12.1091 66.9984 14.1064 66.9984 17.5946C66.9984 18.5164 67.2076 19.3017 67.7051 20.013C68.2026 20.7243 70.5377 22.3631 74.7102 24.9238C81.5062 29.1233 85.8201 32.1904 85.8201 37.1011C85.8201 39.8079 82.8986 42.451 81.7974 43.4474C81.711 43.5256 81.6357 43.5936 81.574 43.6507C80.5846 44.5043 79.3803 45.2156 78.0347 45.8586C76.1237 46.7122 73.7208 47.2072 70.8882 47.4234ZM23.6332 50.1662C21.5808 49.7394 19.9525 49.5232 18.6125 49.5232C17.5496 49.5232 15.7799 49.7394 13.2357 50.1662C9.84104 50.7274 7.68219 51.0155 6.86061 51.1251L6.86056 51.1251C6.74074 51.1411 6.64936 51.1533 6.58675 51.162C5.67035 51.287 4.8494 51.3982 4.12391 51.4966L4.11294 51.498L4.10735 51.4988C1.54018 51.8467 0.172948 52.0319 0.00564575 52.0895L0.0734922 56.1468L0.429686 56.7898C1.49261 57.0743 4.74359 57.2166 10.3353 57.2166C12.3876 57.2166 12.529 57.5751 12.529 63.1971C13.5919 73.5194 14.1573 84.9172 14.1573 88.0526C14.1573 88.6956 14.1573 89.6914 14.0894 91.188C14.0812 91.336 14.0728 91.4807 14.0646 91.6221C14.0058 92.6389 13.9571 93.4827 14.0216 94.1072C14.0285 94.3319 14.0303 94.5537 14.0321 94.7728V94.7729C14.0479 96.7066 14.062 98.4341 17.5609 100.162C18.4825 100.093 19.1892 100.093 19.6133 100.162C20.8175 100.093 21.4508 97.1003 21.4508 91.262C21.4508 89.8394 21.4508 87.6998 21.5186 84.9229V73.9519C21.5186 73.7357 21.5186 73.4512 21.4508 72.9561C21.3773 72.5293 21.3773 72.1708 21.3773 71.9603C21.3773 67.4763 20.4557 60.2097 19.0422 56.8638L21.0211 57.006L21.425 57.031H21.425H21.425C22.4493 57.0947 23.3116 57.1483 24.0629 57.1483C26.6128 57.0743 30.1464 56.8638 30.1464 54.0869C30.1464 52.8748 29.6489 51.8107 28.733 50.8832C27.3873 50.8832 25.6912 50.667 23.6388 50.1719L23.6332 50.1662ZM70.2154 53.2675C75.8071 53.2675 80.6864 56.4712 84.7911 62.8785V62.8842C85.283 63.6638 85.9219 64.7336 86.77 66.2301C87.4767 67.7267 87.8329 69.8606 87.8329 72.5692C87.8329 79.1928 85.5713 84.7466 81.0426 89.2306C74.5293 92.1497 69.2938 93.5723 65.2626 93.5723C64.9064 93.5723 64.4146 93.4301 63.7757 93.0716C60.2646 91.8083 57.4773 89.3785 55.4758 86.2659C50.7435 85.657 41.703 82.3054 37.0498 73.6959C37.0498 74.4072 37.0498 75.477 37.1177 76.8996C37.1855 78.3221 37.1855 79.3918 37.1855 80.1031V80.1032C37.1855 88.9347 35.7494 93.3504 32.9451 93.3504C31.4412 92.3546 30.6892 91.4271 30.6892 90.5735C30.6892 88.9404 30.6892 86.448 30.6214 83.1703C30.5535 79.8927 30.5535 77.4743 30.5535 75.8355C30.5535 70.8507 30.8928 65.7237 31.509 60.3805C31.6618 59.8069 31.7392 59.3122 31.7963 58.9475C31.8173 58.8129 31.8356 58.696 31.8539 58.5994C31.8539 58.5254 31.9218 51.9758 32.538 50.0525C33.1543 48.1291 34.6582 47.1333 37.0498 47.1333C40.9933 47.1333 41.6388 47.4835 44.3041 48.9295C44.8258 49.2126 45.4249 49.5376 46.1412 49.9102C46.6761 50.1155 47.4044 50.5265 48.2634 51.0111L48.3293 51.0483C50.4495 52.5448 51.8856 54.4682 52.6375 56.676C52.7054 56.75 52.7054 56.8923 52.7054 57.1768C52.7054 61.234 46.9611 66.8618 42.2457 69.9232C42.7998 75.6079 46.7123 77.1101 52.3944 78.5953C52.0156 76.7801 51.8177 74.8966 51.8177 72.9903C51.8177 67.9373 52.9542 63.7321 55.2157 60.2439L55.2713 60.1626L55.369 60.0188C56.0622 58.9973 56.5865 58.2249 58.8964 56.898C63.0689 54.4796 66.8909 53.2675 70.2154 53.2675ZM36.7106 64.7279V65.1547H36.7162C38.1523 65.0864 43.761 61.7405 44.8522 60.5284C45.6041 59.7431 45.9434 58.8156 45.9434 57.8198C45.9434 55.0429 41.7708 53.1196 38.5594 52.835C37.259 58.6051 36.6427 62.3778 36.6427 64.3011C36.6427 64.3694 36.6427 64.5117 36.7106 64.7279ZM64.4824 87.017C65.0478 87.2333 65.4718 87.3755 65.6867 87.3755H65.6923C74.7442 87.3755 80.1945 82.6753 80.1945 73.6333C80.1945 70.8564 79.9118 68.6485 79.4143 67.152C79.3464 66.7935 78.781 66.0139 77.7181 64.6596C76.6608 63.3736 76.0955 62.4517 76.0219 61.8087C73.5456 60.4544 71.284 59.7431 69.2316 59.7431H68.8076C66.4726 59.7431 62.7919 61.5242 61.0957 63.4476C60.5982 64.1645 59.7501 65.2286 58.5458 66.5829C58.1218 67.0837 57.8334 67.4365 57.7656 67.6527C57.5508 68.1478 57.4829 69.3598 57.4829 71.1409C57.4829 74.6177 58.0935 77.9295 59.1791 80.6552C59.2808 80.7121 59.36 80.769 59.4109 80.8202C59.4109 80.9283 59.4505 81.1389 59.5126 81.4462C60.7226 84.132 62.4244 86.1578 64.4824 87.017ZM92.3107 57.8368C91.8415 56.9264 91.016 56.0728 89.7835 55.2477C90.1792 54.3828 90.2414 53.0456 89.8626 52.266L89.6873 51.9246C89.3933 51.3498 88.8166 51.0369 87.9799 50.9913H87.912L87.8498 51.0027C87.7368 51.0312 87.6293 51.0824 87.4823 51.162C87.4258 51.1905 87.2505 51.2815 86.6625 51.7937C85.1699 53.0854 85.2943 54.2007 85.6561 54.912C85.9219 55.4298 86.3402 55.9078 86.9452 56.363C86.8774 56.7329 86.8434 57.0231 86.8434 57.2564C86.8039 58.9863 86.9226 60.0618 87.2223 60.6479L87.3806 60.9495C87.7085 61.5925 88.4378 62.2639 90.0548 61.8428C90.3658 61.7632 90.5807 61.6949 90.6937 61.638C93.1475 60.369 92.763 58.7075 92.3164 57.8311L92.3107 57.8368ZM87.9177 54.7242C87.7028 54.5592 87.5502 54.3885 87.4597 54.2064C87.3353 53.9617 87.2449 53.6203 87.6519 53.1651C87.6859 53.1309 87.7594 53.0569 87.7933 53.0399C87.7971 53.0386 87.8021 53.0364 87.8084 53.0337C87.8303 53.0242 87.8689 53.0076 87.9346 52.9943C88.1891 53.6032 88.3813 54.4283 87.9233 54.7242H87.9177ZM89.84 60.1642L89.8004 60.187C89.4046 60.1528 89.1389 59.9821 88.9693 59.6521C88.6696 59.0603 88.6357 58.1726 88.8732 57.006C89.7043 57.467 90.2753 57.9848 90.5637 58.5538C90.8238 59.0603 90.9142 59.6122 89.84 60.1699V60.1642ZM99.3215 67.334C99.4233 67.4991 99.5533 67.721 99.7286 68.0283L99.7399 68.0339C99.9265 68.4266 100.011 68.9216 100.011 69.5362C100.011 70.9872 99.5081 72.222 98.513 73.2065L98.4508 73.2634L98.3717 73.2975C97.0035 73.9121 95.9066 74.208 95.0189 74.208C94.8663 74.208 94.7023 74.1568 94.5271 74.0657C92.9044 73.4626 91.8584 71.7213 91.8584 69.6159C91.8584 68.5062 92.1072 67.5901 92.616 66.8048L92.65 66.7536C92.8309 66.4862 92.9892 66.2813 93.5094 65.9854C94.414 65.4619 95.2507 65.1945 96.0084 65.1945C97.2974 65.1945 98.4113 65.9114 99.3215 67.334ZM95.0359 71.9944C95.0698 72.0058 95.1094 72.0172 95.1377 72.0286L95.1264 72.0343C96.2289 72.0229 97.5293 71.6132 97.5293 69.7467C97.5293 69.2631 97.484 68.8534 97.3992 68.5973C97.3766 68.5575 97.3088 68.4607 97.1335 68.2388C96.9639 68.0283 96.8451 67.8576 96.7773 67.7039C96.4098 67.5218 96.0819 67.4308 95.7992 67.4308H95.7144C95.3808 67.4308 94.7645 67.7324 94.5157 68.0169C94.4253 68.1478 94.2387 68.3811 94.0069 68.6428C94.0013 68.6512 93.9954 68.6592 93.9895 68.667C93.9804 68.6787 93.9711 68.6896 93.9624 68.6997C93.9536 68.71 93.9455 68.7195 93.939 68.7282C93.9277 68.7851 93.9164 68.9216 93.9164 69.246C93.9164 70.5434 94.397 71.727 95.0359 71.9944ZM95.6013 80.5015L95.3299 80.3137L95.2451 80.2909C94.8493 80.1942 94.4196 80.0519 93.9391 79.8471C93.9079 79.8332 93.862 79.8139 93.8014 79.7885L93.8011 79.7884C93.6636 79.7308 93.4507 79.6416 93.1645 79.5113C92.9949 79.4317 92.8422 79.3634 92.7009 79.3065C92.5539 79.2439 92.4238 79.1927 92.3334 79.1642C92.3254 79.1611 92.3169 79.1578 92.308 79.1542C92.2972 79.1498 92.2857 79.1451 92.2733 79.1401C92.2013 79.1106 92.1008 79.0696 91.9546 79.022L91.7962 78.9708C91.7171 78.948 91.6606 78.9309 91.621 78.9138C91.4174 78.8285 91.0273 78.7887 90.739 79.5C90.6259 79.7731 90.2867 80.6039 90.8973 80.86L91.1574 80.9681C91.4231 81.0819 91.8189 81.2071 92.5086 81.4062C93.0514 81.5599 93.4076 81.6851 93.6338 81.7704C93.5433 81.9923 93.3341 82.4191 92.8705 83.2328C92.4691 83.0394 92.1242 82.8573 91.8415 82.6752L91.8189 82.624L91.5814 82.5272C91.0234 82.2946 90.7351 82.6559 90.4588 83.002L90.4563 83.0052L90.3602 83.1247L90.1906 83.3466L90.2697 83.5458V83.6368L90.3319 83.8076L90.3715 83.8588C90.6768 84.2628 91.1065 84.5701 91.6719 84.8091C91.7849 84.8546 91.9037 84.9001 92.0167 84.9456C91.8302 85.3895 91.5362 86.0268 91.18 86.7267C90.7051 87.6656 90.4337 88.2688 90.298 88.6045L90.1962 88.8549L90.3036 89.2874L90.3432 89.35C90.4563 89.5321 90.6372 89.6743 90.886 89.7767C91.3609 89.9759 91.8245 89.9304 92.2373 89.6459L92.339 89.5776L92.4691 89.3158C92.4906 89.2707 92.511 89.2289 92.5297 89.1906L92.5298 89.1906C92.57 89.1083 92.6024 89.0419 92.6217 88.9915C92.6387 88.9516 92.6726 88.8663 92.6952 88.7525C92.7009 88.724 92.7065 88.707 92.7065 88.707L93.0344 87.9843C93.1597 87.7121 93.2582 87.4801 93.3381 87.2922L93.368 87.2218L93.6224 86.6072C93.7017 86.3778 93.7723 86.2052 93.8228 86.0817L93.8229 86.0816L93.8429 86.0325C93.9051 85.8789 93.9617 85.7537 94.0069 85.6512C94.2953 85.7594 94.7023 85.6911 94.9342 85.1277L94.9417 85.1092L94.9418 85.1089C95.0285 84.8964 95.0934 84.7371 95.1264 84.6099L95.1999 84.3254L94.8041 83.9783H94.7815C94.855 83.8246 94.9454 83.6596 95.0529 83.4775C95.3073 83.0394 95.4995 82.6638 95.6126 82.3907C95.72 82.1289 96.2063 80.8486 95.59 80.5015H95.6013ZM84.6215 96.7418C83.8525 96.6622 82.5013 96.5939 81.4836 96.8955C80.9804 97.0491 80.4772 97.1857 79.9514 97.2369C77.7633 97.4588 73.653 97.7433 73.653 97.7433C72.73 97.586 40.2192 97.3924 32.8294 97.3484C31.9351 97.3431 31.4087 97.3399 31.3507 97.3393C28.5125 97.3052 26.7937 98.5286 26.1661 101.004V101.419C26.2033 101.868 26.2005 101.896 26.158 102.326L26.1491 102.415V102.91C26.3583 104.651 27.981 105.579 30.9832 105.619C31.8178 105.596 34.849 105.648 39.0882 105.72C53.6303 105.97 82.3869 106.463 85.4469 105.004C86.2611 104.731 86.9396 103.013 86.9678 100.97C86.9961 98.7335 86.2159 96.7646 84.6158 96.7475L84.6215 96.7418ZM31.492 103.371C31.4185 103.4 31.3168 103.428 31.1754 103.462C31.0906 103.474 30.9662 103.508 30.8079 103.565L30.1521 103.553C30.0503 103.553 29.9994 103.274 29.9994 102.711C29.9994 102.392 30.0164 101.909 30.0503 101.266C30.0842 100.623 30.0955 100.139 30.0955 99.8146C30.1408 99.7634 30.2595 99.7293 30.4517 99.7179C30.6779 99.7122 30.8079 99.7008 30.8532 99.6781C31.1585 99.7122 31.6334 99.8431 31.7634 99.9797C31.7691 99.9853 31.82 100.065 31.9161 100.219C32.2214 100.702 32.3741 101.14 32.3741 101.545C32.3741 102.193 32.0914 102.609 31.4864 103.365L31.492 103.371ZM34.9466 103.206C34.7996 103.252 34.6356 103.286 34.466 103.297L33.9628 103.337C33.7649 103.354 33.5953 103.365 33.4652 103.365C33.2843 103.365 33.1543 103.337 33.0808 103.291L33.0798 103.277L33.0798 103.277C33.078 103.253 33.0737 103.197 33.0695 103.104L33.0412 102.671C33.0242 102.5 33.0016 102.25 32.979 101.914C32.9712 101.721 32.9661 101.48 32.9599 101.189C32.9572 101.059 32.9542 100.92 32.9507 100.771C32.9507 100.689 32.9475 100.571 32.9435 100.424L32.9394 100.276C32.9394 100.258 32.9338 100.224 32.9168 100.173C32.8999 100.122 32.8942 100.076 32.8942 100.031C32.8942 100.003 32.8971 99.9656 32.9007 99.918L32.9055 99.8545L32.9096 99.8032C32.9136 99.7536 32.9168 99.7138 32.9168 99.6838C32.9847 99.5358 33.1882 99.4618 33.5331 99.4618C33.6066 99.4618 33.7084 99.4675 33.8441 99.4789C33.9798 99.4903 34.0815 99.496 34.155 99.496C34.1466 99.496 34.1693 99.4897 34.2229 99.475L34.2907 99.4561C34.4151 99.422 34.5112 99.4106 34.596 99.4106C34.7826 99.4106 34.8731 99.4846 34.8731 99.6212C34.8731 99.6667 34.8561 99.7407 34.8222 99.8203C34.7374 99.8658 33.7819 99.9057 33.4426 99.9057C33.4766 100.162 33.4935 100.395 33.4935 100.623C33.4935 100.776 33.4879 100.941 33.4766 101.106H33.4766C33.4936 101.106 33.5162 101.106 33.5387 101.101H33.6066C33.6513 101.101 33.7106 101.104 33.7865 101.107L33.8836 101.112C34.008 101.123 34.0985 101.129 34.155 101.129C34.1466 101.129 34.1693 101.123 34.223 101.108L34.2907 101.089C34.4151 101.055 34.5112 101.044 34.596 101.044C34.7769 101.044 34.8674 101.106 34.8674 101.243C34.8674 101.3 34.8561 101.374 34.8222 101.453C34.8165 101.471 34.6469 101.516 34.6186 101.516C34.302 101.59 33.9176 101.613 33.4709 101.596C33.4709 101.63 33.4709 101.681 33.4652 101.738L33.4618 101.772C33.4575 101.813 33.4539 101.848 33.4539 101.875C33.4539 101.846 33.4596 102.005 33.4652 102.335C33.4652 102.409 33.4652 102.506 33.4709 102.643C33.4822 102.762 33.5501 102.819 33.6575 102.819C33.7027 102.819 33.7819 102.813 33.9006 102.802C34.2964 102.757 34.5791 102.739 34.7487 102.739H34.8109C34.9183 102.848 34.9748 102.939 34.9748 103.013L34.9353 103.2L34.9466 103.206ZM37.1685 103.371C37.1233 103.377 37.0668 103.377 36.9876 103.377C36.7049 103.422 35.8681 103.53 35.8625 103.53C35.7268 103.53 35.6307 103.502 35.5798 103.445C35.5572 103.428 35.5402 103.394 35.5346 103.348C35.495 103.081 35.478 102.916 35.478 102.848C35.478 102.779 35.478 102.671 35.4837 102.529C35.4893 102.392 35.4893 102.29 35.4893 102.216C35.4893 101.971 35.478 101.658 35.4554 101.271C35.4498 101.192 35.4498 100.93 35.4498 100.497C35.4498 100.446 35.4498 100.367 35.4441 100.264C35.4384 100.168 35.4384 100.088 35.4384 100.037V100.037C35.4384 99.9455 35.4441 99.8886 35.4667 99.8602C35.5176 99.7634 35.6081 99.7122 35.7438 99.7122C35.8512 99.7122 35.919 99.7293 35.9247 99.7634V99.7635C35.9247 99.8204 35.9247 99.9001 35.9303 100.008L35.9529 100.554C35.9643 100.919 35.9699 101.158 35.9699 101.271C35.9699 101.385 35.9643 101.545 35.9529 101.761C35.9499 101.819 35.9469 101.873 35.9441 101.923C35.9364 102.059 35.9303 102.167 35.9303 102.25C35.9303 102.483 35.9643 102.694 36.0208 102.87C36.0717 102.876 36.1508 102.876 36.2526 102.876C36.3106 102.876 36.3868 102.873 36.4835 102.869L36.5975 102.865C36.7445 102.859 36.8632 102.859 36.9367 102.859C37.1459 102.859 37.1912 102.859 37.2646 102.967C37.2658 102.968 37.2675 102.97 37.2694 102.971C37.2768 102.978 37.2884 102.988 37.2929 103.001L37.289 103.036C37.273 103.181 37.2525 103.366 37.1742 103.371H37.1685ZM40.6004 103.701C40.5552 103.718 40.4365 103.735 40.2499 103.735C39.3418 103.735 39.3432 103.546 39.3471 103.017C39.348 102.897 39.349 102.759 39.3396 102.603C39.3057 102.182 39.2944 101.863 39.2944 101.647V101.362C39.2944 101.237 39.3 101.061 39.3227 100.833C39.3227 100.816 39.3283 100.776 39.3396 100.714L39.3441 100.671C39.3468 100.646 39.3491 100.625 39.3502 100.606C39.3507 100.598 39.3509 100.59 39.3509 100.583C39.3509 100.531 39.3482 100.465 39.3446 100.38C39.343 100.343 39.3413 100.303 39.3396 100.258L39.3356 100.161C39.3316 100.064 39.3283 99.986 39.3283 99.9341C39.3283 99.4903 39.464 99.348 39.9107 99.348C40.329 99.348 40.8096 99.5244 41.064 99.8317C41.1319 100.031 41.1602 100.224 41.1602 100.401C41.1602 100.816 40.9849 101.14 40.6344 101.374C40.7531 101.419 40.8888 101.51 41.0358 101.653C41.3581 101.96 41.522 102.273 41.522 102.603C41.522 103.052 41.2167 103.417 40.6061 103.713L40.6004 103.701ZM44.3489 103.61C44.0832 103.61 44.0719 103.417 44.0663 103.024V102.739L44.0665 102.602C44.0681 102.088 44.0686 101.908 43.8288 101.829C43.7892 101.818 43.6648 101.812 43.4613 101.812C42.8224 101.812 42.6867 101.829 42.6811 102.347C42.6811 102.37 42.6784 102.404 42.6749 102.449C42.674 102.461 42.673 102.474 42.672 102.487C42.6712 102.497 42.6705 102.507 42.6698 102.518L42.665 102.581C42.6613 102.629 42.6584 102.666 42.6584 102.694C42.6584 102.705 42.6584 102.728 42.6641 102.757V102.831C42.6641 102.887 42.6641 102.978 42.6584 103.104L42.6536 103.206L42.6535 103.206C42.6499 103.28 42.6471 103.337 42.6471 103.377C42.6471 103.383 42.6471 103.391 42.6474 103.4C42.6479 103.416 42.6492 103.435 42.6528 103.456V103.542C42.6528 103.644 42.5906 103.695 42.4606 103.695C42.3305 103.695 42.1609 103.621 42.1609 103.502V102.996C42.1552 102.768 42.1552 102.597 42.1552 102.489C42.1552 101.977 42.1552 101.784 42.1722 101.101C42.1835 100.884 42.2514 100.606 42.3701 100.27C42.404 100.162 42.4549 100.037 42.5284 99.8829C42.6911 99.6822 42.8245 99.6825 43.3221 99.6836L43.4443 99.6838H43.5235C43.6874 99.6838 43.8005 99.7122 43.874 99.7577C44.2641 100.014 44.3376 100.429 44.3942 101.101L44.4903 102.136C44.5299 102.552 44.5468 102.899 44.5468 103.178C44.5468 103.456 44.5412 103.627 44.3603 103.627L44.3489 103.61ZM48.0692 102.893C48.0635 102.978 47.9674 103.024 47.7808 103.024C47.402 103.024 46.39 102.745 45.8981 101.863C45.8981 101.926 45.8981 102.028 45.9038 102.159C45.9094 102.29 45.9094 102.387 45.9094 102.449V102.449C45.9094 103.257 45.7737 103.661 45.508 103.661C45.3666 103.57 45.2931 103.485 45.2931 103.405C45.2931 103.257 45.2931 103.03 45.2875 102.728C45.2818 102.427 45.2818 102.205 45.2818 102.057C45.2818 101.601 45.3158 101.135 45.3723 100.645C45.3893 100.571 45.4006 100.515 45.4062 100.48C45.4062 100.475 45.4119 99.8772 45.4741 99.7008C45.5306 99.5244 45.672 99.4334 45.8981 99.4334C46.2729 99.4334 46.3332 99.4654 46.5867 99.6001C46.6353 99.6259 46.6911 99.6556 46.7575 99.6894C46.8067 99.7059 46.8769 99.7437 46.9581 99.7873L46.9667 99.7919C47.1646 99.9284 47.3003 100.105 47.3738 100.304C47.3794 100.31 47.3794 100.321 47.3794 100.35C47.3794 100.719 46.8367 101.237 46.39 101.516C46.4456 102.087 46.8844 102.195 47.5124 102.351L47.5434 102.358C47.8261 102.432 47.9844 102.483 48.0127 102.512C48.0127 102.529 48.024 102.586 48.0466 102.666C48.0635 102.757 48.0692 102.808 48.0692 102.831V102.887V102.893ZM50.7491 101.476C50.6417 101.607 50.5399 101.698 50.4664 101.744C50.3534 101.818 50.1102 101.909 49.7201 102.017H49.6919C49.6919 102.153 49.771 102.284 49.9293 102.421C50.0228 102.49 50.114 102.563 50.2073 102.638L50.2075 102.638C50.2608 102.681 50.3148 102.725 50.3703 102.768C50.5343 102.916 50.6078 103.081 50.6078 103.252C50.5343 103.309 50.4608 103.337 50.376 103.337C50.0254 103.337 49.5731 102.922 49.0247 102.091V102.079C48.9512 102.131 48.9229 102.239 48.9229 102.409C48.9229 102.451 48.9259 102.508 48.9298 102.58L48.9298 102.58L48.9342 102.666C48.9358 102.698 48.9373 102.728 48.9387 102.755C48.9425 102.831 48.9455 102.891 48.9455 102.933C48.9455 103.291 48.8155 103.468 48.5667 103.468C48.4706 103.468 48.4197 103.291 48.4197 102.944C48.4197 102.751 48.431 102.5 48.465 102.193C48.4811 102.096 48.4944 101.96 48.5109 101.792C48.5176 101.724 48.5247 101.651 48.5328 101.573C48.5385 101.351 48.5498 101.021 48.578 100.583C48.612 100.207 48.7194 99.9455 48.906 99.8033H48.937C49.5584 99.8031 50.6243 99.8027 50.9301 100.446C50.9809 100.554 51.0092 100.645 51.0092 100.719C51.0092 101.185 50.9799 101.218 50.7941 101.426L50.7491 101.476ZM52.2022 101.146C52.1999 101.199 52.1976 101.245 52.1957 101.283L52.1957 101.283C52.1929 101.339 52.1909 101.379 52.1909 101.402C52.1909 101.641 52.1739 101.943 52.1343 102.301L52.0891 102.7C52.0891 102.7 52.0947 102.762 52.1004 102.819C52.1061 102.87 52.1061 102.91 52.1061 102.939C52.1061 103.217 51.9647 103.354 51.6877 103.354H51.6481C51.6481 103.354 51.6368 103.343 51.6311 103.326C51.6274 103.324 51.623 103.322 51.6186 103.32C51.612 103.317 51.6055 103.314 51.601 103.311C51.5995 103.31 51.5982 103.309 51.5972 103.309C51.5576 103.217 51.5407 103.126 51.5407 103.03C51.5407 102.973 51.5463 102.893 51.5689 102.791C51.5916 102.688 51.5972 102.609 51.5972 102.557V102.159C51.5972 101.692 51.6424 101.129 51.7386 100.48C51.7894 100.401 51.976 100.389 52.1061 100.384C52.1852 100.458 52.2248 100.617 52.2248 100.862C52.2248 100.921 52.2211 100.999 52.2168 101.092L52.2135 101.163L52.2022 101.146ZM51.9001 100.002C51.8949 100.001 51.8895 99.9987 51.8856 99.9967C51.8686 99.9967 51.8516 99.9967 51.846 99.991C51.7329 99.8658 51.6764 99.752 51.6764 99.6269C51.6764 99.4277 51.8403 99.2684 52.0382 99.2684C52.2361 99.2684 52.3435 99.4049 52.3435 99.6724C52.3332 99.69 52.3235 99.7067 52.3144 99.7225C52.3061 99.7369 52.2982 99.7507 52.2907 99.7637C52.1575 99.9956 52.147 100.014 51.9195 100.014V100.008C51.9195 100.008 51.9099 100.006 51.9001 100.002ZM55.6058 102.944C55.4192 103.439 54.9669 103.73 54.0114 103.73L53.9492 103.718C53.9252 103.715 53.9095 103.711 53.8997 103.709L53.8995 103.709L53.8994 103.709C53.8931 103.708 53.8892 103.707 53.887 103.707C53.2708 103.559 52.8128 103.001 52.8128 102.153V101.977C52.8128 101.357 53.1407 100.395 53.5761 99.991C53.7909 99.7919 54.0566 99.6894 54.3676 99.6894C55.2779 99.6894 55.7698 100.628 55.8489 101.431C55.8489 101.488 55.8489 101.573 55.8546 101.687L55.8659 101.818C55.8659 102.034 55.7019 102.711 55.6058 102.95V102.944ZM60.4738 103.616C60.2081 103.616 60.1967 103.422 60.1911 103.03V102.745L60.1914 102.608C60.1929 102.094 60.1934 101.913 59.9536 101.835C59.9141 101.823 59.7897 101.818 59.5861 101.818C58.9472 101.818 58.8115 101.835 58.8059 102.353C58.8059 102.387 58.8002 102.444 58.7946 102.523L58.7898 102.587L58.7898 102.587C58.7861 102.634 58.7833 102.671 58.7833 102.7C58.7833 102.711 58.7833 102.734 58.7889 102.762V102.836C58.7889 102.893 58.7889 102.984 58.7833 103.109L58.7784 103.212C58.7748 103.286 58.772 103.342 58.772 103.382C58.772 103.4 58.772 103.428 58.7776 103.462V103.548C58.7776 103.65 58.7154 103.701 58.5854 103.701C58.4554 103.701 58.2857 103.627 58.2857 103.508V103.001C58.2801 102.774 58.2801 102.603 58.2801 102.495C58.2801 101.983 58.2801 101.789 58.297 101.106C58.3084 100.89 58.3762 100.611 58.4949 100.276C58.5289 100.167 58.5797 100.042 58.6532 99.8886C58.8159 99.6879 58.9494 99.6882 59.4469 99.6893L59.5692 99.6894H59.6483C59.8123 99.6894 59.9254 99.7179 59.9989 99.7634C60.389 100.019 60.4625 100.435 60.519 101.106L60.6151 102.142C60.6547 102.557 60.6717 102.905 60.6717 103.183C60.6717 103.462 60.666 103.633 60.4851 103.633L60.4738 103.616ZM64.7707 103.377C64.7255 103.382 64.669 103.382 64.5898 103.382C64.3071 103.428 63.4703 103.536 63.4647 103.536C63.329 103.536 63.2329 103.508 63.182 103.451C63.1594 103.434 63.1424 103.4 63.1368 103.354C63.0972 103.087 63.0802 102.922 63.0802 102.853C63.0802 102.785 63.0802 102.677 63.0859 102.535C63.0915 102.398 63.0915 102.296 63.0915 102.222C63.0915 101.977 63.0802 101.664 63.0576 101.277C63.0519 101.197 63.0519 100.936 63.0519 100.503V100.503C63.0519 100.452 63.0519 100.372 63.0463 100.27C63.0406 100.173 63.0406 100.093 63.0406 100.042C63.0406 99.9512 63.0463 99.8943 63.0689 99.8658C63.1198 99.7691 63.2103 99.7179 63.346 99.7179C63.4534 99.7179 63.5212 99.735 63.5269 99.7691C63.5269 99.826 63.5269 99.9057 63.5325 100.014L63.5551 100.56C63.5665 100.924 63.5721 101.163 63.5721 101.277C63.5721 101.391 63.5665 101.55 63.5551 101.766C63.5521 101.824 63.5491 101.878 63.5463 101.928L63.5463 101.928C63.5386 102.065 63.5325 102.173 63.5325 102.256C63.5325 102.489 63.5665 102.7 63.623 102.876C63.6739 102.882 63.753 102.882 63.8548 102.882C63.9128 102.882 63.9889 102.879 64.0854 102.875L64.1997 102.87C64.3467 102.865 64.4654 102.865 64.5389 102.865C64.7481 102.865 64.7933 102.865 64.8668 102.973L64.8716 102.977C64.8754 102.98 64.8804 102.985 64.8849 102.99C64.8891 102.995 64.8929 103 64.8951 103.007L64.8912 103.042C64.8752 103.187 64.8547 103.372 64.7764 103.377H64.7707ZM67.5411 103.616C67.2754 103.616 67.2641 103.422 67.2584 103.03V102.745L67.2587 102.608C67.2602 102.094 67.2608 101.913 67.021 101.835C66.9814 101.823 66.857 101.818 66.6535 101.818C66.0146 101.818 65.8789 101.835 65.8732 102.353C65.8732 102.376 65.8706 102.41 65.8671 102.455C65.8662 102.467 65.8652 102.479 65.8642 102.493C65.8634 102.502 65.8627 102.513 65.8619 102.523C65.8563 102.603 65.8506 102.66 65.8506 102.7C65.8506 102.711 65.8506 102.734 65.8563 102.762V102.836C65.8563 102.893 65.8563 102.984 65.8506 103.109L65.8457 103.212C65.8421 103.286 65.8393 103.343 65.8393 103.382C65.8393 103.4 65.8393 103.428 65.845 103.462V103.548C65.845 103.65 65.7828 103.701 65.6527 103.701C65.5227 103.701 65.3531 103.627 65.3531 103.508V103.001C65.3474 102.774 65.3474 102.603 65.3474 102.495C65.3474 101.983 65.3474 101.789 65.3644 101.106C65.3757 100.89 65.4435 100.611 65.5623 100.276C65.5962 100.167 65.6471 100.042 65.7206 99.8886C65.8832 99.6879 66.0167 99.6882 66.5142 99.6893L66.6365 99.6894H66.7157C66.8796 99.6894 66.9927 99.7179 67.0662 99.7634C67.4563 100.019 67.5298 100.435 67.5864 101.106L67.6825 102.142C67.722 102.557 67.739 102.905 67.739 103.183C67.739 103.462 67.7334 103.633 67.5524 103.633L67.5411 103.616ZM72.9236 103.678C72.8275 103.678 72.7596 103.582 72.737 103.434C72.7314 103.382 72.7201 103.206 72.7088 102.91L72.6861 102.017L72.6836 101.92C72.6789 101.745 72.6748 101.594 72.6748 101.459C72.6748 101.089 72.6861 100.81 72.7144 100.634C72.6249 100.904 72.4829 101.294 72.2961 101.805L72.2959 101.806L72.2169 102.022L72.1668 102.16C71.9656 102.711 71.8139 103.127 71.725 103.417C71.6854 103.428 71.6458 103.434 71.6006 103.434C71.5441 103.434 71.4932 103.417 71.4479 103.371C71.3914 103.195 71.2557 102.825 71.0352 102.25C70.8204 101.71 70.6394 101.209 70.4924 100.759C70.4642 100.89 70.4529 101.158 70.4529 101.567C70.4529 101.498 70.446 101.67 70.4292 102.087L70.4291 102.089C70.4197 102.326 70.407 102.641 70.3907 103.035C70.3899 103.062 70.3903 103.092 70.3906 103.124V103.124C70.3927 103.34 70.3957 103.639 70.0854 103.639C69.9214 103.639 69.9157 103.576 69.9157 103.365C69.9157 103.28 69.9271 103.178 69.9553 103.052C69.9893 102.899 70.0062 102.791 70.0119 102.739C70.0401 102.5 70.0571 102.193 70.0684 101.806L70.1249 100.31C70.1306 100.202 70.1363 100.122 70.1532 100.059C70.1984 99.9967 70.2776 99.9626 70.3794 99.9626C70.4698 99.9626 70.532 99.9797 70.5773 100.025C70.7808 100.475 70.8882 100.708 70.8995 100.731C71.0183 101.004 71.1087 101.243 71.1766 101.459C71.2388 101.601 71.3179 101.829 71.414 102.136C71.4536 102.353 71.4988 102.529 71.5497 102.648C71.6798 102.54 71.855 102.114 72.0699 101.379C72.166 101.061 72.3017 100.583 72.4656 99.9512V99.9341C72.4656 99.8317 72.607 99.7691 72.7201 99.7691C72.8105 99.7691 72.8897 99.7976 72.9575 99.8488L72.9632 99.8602L73.0028 100.247C73.0028 100.247 73.0197 100.571 73.0423 101.152C73.048 101.482 73.0706 101.994 73.1158 102.66C73.1313 102.806 73.1446 102.931 73.1557 103.036C73.1813 103.275 73.195 103.404 73.195 103.428C73.195 103.502 73.0084 103.673 72.9293 103.673L72.9236 103.678ZM74.4954 102.831L74.5067 103.092H75.0721C75.4792 103.092 75.7392 103.081 75.841 103.058L75.9654 103.041H75.9937C75.9937 103.041 76.0445 103.058 76.0728 103.121C76.0502 103.252 76.0389 103.371 76.0389 103.474C75.9032 103.519 75.7279 103.548 75.5131 103.548C75.4584 103.548 75.3849 103.544 75.2926 103.54L75.1908 103.536C75.044 103.53 74.931 103.53 74.8632 103.53H74.8629C74.7272 103.53 74.6085 103.536 74.5067 103.559C74.3766 103.576 74.3258 103.593 74.3597 103.593C74.0148 103.593 73.9356 103.536 73.913 103.195C73.9074 102.705 73.8735 101.966 73.8169 100.981C73.8169 100.964 73.8056 100.89 73.783 100.765C73.7717 100.662 73.766 100.589 73.766 100.554C73.766 100.355 73.913 100.071 74.094 100.071H74.1109C74.1109 100.071 74.1222 100.076 74.1279 100.076C74.1311 100.073 74.1361 100.072 74.144 100.071C74.15 100.071 74.1577 100.071 74.1675 100.071H74.1731C74.207 100.076 74.2578 100.076 74.3199 100.076H74.3201C74.3881 100.076 74.4817 100.073 74.5984 100.069L74.5991 100.069L74.7215 100.065C74.8968 100.059 75.0268 100.059 75.1117 100.059C75.5074 100.059 75.7732 100.099 75.9088 100.179C75.9145 100.213 75.9145 100.253 75.9145 100.304C75.9145 100.389 75.9032 100.452 75.8749 100.497C75.6657 100.571 75.2926 100.6 74.7498 100.6H74.4332C74.4367 100.652 74.4414 100.71 74.4466 100.777L74.4467 100.778C74.4582 100.923 74.4724 101.104 74.4841 101.323C74.5123 101.658 74.5858 101.727 74.9025 101.727H75.0495C75.1399 101.727 75.3152 101.721 75.5696 101.71C75.7392 101.704 75.8184 101.698 75.7958 101.698H75.8919C75.9371 101.704 75.9654 101.704 75.9824 101.704C76.0558 101.778 76.0898 101.84 76.0898 101.914C76.0898 101.988 76.0728 102.091 76.0276 102.233C75.7166 102.267 75.5583 102.279 75.5357 102.279L74.5576 102.216C74.5067 102.21 74.4784 102.335 74.4784 102.586C74.4784 102.633 74.4816 102.692 74.4855 102.766L74.4897 102.848L74.4954 102.831ZM78.9732 103.235C78.8828 103.314 78.7754 103.377 78.651 103.434C78.4757 103.513 78.2552 103.559 77.9951 103.576L77.9801 103.577C77.4474 103.61 77.181 103.627 77.1866 103.627C77.0227 103.627 76.7739 103.565 76.7739 103.428C76.7739 103.388 76.7909 103.326 76.8248 103.24L76.9039 103.03C77.0679 103.03 77.3336 103.024 77.6955 103.013C77.7859 103.013 77.9047 103.007 78.0517 102.996C78.4135 102.916 78.6453 102.802 78.7301 102.483C78.7245 102.472 78.5605 102.347 78.2495 102.119C77.458 101.533 77.0679 101.067 77.0679 100.719C77.0679 100.634 77.0792 100.571 77.1131 100.52C77.3675 100.076 77.7746 99.9341 78.3174 99.8089C78.357 99.8033 78.4474 99.7976 78.5888 99.7976C79.0637 99.7976 79.2955 99.9512 79.2955 100.276C79.2955 100.293 79.2955 100.31 79.295 100.324C79.2949 100.329 79.2947 100.333 79.2944 100.337C79.2936 100.349 79.2922 100.359 79.2899 100.367C79.1655 100.503 79.0128 100.566 78.8262 100.566C78.6906 100.566 78.6171 100.503 78.6171 100.367C78.6114 100.367 78.5888 100.367 78.5718 100.361H78.5266C78.1591 100.361 77.6446 100.543 77.6446 100.862C77.6446 100.947 77.6616 101.015 77.7068 101.084C77.752 101.146 77.9669 101.3 78.3457 101.533C78.9676 101.92 79.3634 102.199 79.3634 102.648C79.3634 102.91 79.0658 103.166 78.9788 103.241L78.9732 103.246V103.235ZM82.2299 103.61C81.9641 103.61 81.9528 103.417 81.9472 103.024V102.739L81.9474 102.602C81.949 102.088 81.9495 101.908 81.7097 101.829C81.6701 101.818 81.5458 101.812 81.3422 101.812C80.7033 101.812 80.5676 101.829 80.562 102.347C80.562 102.381 80.5563 102.438 80.5507 102.518L80.5459 102.581V102.581C80.5422 102.629 80.5394 102.666 80.5394 102.694C80.5394 102.705 80.5394 102.728 80.545 102.757V102.831C80.545 102.887 80.545 102.978 80.5394 103.104C80.5373 103.15 80.5352 103.191 80.5334 103.228C80.5319 103.258 80.5306 103.286 80.5297 103.31C80.5287 103.336 80.5281 103.358 80.5281 103.377C80.5281 103.394 80.5281 103.422 80.5337 103.456V103.542C80.5337 103.644 80.4715 103.695 80.3415 103.695C80.2114 103.695 80.0418 103.621 80.0418 103.502V102.996C80.0362 102.768 80.0362 102.597 80.0362 102.489C80.0362 101.977 80.0362 101.784 80.0531 101.101C80.0644 100.884 80.1323 100.606 80.251 100.27C80.285 100.162 80.3358 100.037 80.4093 99.8829C80.572 99.6822 80.7055 99.6825 81.203 99.6836L81.3253 99.6838H81.4044C81.5684 99.6838 81.6815 99.7122 81.755 99.7577C82.1451 100.014 82.2186 100.429 82.2751 101.101L82.3712 102.136C82.4108 102.552 82.4278 102.899 82.4278 103.178C82.4278 103.456 82.4221 103.627 82.2412 103.627L82.2299 103.61ZM40.7305 100.412C40.7305 100.566 40.6852 100.691 40.5891 100.799L40.5948 100.793C40.4817 100.924 40.0068 101.123 39.7976 101.152C39.7806 101.004 39.775 100.845 39.775 100.697C39.775 100.446 39.7863 100.184 39.8145 99.9227C39.8937 99.8885 39.9728 99.8715 40.0577 99.8715C40.3912 99.8715 40.7305 100.093 40.7305 100.412ZM46.0338 99.9625C46.3391 99.9853 46.7349 100.162 46.7349 100.418H46.7292C46.7292 100.514 46.701 100.594 46.6275 100.668C46.5257 100.776 45.9942 101.084 45.8585 101.089V101.049C45.8529 101.027 45.8529 101.015 45.8529 101.01C45.8529 100.833 45.9094 100.492 46.0338 99.9625ZM48.9795 100.827C48.9908 100.566 49.1321 100.315 49.3696 100.315V100.304C49.6523 100.304 50.2855 100.452 50.4099 100.6C50.4552 100.725 50.4778 100.827 50.4834 100.907C50.1216 101.51 49.4488 101.613 49.0078 101.613C49.0054 101.613 49.0022 101.612 48.9991 101.611C48.9947 101.609 48.9908 101.607 48.9908 101.607H48.9625L48.9795 100.827ZM55.0461 100.6C54.8652 100.418 54.5146 100.241 54.2772 100.241C53.6496 100.241 53.3669 101.027 53.2312 101.766C53.2278 101.776 53.2265 101.789 53.2259 101.801L53.2256 101.813L53.2255 101.829C53.2232 101.841 53.2218 101.851 53.2206 101.86C53.2189 101.872 53.2175 101.882 53.2142 101.892C53.2142 102.796 53.5761 103.16 54.475 103.16C55.0744 103.16 55.3571 102.398 55.3571 101.704C55.3571 101.311 55.2835 100.987 55.1365 100.725C55.097 100.651 55.0744 100.617 55.0517 100.594L55.0461 100.6ZM58.7324 101.266C58.7324 101.186 58.8794 100.099 59.4448 100.099L59.4391 100.105C59.6144 100.105 59.8292 100.116 59.8858 100.304C60.0158 100.714 60.078 100.993 60.078 101.129C60.078 101.288 60.0215 101.368 59.8971 101.368C59.8705 101.368 59.8369 101.365 59.7964 101.36L59.7955 101.36L59.7953 101.36L59.7614 101.357L59.715 101.352C59.6906 101.35 59.6695 101.348 59.651 101.347C59.6397 101.346 59.6295 101.345 59.62 101.345C59.5748 101.345 59.5126 101.351 59.4278 101.362C59.343 101.385 59.2808 101.391 59.2356 101.391H59.066C58.8398 101.391 58.7324 101.351 58.7324 101.266ZM43.32 100.099C42.7546 100.099 42.6076 101.186 42.6076 101.266C42.6076 101.351 42.715 101.391 42.9412 101.391H43.1108C43.156 101.391 43.2182 101.385 43.303 101.362C43.3878 101.351 43.45 101.345 43.4952 101.345C43.5105 101.345 43.528 101.346 43.5483 101.348L43.5901 101.352L43.6366 101.357L43.6705 101.36C43.7115 101.365 43.7454 101.368 43.7723 101.368C43.8967 101.368 43.9532 101.288 43.9532 101.129C43.9532 100.993 43.891 100.714 43.761 100.304C43.7044 100.116 43.4896 100.105 43.3143 100.105L43.32 100.099ZM40.3404 101.823C40.2951 101.806 40.216 101.795 40.1085 101.795C39.8937 101.795 39.7863 101.812 39.7806 101.857C39.775 101.863 39.775 101.869 39.775 101.892C39.775 102.028 39.7863 102.227 39.8089 102.506C39.8134 102.581 39.818 102.651 39.8222 102.715L39.8222 102.716L39.8223 102.716C39.8338 102.893 39.8428 103.032 39.8428 103.132C39.8428 103.195 39.8428 103.252 39.8372 103.28H40.0633C40.1594 103.286 40.2386 103.286 40.2838 103.286C40.5382 103.286 40.6852 103.189 40.8322 102.95C40.9057 102.83 40.9453 102.717 40.9453 102.591C40.9453 102.261 40.6683 101.948 40.3517 101.823H40.3404ZM30.6496 100.367C30.8927 100.367 31.0624 100.378 31.1754 100.412H31.1698C31.4864 100.497 31.7239 100.708 31.8765 101.055C31.9217 101.146 31.95 101.22 31.9557 101.277V101.357C31.9557 101.994 31.7804 102.444 31.4242 102.7C31.2549 102.821 31.075 102.857 30.9866 102.874L30.9775 102.876C30.9662 102.922 30.9323 102.933 30.8588 102.922C30.8475 102.916 30.8419 102.916 30.8305 102.922C30.6949 102.922 30.5818 102.933 30.497 102.961C30.4913 102.882 30.4857 102.796 30.4857 102.705C30.4857 102.574 30.497 102.381 30.5309 102.114C30.5648 101.852 30.5761 101.658 30.5761 101.527C30.5761 100.907 30.6044 100.515 30.6496 100.367ZM81.2065 100.099C80.6411 100.099 80.4941 101.186 80.4941 101.266C80.4941 101.351 80.6016 101.391 80.8277 101.391H80.9973C81.0426 101.391 81.1048 101.385 81.1896 101.362C81.2744 101.351 81.3366 101.345 81.3818 101.345C81.4157 101.345 81.461 101.351 81.5231 101.357L81.5571 101.36L81.5572 101.36C81.5926 101.364 81.6227 101.367 81.6475 101.368C81.6514 101.368 81.6552 101.368 81.6588 101.368C81.7832 101.368 81.8398 101.288 81.8398 101.129C81.8398 100.993 81.7776 100.714 81.6475 100.304C81.591 100.116 81.3761 100.105 81.2009 100.105L81.2065 100.099ZM65.7997 101.266C65.7997 101.186 65.9467 100.099 66.5121 100.099L66.5065 100.105C66.6817 100.105 66.8966 100.116 66.9531 100.304C67.0832 100.714 67.1454 100.993 67.1454 101.129C67.1454 101.288 67.0888 101.368 66.9644 101.368C66.9513 101.368 66.9364 101.367 66.9199 101.366C66.9026 101.364 66.8836 101.362 66.8627 101.36L66.8288 101.357L66.7823 101.352C66.7431 101.348 66.7122 101.345 66.6874 101.345C66.6422 101.345 66.58 101.351 66.4952 101.362C66.4104 101.385 66.3482 101.391 66.3029 101.391H66.1333C65.9072 101.391 65.7997 101.351 65.7997 101.266Z" fill="black"/>
</g>
<defs>
<clipPath id="clip0_83_123">
<rect width="100" height="106" fill="white"/>
</clipPath>
</defs>
</svg>
