<svg width="149" height="67" viewBox="0 0 149 67" fill="none" xmlns="http://www.w3.org/2000/svg">
<path fill-rule="evenodd" clip-rule="evenodd" d="M15.2068 11.388C15.2068 11.388 13.3452 9.09028 8.82329 9.80419V9.79847C3.32687 10.6684 0.0514065 15.5653 1.08959 22.1676C2.10409 28.6075 6.42918 32.4776 12.0408 31.5897C16.8069 30.8358 17.9832 27.1862 17.9832 27.1862L18.0648 27.1748L18.1866 27.9459C18.3777 29.1646 19.2125 29.9536 21.0855 29.6579L25.8508 28.9089L25.1671 24.552L23.5784 24.8019C23.0042 24.8942 22.6276 24.6157 22.5402 24.0472L19.2476 3.1438C18.9462 1.22917 17.9546 0.509544 16.0416 0.811769L11.1194 1.5951L11.8088 5.99207L13.4384 5.73722C14.0118 5.6441 14.3777 5.88261 14.4757 6.49115L15.0557 10.1579C15.1659 10.8546 15.2876 11.3766 15.2876 11.3766L15.2068 11.388ZM10.5394 14.086C14.0003 13.5403 16.1747 16.4531 16.6787 19.6731C17.404 24.2734 15.1831 26.6291 12.499 27.0531C9.44326 27.5342 6.99115 25.457 6.34178 21.3435C5.6924 17.2308 7.68709 14.5328 10.5394 14.086ZM31.8511 13.7224C32.4253 13.7804 32.7267 14.1055 32.6573 14.7205L30.964 30.3039L36.1239 30.8667L37.0232 22.5816C37.1564 21.3515 37.4464 20.2202 37.8458 19.2286C39.1274 16.2169 41.8057 15.2196 44.021 15.463C44.7569 15.5447 45.2789 15.6836 45.2789 15.6836L45.8351 10.5604C45.8351 10.5604 45.354 10.4216 44.9015 10.375C41.702 10.0271 38.9477 12.1328 37.6783 15.0219L37.5967 15.0105C37.5967 15.0105 37.7363 14.4828 37.8229 13.7052L37.9561 12.4751C38.148 10.7173 37.2895 9.8351 35.446 9.63252L30.692 9.11629L30.2109 13.5427L31.8511 13.7224ZM60.8059 9.38242C67.2351 9.38242 72.3435 13.9599 72.3435 20.394C72.3435 26.8282 67.2351 31.4056 60.8059 31.4056C54.3766 31.4056 49.3091 26.869 49.3091 20.394C49.3091 13.9191 54.4167 9.38242 60.8059 9.38242ZM60.8059 26.9499C64.2267 26.9499 67.0734 24.3099 67.0734 20.394C67.0734 16.4782 64.2325 13.8382 60.8059 13.8382C57.3793 13.8382 54.5849 16.5182 54.5849 20.394C54.5849 24.2699 57.4259 26.9499 60.8059 26.9499ZM77.5891 16.2427C78.1576 16.1496 78.5341 16.3758 78.6387 16.9852V16.9909L81.2942 32.4354L86.4132 31.5533L84.7787 22.0446C84.6105 21.0693 84.5696 20.1177 84.7085 19.2127C85.0099 16.6078 86.784 14.502 89.5441 14.0266C92.1473 13.5798 93.0867 15.1751 93.5212 17.6934L95.1565 27.202C95.4865 29.1518 96.443 29.824 98.3911 29.4883L103.308 28.6405L102.559 24.2892L100.936 24.5678C100.368 24.6609 99.9856 24.3938 99.8867 23.8253L98.4957 15.7379C97.5506 10.2497 94.5014 8.30561 89.9092 9.09466C85.7295 9.82 83.9317 12.7614 83.3403 14.6646L83.2594 14.676C83.2594 14.676 83.2652 14.2121 83.19 13.7653L83.0855 13.1559C82.8363 11.6938 81.7924 10.9979 79.966 11.3107L75.2121 12.1292L75.966 16.5212L77.5891 16.2427ZM118.214 9.58621C124.168 10.4504 126.8 15.2893 126.006 20.8012C125.919 21.4163 125.606 22.7036 125.606 22.7036L111.245 20.6272C111.123 24.3577 113.535 26.6668 116.678 27.1251C120.022 27.6062 122.846 25.6393 122.846 25.6393L124.487 29.5445C124.487 29.5445 120.852 32.2245 115.669 31.4763C108.776 30.4781 105.21 24.8796 106.068 18.9617C106.996 12.5513 111.97 8.68689 118.208 9.59193L118.214 9.58621ZM120.945 18.3581C121.223 15.8578 119.756 13.8966 117.634 13.5895C114.985 13.2064 112.874 14.5239 111.929 17.0528L120.945 18.3581ZM141.294 27.0365C137.815 27.913 134.464 25.563 134.464 25.563L134.47 25.5687L132.905 29.4911C132.905 29.4911 136.696 32.4031 142.291 30.9989C146.732 29.8856 149.526 26.6306 148.564 22.7899C147.55 18.7574 143.384 18.2996 139.994 17.9271C137.667 17.6714 135.706 17.4559 135.38 16.1523C135.078 14.9516 136.157 14 137.954 13.5475C139.073 13.2632 140.633 13.3792 140.876 14.3422L141.125 15.3404L145.601 14.2148L145.068 12.0968C144.233 8.77886 139.607 8.96428 136.847 9.65449C132.609 10.7164 129.403 13.5246 130.429 17.603C131.424 21.5801 135.718 22.1677 139.134 22.6352C141.389 22.9438 143.261 23.2 143.549 24.3443C143.891 25.7018 142.853 26.642 141.294 27.0365ZM28.8719 42.1088C28.7559 41.4995 28.3794 41.2789 27.8166 41.3835L27.5732 41.43C26.8135 41.5689 26.0833 41.0706 25.9387 40.3102L25.6365 38.6855C25.4976 37.9259 25.9967 37.1948 26.7555 37.0494L28.907 36.6492C31.1909 36.2261 33.3824 37.7282 33.8113 40.0145L35.6548 49.9062C35.7945 50.6667 36.5305 51.1707 37.2901 51.0261L37.4527 50.9967C38.102 50.875 38.9311 50.5964 39.2554 49.8654L41.9632 43.2573C42.1429 42.817 42.5366 42.4976 43.0005 42.4102L45.3775 41.97C46.4794 41.7666 47.3665 42.8742 46.9197 43.9018L44.1833 50.2428C43.5339 51.7049 42.9483 52.1517 42.9483 52.1517L42.9662 52.2325C42.9662 52.2325 43.7487 52.3837 44.7281 53.5844L47.9113 57.6056C48.3458 58.1504 48.7869 58.2378 49.7549 58.0573C50.5145 57.9185 51.2448 58.4175 51.3901 59.1772L51.6858 60.761C51.8247 61.5215 51.3264 62.2525 50.5668 62.3971L48.1376 62.8496C46.3985 63.1747 45.656 63.0179 44.5664 61.6726L39.9105 55.8298C39.3714 55.1739 38.5137 55.2965 37.8643 55.4124L36.7273 55.6207L38.1543 63.285C38.2932 64.0455 37.7941 64.7757 37.0353 64.9211L34.6461 65.3679C33.8872 65.5068 33.1562 65.0085 33.0116 64.248L28.8891 42.1088H28.8719ZM57.7217 47.9491C58.2951 47.9491 58.6259 48.2334 58.6259 48.8542L58.6374 48.8656V61.7339C58.6374 63.7122 59.4607 64.5364 61.3974 64.5364H65.56C66.0125 64.5364 66.3833 64.1704 66.3833 63.7122V60.9505C66.3833 60.498 66.0182 60.1272 65.56 60.1272C64.6035 60.1272 63.8267 59.3495 63.8267 58.3922V47.0906C63.8267 45.1066 62.2208 43.4991 60.2375 43.4991H56.8984C56.4458 43.4991 56.075 43.865 56.075 44.3232V47.1249C56.075 47.5775 56.4401 47.9491 56.8984 47.9491H57.7217ZM62.5859 35.2434H59.6984C59.2459 35.2434 58.8751 35.6085 58.8751 36.0676V39.241C58.8751 39.6935 59.2402 40.0643 59.6984 40.0643H62.5859C63.0376 40.0643 63.4093 39.6992 63.4093 39.241V36.0676C63.4093 35.6151 63.0433 35.2434 62.5859 35.2434ZM86.7847 42.6845C91.2029 43.8853 91.9617 46.7401 91.9617 46.7401L92.0434 46.7629C92.0434 46.7629 92.1414 46.2353 92.3268 45.5565L93.3013 41.9763C93.4638 41.3792 93.2204 41.0133 92.6634 40.863L91.8457 40.6425C91.4169 40.5265 91.1677 40.0854 91.2837 39.6557L92.032 36.912C92.1479 36.4824 92.5882 36.2332 93.017 36.3492L96.2754 37.2363C98.2006 37.7591 99.3311 39.7431 98.8091 41.6635L93.6893 60.5305C93.4402 61.4413 93.9793 62.3814 94.89 62.6306C95.3188 62.7465 95.568 63.1876 95.452 63.6173L94.716 66.3267C94.6 66.7555 94.159 67.0055 93.7301 66.8895L89.8518 65.8333C88.0197 65.3342 87.5843 64.2789 87.9094 63.0831L88.112 62.3291L88.0311 62.3063C88.0311 62.3063 85.463 65.1545 80.8129 63.8901C75.323 62.3986 72.9632 57.0958 74.6679 50.807C76.4183 44.3615 81.41 41.2281 86.7789 42.6902L86.7847 42.6845ZM89.9156 54.9026C90.7675 51.7586 89.9793 48.2079 86.5992 47.2914C83.8163 46.5367 80.8945 48.1785 79.7984 52.1932C78.7496 56.0519 80.0998 59.1149 83.0804 59.9269C85.7065 60.6408 88.6919 59.3992 89.9098 54.9026H89.9156ZM111.524 60.0221C110.457 59.523 109.198 59.9869 108.7 61.0488L108.711 61.0374C108.213 62.0993 108.659 63.3523 109.714 63.8628C111.315 64.6347 113.912 65.4229 117.193 64.7964C121.692 63.9379 124.672 60.852 123.93 56.9647C123.153 52.8807 119.02 52.1815 115.657 51.6126C113.348 51.2221 111.402 50.893 111.152 49.5732C110.92 48.3603 112.057 47.4724 113.877 47.1244C115.013 46.9039 116.562 47.113 116.747 48.0874L116.938 49.1028L119.379 48.6388C120.532 48.424 121.292 47.3049 121.072 46.1499L121.06 46.0977C120.423 42.7389 115.791 42.6515 112.996 43.1857C108.706 44.0033 105.337 46.6196 106.126 50.7511C106.891 54.7797 111.142 55.614 114.524 56.2778C116.758 56.7161 118.613 57.0801 118.834 58.2406C119.095 59.6218 117.999 60.4975 116.422 60.7997C114.561 61.1591 112.782 60.6134 111.524 60.0221ZM15.2526 50.0076C15.6063 49.9668 15.9249 50.2225 15.9657 50.5761C16.0066 50.9298 15.7509 51.2492 15.3972 51.29L9.00311 52.0154C8.64943 52.0554 8.33005 51.8006 8.29002 51.4469C8.24918 51.0924 8.50403 50.7738 8.85772 50.733L10.8924 50.501C11.0084 50.2282 11.2698 50.0248 11.5826 49.9905C11.8955 49.9553 12.1912 50.095 12.3709 50.3327L15.2584 50.0019L15.2526 50.0076ZM18.2381 49.6654L21.1256 49.3346C21.2416 49.0617 21.5022 48.8592 21.8158 48.824C22.1287 48.7897 22.4244 48.9286 22.6041 49.1663L24.6388 48.9343C24.9925 48.8935 25.3118 49.1491 25.3519 49.5028C25.3927 49.8565 25.1379 50.1759 24.7842 50.2167L18.3892 50.9421C18.0356 50.9821 17.717 50.7272 17.6762 50.3736C17.6353 50.0191 17.8902 49.7005 18.2439 49.6597L18.2381 49.6654ZM12.7246 52.4499L12.8585 53.6049L13.3568 53.7617L14.3656 53.007C15.1367 52.4328 16.0352 52.0734 16.9917 51.9688C17.9482 51.8643 18.9055 52.0097 19.7803 52.3919L20.9345 52.8967L21.3862 52.6296L21.253 51.4755L22.9578 51.2843L23.1489 52.9898C23.1897 53.3264 23.0272 53.6572 22.7086 53.8312L21.3053 54.6668C21.8444 55.1887 22.1867 55.879 22.2675 56.6215L22.2855 56.7611C22.3255 57.1148 22.0707 57.4342 21.717 57.4742C21.3633 57.5151 21.0448 57.2602 21.0039 56.9057L20.9868 56.7668C20.9345 56.3143 20.7311 55.9018 20.4011 55.589L20.1454 55.3456L19.0615 55.9721C18.9806 56.0301 18.8704 56.0701 18.7487 56.0823L16.192 56.3723C16.0703 56.3838 15.9543 56.3723 15.8383 56.3372L14.667 55.9664L14.4758 56.2621C14.2267 56.6394 14.1222 57.0919 14.1687 57.5445L14.1859 57.6833C14.2267 58.037 13.971 58.3564 13.6174 58.3972C13.2637 58.4373 12.9451 58.1824 12.9043 57.8287L12.8871 57.689C12.8005 56.9465 12.9802 56.1926 13.3862 55.5653L11.8032 55.067C11.4781 54.9682 11.2461 54.6839 11.2061 54.3474L11.015 52.6419L12.7188 52.4499H12.7246ZM137.41 39.9008C137.52 39.5234 137.903 39.3086 138.28 39.4188L141.323 40.2953C141.555 40.0682 141.903 39.9759 142.234 40.0682C142.564 40.1613 142.807 40.4284 142.883 40.7413L145.028 41.3621C145.399 41.4723 145.62 41.8554 145.509 42.2328C145.399 42.6094 145.01 42.8242 144.639 42.7139L137.891 40.7707C137.514 40.6604 137.299 40.2773 137.41 39.9008ZM132.088 37.6374L135.132 38.5138C135.508 38.6241 135.723 39.0072 135.613 39.3837C135.502 39.7611 135.12 39.9759 134.743 39.8657L127.995 37.9224C127.618 37.8122 127.404 37.4291 127.513 37.0517C127.623 36.6743 128.006 36.4603 128.383 36.5698L130.528 37.1914C130.76 36.9643 131.108 36.872 131.439 36.9643C131.769 37.0574 132.012 37.3245 132.088 37.6374ZM140.21 43.735L140.558 42.5171L140.581 42.5285L142.378 43.0447L141.862 44.8434C141.758 45.1971 141.457 45.4585 141.091 45.5107L139.3 45.7599C139.631 46.5089 139.683 47.3494 139.457 48.1327L139.416 48.2781C139.306 48.6555 138.923 48.8695 138.546 48.7592C138.169 48.649 137.954 48.2667 138.065 47.8893L138.106 47.7439C138.239 47.2685 138.204 46.7637 138.007 46.3112L137.851 45.9575L136.523 46.1429C136.389 46.1601 136.262 46.1487 136.135 46.1144L133.433 45.3367C133.305 45.3016 133.189 45.2436 133.114 45.1628L132.059 44.292L131.74 44.5069C131.334 44.7797 131.038 45.1913 130.9 45.6676L130.859 45.8121C130.748 46.1895 130.366 46.4043 129.989 46.2941C129.612 46.1838 129.397 45.8007 129.508 45.4233L129.549 45.2787C129.775 44.4897 130.267 43.8052 130.94 43.347L129.577 42.192C129.264 41.9486 129.148 41.5655 129.253 41.2118L129.768 39.4131L131.566 39.9294L131.218 41.1481L131.653 41.5132L132.987 41.1767C134.001 40.9153 135.062 40.9332 136.065 41.2232C137.068 41.5132 137.972 42.0645 138.697 42.8185L139.648 43.8109L140.21 43.735Z" fill="black"/>
</svg>
