<svg width="168" height="88" viewBox="0 0 168 88" fill="none" xmlns="http://www.w3.org/2000/svg">
<g clip-path="url(#clip0_13_2767)">
<path fill-rule="evenodd" clip-rule="evenodd" d="M107.789 45.2973C107.789 48.2573 106.494 50.8725 104.337 52.6694C108.154 54.4073 110.818 58.093 110.818 62.2157C110.818 67.8552 105.918 72.2265 99.9396 72.0484C92.8461 71.838 89.302 71.7894 82.2085 71.8164L82.2782 71.7462C78.2409 71.6167 75.7209 70.505 75.7209 67.5422C75.7209 65.6588 76.2054 64.2389 76.7156 62.7438C77.2828 61.0816 77.8817 59.3265 77.8817 56.7382V49.7225C77.8817 47.1326 77.2848 45.3919 76.7194 43.7432C76.2375 42.3378 75.7785 40.9993 75.7316 39.2585C75.5118 39.2423 75.292 39.2099 75.0722 39.1613C73.6352 38.8969 71.3994 38.6378 66.7884 38.7889C64.9815 38.8483 63.7161 38.8915 62.3436 38.9508C64.519 41.941 65.7665 46.2111 66.7345 49.5243L66.8634 49.9654C67.5076 51.7864 67.9391 53.0097 68.4372 54.4216C68.6979 55.1604 68.9767 55.9508 69.3137 56.9055C70.2251 59.47 71.4691 61.1945 72.6456 62.8256C73.7047 64.2939 74.7092 65.6864 75.367 67.5476C76.4662 70.6669 73.4905 71.8272 68.8794 71.9621C64.2684 72.097 60.971 71.1418 59.8772 68.0333C59.2051 66.1074 59.1927 64.6493 59.1795 63.1098V63.1096C59.1762 62.7208 59.1728 62.3269 59.1587 61.9189C54.3493 62.1456 51.9419 62.2913 47.1379 62.6259C47.0015 63.8507 47.8861 64.8097 48.7899 65.7895C49.7697 66.8516 50.7721 67.9383 50.5211 69.4149C50.1511 71.5897 47.4274 73.0036 42.9665 73.349C39.7281 73.6027 36.1894 72.5935 37.2134 69.3447C37.7038 67.7848 38.9561 66.4467 40.2912 65.0203C41.7736 63.4364 43.3579 61.7436 44.1139 59.5174C44.9638 57.1458 45.5642 55.4746 46.2103 53.6764L46.2118 53.6722L46.2162 53.6599C46.6607 52.4228 47.1271 51.1245 47.7116 49.4959C48.3866 47.5562 48.4722 45.9901 48.5555 44.465V44.465C48.641 42.9012 48.7241 41.3805 49.438 39.5445C49.9742 38.1629 50.9071 37.1106 52.0492 36.3982C51.9419 36.0421 51.883 35.6535 51.883 35.2218C51.883 33.3384 52.3675 31.8967 52.8776 30.3787C53.4448 28.6909 54.0437 26.9089 54.0437 24.3206V17.3049C54.0437 14.7166 53.4448 13.0049 52.8776 11.3837C52.3675 9.92558 51.883 8.54076 51.883 6.65737C51.883 3.47336 54.6925 2.20515 59.2284 1.91913C62.2524 1.77881 63.7698 1.71405 66.7937 1.61692C71.4048 1.46581 73.6352 1.21756 75.0775 0.904559C81.7581 -0.757605 87.4254 10.1868 80.9164 11.3956C79.0135 11.7467 77.3751 10.2203 75.6333 8.59737C73.8413 6.9278 71.9398 5.15619 69.5282 5.22187C66.7187 5.30282 64.6276 6.53865 64.6276 9.57695V17.823C65.6088 17.7852 66.0967 17.769 67.0779 17.7367C68.8133 17.6798 70.1679 16.8579 71.5057 16.0462C72.8338 15.2403 74.1452 14.4446 75.796 14.4177C78.6108 14.3746 78.8253 16.4037 78.8253 19.2963C78.8253 22.1889 78.6055 24.2828 75.796 24.326C74.1683 24.3525 72.8706 23.6081 71.5615 22.8572C70.2056 22.0795 68.8374 21.2948 67.0779 21.3524C66.0967 21.3848 65.6088 21.401 64.6276 21.4388V31.0556C64.6276 34.0939 66.7187 35.1678 69.5282 35.0923C71.9154 35.0272 73.8068 33.2041 75.5849 31.4902C77.3491 29.7897 79.0017 28.1967 80.9164 28.5353C84.1012 29.102 84.3639 31.9514 83.0396 34.5742H83.0771H85.5059C82.927 31.5844 84.6481 24.8926 88.2672 25.0005C90.7279 25.0732 92.161 27.2027 93.7035 29.4947C95.485 32.1419 97.4123 35.0058 101.237 35.1678C102.449 35.2218 103.441 34.3259 103.398 32.9282C103.263 28.3375 97.7188 25.3772 92.7988 22.7503C91.0444 21.8137 89.3693 20.9194 88.0474 20.0087C87.7742 19.7472 87.5693 19.5503 87.3644 19.3536L87.3636 19.3528C87.1586 19.1559 86.9535 18.959 86.6802 18.6973C78.0211 9.06967 93.586 1.11503 101.527 1.61692C106.322 1.91834 108.313 2.8437 110.064 3.65755C111.072 4.12595 112.001 4.55742 113.338 4.81172C119.36 5.95581 117.547 15.9936 113.049 15.6428C110.647 15.4585 109.203 13.338 107.652 11.0592C105.842 8.39953 103.884 5.52413 100.084 5.25964C98.8779 5.1733 97.9236 6.07993 97.9933 7.51544C98.2158 12.0732 103.443 14.9805 108.185 17.6185L108.185 17.6186C110.069 18.6664 111.876 19.6717 113.263 20.721C113.393 20.8393 113.523 20.9533 113.651 21.0651C114.018 21.3869 114.364 21.6906 114.631 22.027C121.997 29.8089 112.69 36.3605 104.835 38.2331C106.658 40.1327 107.789 42.6314 107.789 45.2973ZM48.0654 58.9454C48.5829 57.4526 48.9988 56.2514 49.3925 55.1143C50.0066 53.341 50.5667 51.7235 51.3736 49.3987C52.3816 46.8785 54.0383 45.0437 55.7648 50.4457C56.6664 52.9816 57.2071 54.4972 57.9705 56.6372L57.9747 56.649L57.9772 56.6561L57.9806 56.6658L57.9842 56.6756L58.5743 58.3302C54.3708 58.5352 52.269 58.654 48.0654 58.9454ZM97.1997 44.9303C97.1997 48.5461 92.7335 51.4063 88.7658 51.3685H88.4763V40.8073C88.4763 39.0696 89.7738 38.2871 90.9266 38.3033C93.5216 38.3356 97.1944 41.8219 97.1944 44.9303H97.1997ZM92.9479 68.2006C90.4977 68.1574 88.4817 66.9864 88.4817 64.3852V55.0544C90.2671 55.0706 91.1625 55.0814 92.9479 55.1084C96.9853 55.1731 100.224 58.1737 100.224 61.7894C100.224 65.4052 96.9799 68.2654 92.9479 68.2006ZM35.0527 63.8995C24.7851 75.3296 5.71366 54.6875 14.1047 44.2828C17.1823 41.4118 22.6297 41.3686 25.643 44.898C26.6938 46.1282 27.1809 47.9283 27.6436 49.638C28.3966 52.4209 29.0849 54.9646 32.0341 54.423C38.1088 53.3113 40.4572 42.8688 33.6158 40.3108C32.8288 40.1536 31.9837 39.888 31.0571 39.5967C28.5178 38.7986 25.3671 37.8084 21.1284 38.3303C11.0003 39.5769 0.368076 48.8699 0.738031 59.7657C1.08118 70.0517 11.4346 76.7651 21.1338 75.5077C26.8493 74.763 34.286 70.9368 37.7871 65.9665C39.5833 63.5649 36.9936 61.7679 35.058 63.8995H35.0527ZM125.046 45.2763C124.46 46.8861 123.842 48.586 123.842 51.1743V58.1899C123.842 60.7817 124.46 62.5773 125.046 64.2774C125.572 65.8057 126.072 67.2568 126.072 69.1397C126.072 72.3237 123.198 73.1709 118.593 72.8687C113.987 72.5719 111.108 71.3523 111.108 68.1683C111.108 66.2849 111.592 64.8964 112.103 63.4345C112.67 61.8091 113.269 60.0928 113.269 57.5045V50.4889C113.269 47.9006 112.67 46.1215 112.103 44.4366C111.592 42.9211 111.108 41.4818 111.108 39.5985C111.108 36.4145 113.987 35.3891 118.593 35.6913C123.198 35.9881 126.072 37.3858 126.072 40.5699C126.072 42.4532 125.572 43.8284 125.046 45.2763ZM167.577 59.7656C167.207 49.199 157.106 39.6362 147.036 38.314C137.053 37.008 126.753 44.5417 126.356 54.8385C125.933 65.7775 137.235 74.4337 147.036 75.486C156.189 76.4682 167.952 70.6561 167.577 59.7602V59.7656ZM147.036 71.8757C143.021 71.3954 139.793 64.4067 139.793 56.0905C139.793 47.7743 143.026 41.5304 147.036 42.0053C150.983 42.4748 154.2 49.566 154.2 57.8121C154.2 66.0581 150.977 72.3506 147.036 71.8757ZM52.2106 85.3157C52.2325 85.2543 52.246 85.2163 52.2583 85.2163C52.3601 85.2163 52.4138 85.783 52.4138 85.8531C52.4138 86.9001 51.6095 87.5099 50.623 87.5099C49.0198 87.5099 48.2746 86.0474 48.2746 84.6173C48.2746 83.0792 49.1378 81.4009 50.8482 81.4009C51.4594 81.4009 52.403 81.6653 52.403 82.4316C52.403 82.8472 52.1242 83.0792 51.6792 83.0792C51.5768 83.0792 51.5614 82.9923 51.5418 82.8812C51.5069 82.6839 51.4584 82.4101 50.8857 82.4101C49.8562 82.4101 49.4219 83.4678 49.4219 84.3528C49.4219 85.7074 50.3388 86.2525 50.95 86.2525C51.8777 86.2525 52.1184 85.5751 52.2106 85.3157ZM59.4483 86.0312C59.3914 86.0312 59.3062 86.0828 59.1923 86.1518C58.9627 86.2909 58.6166 86.5007 58.1507 86.5007C57.561 86.5007 57.2607 86.0905 57.2607 85.5239C57.2607 84.8223 57.7808 84.5579 58.14 84.5579C58.3217 84.5579 58.5011 84.6198 58.6214 84.6614C58.6821 84.6824 58.7279 84.6982 58.7512 84.6982C58.837 84.6982 59.2284 83.5433 59.2284 83.5325C59.2284 83.4138 58.9979 83.3814 58.9121 83.3814C58.5476 83.3814 58.2158 83.5092 57.9624 83.6069C57.8058 83.6672 57.6791 83.716 57.5931 83.716C57.3947 83.716 57.3679 83.4624 57.3679 83.3113C57.3679 82.6313 57.8827 82.3399 58.3706 82.3399C58.8569 82.3399 59.1046 82.5053 59.2517 82.6035C59.3139 82.645 59.358 82.6745 59.3946 82.6745C59.4858 82.6745 59.9362 81.6815 59.9362 81.6221C59.9362 81.4963 59.7335 81.5007 59.6298 81.5029L59.6139 81.5032L59.5984 81.5034H56.821C56.6173 81.5034 56.2313 84.7792 56.2313 85.729C56.2401 86.0663 56.2406 86.3383 56.2411 86.5568C56.2425 87.2716 56.2428 87.4143 56.5262 87.4019H59.7592C59.7704 87.4019 59.7832 87.4024 59.7969 87.4029L59.7974 87.4029C59.8887 87.4062 60.022 87.4111 60.022 87.294C60.022 87.2238 59.5501 86.0258 59.4429 86.0258L59.4483 86.0312ZM66.0377 81.5033C67.346 81.5033 67.6784 82.2265 67.6784 82.8309H67.6677C67.6677 83.6291 67.1437 84.0365 66.8338 84.2773C66.7038 84.3784 66.6114 84.4502 66.6114 84.5092C66.6114 84.5605 66.6949 84.6598 66.8189 84.8074C67.1778 85.2347 67.8768 86.0667 67.8768 87.3101C67.8768 87.3856 67.85 87.4018 67.6999 87.4018H66.9063L66.8926 87.4019L66.8538 87.4026C66.7293 87.4052 66.5632 87.4086 66.5632 87.3101C66.5632 86.5114 66.0002 85.0705 65.5927 85.0705C65.3836 85.0705 64.8689 85.3565 64.8689 85.7559C64.8689 86.1709 65.0243 86.8413 65.0961 87.1509L65.0961 87.1511C65.1176 87.2439 65.1316 87.3043 65.1316 87.3155C65.1316 87.4188 65.009 87.4099 64.9277 87.4041C64.9114 87.4029 64.8967 87.4018 64.885 87.4018H64.07C64.062 87.4018 64.0539 87.4021 64.0458 87.4024H64.0457H64.0455C63.8744 87.4083 63.684 87.4149 63.684 84.8762C63.684 81.4872 64.0304 81.4987 64.1597 81.503L64.1719 81.5033H66.0377ZM64.826 83.8023C64.826 83.9473 64.8366 84.2313 65.0429 84.234C65.2899 84.2299 66.5364 83.6005 66.5364 82.9496C66.5364 82.5017 66.1235 82.3398 65.7429 82.3398C65.0995 82.3398 64.8206 82.5772 64.826 83.8023ZM75.3885 81.5088H74.5735C74.5666 81.5088 74.559 81.5087 74.5509 81.5085L74.5414 81.5082C74.4492 81.5059 74.3054 81.5023 74.3054 81.6221C74.3054 81.6698 74.3368 81.7337 74.3833 81.8284C74.5161 82.0988 74.7719 82.6198 74.7719 83.7268C74.7719 84.995 74.0052 86.0366 73.6352 86.0366C73.4636 86.0366 72.6433 84.995 72.6433 83.7268C72.6433 82.6198 72.8491 82.0988 72.9559 81.8284C72.9934 81.7337 73.0186 81.6698 73.0186 81.6221C73.0186 81.5016 72.8217 81.506 72.7186 81.5083C72.7063 81.5086 72.6953 81.5088 72.6862 81.5088H71.882C71.7533 81.5088 71.5013 81.5466 71.5013 83.2303C71.5013 86.4575 73.4958 87.5746 73.6352 87.5746C74.0588 87.5746 75.796 85.8153 75.796 83.3707C75.796 82.0755 75.5493 81.5034 75.3885 81.5034V81.5088ZM82.4673 86.1518C82.5812 86.0828 82.6664 86.0312 82.7232 86.0312L82.7179 86.0258C82.8251 86.0258 83.297 87.2238 83.297 87.294C83.297 87.4111 83.1637 87.4062 83.0724 87.4029L83.0719 87.4029C83.0582 87.4024 83.0454 87.4019 83.0342 87.4019H79.8011C79.5178 87.4143 79.5175 87.2716 79.516 86.5568V86.5565V86.5563V86.556V86.5557V86.5555V86.5552V86.555V86.5548V86.5545C79.5156 86.3364 79.515 86.0652 79.5062 85.729C79.5062 84.7792 79.8923 81.5034 80.096 81.5034H82.8734L82.8922 81.5032L82.9048 81.5029C83.0085 81.5007 83.2112 81.4963 83.2112 81.6221C83.2112 81.6815 82.7608 82.6745 82.6696 82.6745C82.633 82.6745 82.5889 82.645 82.5267 82.6035C82.3796 82.5053 82.1319 82.3399 81.6456 82.3399C81.1576 82.3399 80.6429 82.6313 80.6429 83.3113C80.6429 83.4624 80.6697 83.716 80.8681 83.716C80.9541 83.716 81.0808 83.6672 81.2374 83.6069C81.4908 83.5092 81.8225 83.3814 82.1871 83.3814C82.2729 83.3814 82.5034 83.4138 82.5034 83.5325C82.5034 83.5433 82.112 84.6982 82.0262 84.6982C82.0029 84.6982 81.9571 84.6824 81.8964 84.6614C81.7761 84.6198 81.5967 84.5579 81.415 84.5579C81.0558 84.5579 80.5357 84.8223 80.5357 85.5239C80.5357 86.0905 80.8359 86.5007 81.4257 86.5007C81.8916 86.5007 82.2377 86.2909 82.4673 86.1518ZM90.7604 85.2163C90.7481 85.2163 90.7346 85.2543 90.7127 85.3157C90.6206 85.5751 90.3799 86.2525 89.4521 86.2525C88.8409 86.2525 87.9241 85.7074 87.9241 84.3528C87.9241 83.4678 88.3584 82.4101 89.3878 82.4101C89.9605 82.4101 90.009 82.6839 90.0439 82.8812C90.0636 82.9923 90.0789 83.0792 90.1813 83.0792C90.6263 83.0792 90.9052 82.8472 90.9052 82.4316C90.9052 81.6653 89.9615 81.4009 89.3503 81.4009C87.6399 81.4009 86.7767 83.0792 86.7767 84.6173C86.7767 86.0474 87.5219 87.5099 89.1251 87.5099C90.1116 87.5099 90.9159 86.9001 90.9159 85.8531C90.9159 85.783 90.8623 85.2163 90.7604 85.2163ZM97.6944 86.1518C97.8083 86.0828 97.8935 86.0312 97.9504 86.0312L97.945 86.0258C98.0522 86.0258 98.5241 87.2238 98.5241 87.294C98.5241 87.4111 98.3908 87.4062 98.2995 87.4029L98.299 87.4029C98.2853 87.4024 98.2726 87.4019 98.2614 87.4019H95.0283C94.7449 87.4143 94.7446 87.2716 94.7432 86.5568V86.5565V86.5563V86.556V86.5557V86.5555V86.5552V86.555V86.5548C94.7427 86.3366 94.7422 86.0653 94.7334 85.729C94.7334 84.7792 95.1194 81.5034 95.3232 81.5034H98.1005C98.1094 81.5034 98.12 81.5032 98.1319 81.5029C98.2356 81.5007 98.4383 81.4963 98.4383 81.6221C98.4383 81.6815 97.9879 82.6745 97.8968 82.6745C97.8601 82.6745 97.816 82.645 97.7539 82.6035C97.6067 82.5053 97.359 82.3399 96.8727 82.3399C96.3848 82.3399 95.87 82.6313 95.87 83.3113C95.87 83.4624 95.8969 83.716 96.0952 83.716C96.1812 83.716 96.3079 83.6672 96.4645 83.6069C96.7179 83.5092 97.0497 83.3814 97.4142 83.3814C97.5 83.3814 97.7305 83.4138 97.7305 83.5325C97.7305 83.5433 97.3391 84.6982 97.2534 84.6982C97.23 84.6982 97.1843 84.6824 97.1235 84.6614C97.0032 84.6198 96.8238 84.5579 96.6421 84.5579C96.2829 84.5579 95.7628 84.8223 95.7628 85.5239C95.7628 86.0905 96.0631 86.5007 96.6529 86.5007C97.1187 86.5007 97.4648 86.2909 97.6944 86.1518ZM106.181 82.8309C106.181 82.2265 105.848 81.5033 104.54 81.5033H102.674L102.662 81.503C102.532 81.4987 102.186 81.4872 102.186 84.8762C102.186 87.4149 102.376 87.4083 102.548 87.4024H102.548H102.548C102.556 87.4021 102.564 87.4018 102.572 87.4018H103.387C103.399 87.4018 103.413 87.4029 103.43 87.4041C103.511 87.4099 103.634 87.4188 103.634 87.3155C103.634 87.3117 103.632 87.3024 103.629 87.2881C103.623 87.26 103.612 87.2127 103.598 87.1511L103.598 87.1509L103.598 87.1509C103.526 86.8413 103.371 86.1709 103.371 85.7559C103.371 85.3565 103.886 85.0705 104.095 85.0705C104.502 85.0705 105.065 86.5114 105.065 87.3101C105.065 87.4086 105.231 87.4052 105.356 87.4026C105.375 87.4022 105.392 87.4018 105.408 87.4018H106.202C106.352 87.4018 106.379 87.3856 106.379 87.3101C106.379 86.0667 105.68 85.2347 105.321 84.8074C105.197 84.6598 105.114 84.5605 105.114 84.5092C105.114 84.4502 105.206 84.3784 105.336 84.2773C105.646 84.0365 106.17 83.6291 106.17 82.8309H106.181ZM103.545 84.234C103.339 84.2313 103.328 83.9473 103.328 83.8023C103.323 82.5772 103.602 82.3398 104.245 82.3398C104.626 82.3398 105.038 82.5017 105.038 82.9496C105.038 83.6005 103.792 84.2299 103.545 84.234ZM111.481 79.7052C111.511 79.7057 111.546 79.7063 111.585 79.7063L111.596 79.7061L111.604 79.7059C111.616 79.7056 111.63 79.705 111.644 79.7043L111.644 79.7043C111.789 79.6978 112.041 79.6865 112.041 79.8682C112.041 80.0409 111.027 81.2173 110.599 81.1741C110.556 81.1741 110.507 81.1687 110.507 81.1256C110.507 81.0853 110.552 81.0117 110.579 80.9661L110.59 80.9476L110.593 80.9421L111.129 79.9329C111.251 79.7013 111.267 79.7015 111.481 79.7052ZM111.43 81.5089H110.668L110.656 81.5086C110.527 81.5043 110.18 81.4928 110.18 84.8818C110.18 87.4205 110.371 87.4139 110.542 87.408L110.557 87.4075L110.566 87.4074H111.569C111.633 87.4074 111.676 87.402 111.676 87.3319C111.676 87.3137 111.664 87.2575 111.643 87.1664L111.643 87.1662C111.556 86.7718 111.322 85.7229 111.322 84.2504C111.322 83.1326 111.572 82.1403 111.664 81.7742L111.664 81.7739C111.672 81.7444 111.678 81.7189 111.683 81.6978C111.692 81.6598 111.698 81.6359 111.698 81.6276C111.698 81.5081 111.559 81.5114 111.464 81.5137C111.451 81.514 111.44 81.5143 111.43 81.5143V81.5089ZM115.526 85.8477C115.526 82.8094 117.617 81.4009 117.928 81.4009L117.933 81.4063C118.164 81.4063 119.981 82.4155 119.981 85.7074C119.981 87.4426 119.724 87.4243 119.519 87.4099C119.501 87.4086 119.484 87.4073 119.467 87.4073H118.679L118.667 87.4075L118.649 87.408C118.568 87.4107 118.41 87.4158 118.41 87.321C118.41 87.2547 118.47 87.1326 118.55 86.9694C118.71 86.6408 118.952 86.1457 118.952 85.6049C118.952 85.2865 118.646 85.1677 118.33 85.1677C117.692 85.1677 116.668 85.2811 116.668 86.0906C116.668 86.4807 116.888 86.8891 117.022 87.1381C117.081 87.2473 117.124 87.3259 117.124 87.3588C117.124 87.4019 117.081 87.4073 116.99 87.4073H115.982C115.622 87.4073 115.526 86.7705 115.526 85.8477ZM117.216 84.348L117.216 84.348C117.501 84.2938 117.956 84.2071 118.384 84.2071V84.2017C118.63 84.2017 118.743 84.1694 118.743 83.9697C118.743 83.5326 118.223 82.6097 117.955 82.6097C117.574 82.6097 116.818 83.7376 116.818 84.2557C116.818 84.342 116.866 84.3906 116.952 84.3906C116.992 84.3906 117.087 84.3727 117.216 84.348ZM24.8977 25.2219C24.8977 25.6968 25.0156 26.1393 25.5572 26.1393C25.7326 26.1393 25.9936 26.0606 26.2994 25.9684C26.7318 25.838 27.2539 25.6806 27.7501 25.6806C28.1231 25.6806 28.6324 25.7906 29.1521 25.903C29.6932 26.0199 30.2456 26.1393 30.6668 26.1393C31.7124 26.1393 33.1278 24.952 33.1278 23.2575C33.1278 22.0702 32.3182 21.1204 32.1842 21.1204C32.0783 21.1204 32.1124 21.239 32.1622 21.4122C32.2007 21.5459 32.2485 21.7121 32.2485 21.8813C32.2485 22.7124 31.707 23.3061 31.069 23.3061C30.8875 23.3061 30.6604 23.2481 30.3936 23.1801C30.014 23.0833 29.5542 22.9661 29.0315 22.9661C28.6874 22.9661 28.478 23.0442 28.3177 23.104C28.2183 23.1411 28.1378 23.1711 28.0557 23.1711C27.9056 23.1711 27.7179 23.0848 27.7179 22.7826C27.7179 22.0638 28.5571 21.4349 29.5701 20.6757C31.1126 19.5197 33.0581 18.0616 33.0581 15.5241C33.0581 13.182 31.3907 11.876 29.0959 11.876C26.8011 11.876 25.1872 13.9105 25.1872 14.7794C25.1872 14.9683 26.2167 16.8301 26.3829 16.8301C26.4793 16.8301 26.6091 16.5903 26.7908 16.2546C27.2149 15.4709 27.922 14.1642 29.1495 14.1642C30.1789 14.1642 30.5971 15.0114 30.5971 15.9612C30.5971 17.0139 29.6837 17.7644 28.5885 18.6642C26.9494 20.011 24.9031 21.6923 24.9031 25.2219H24.8977ZM43.1166 19.0157C43.1166 23.8835 41.0417 26.1393 38.7844 26.1393C36.5271 26.1393 34.4522 23.8835 34.4522 19.0157C34.4522 14.148 36.5271 11.876 38.7844 11.876C41.0417 11.876 43.1166 14.148 43.1166 19.0157ZM40.6556 18.7459C40.6556 14.7254 39.6262 14.1642 38.7844 14.1642C37.9426 14.1642 36.9132 14.7254 36.9132 18.7459C36.9132 22.0702 37.9051 23.1226 38.7844 23.1226C39.6637 23.1226 40.6556 22.0702 40.6556 18.7459ZM125.204 25.2219C125.204 25.6968 125.322 26.1393 125.863 26.1393C126.039 26.1393 126.3 26.0606 126.605 25.9684C127.038 25.838 127.56 25.6806 128.056 25.6806C128.429 25.6806 128.938 25.7906 129.458 25.903C129.999 26.0199 130.552 26.1393 130.973 26.1393C132.018 26.1393 133.434 24.952 133.434 23.2575C133.434 22.0702 132.624 21.1204 132.49 21.1204C132.384 21.1204 132.418 21.239 132.468 21.4122C132.507 21.5459 132.555 21.7121 132.555 21.8813C132.555 22.7124 132.013 23.3061 131.375 23.3061C131.194 23.3061 130.966 23.2481 130.7 23.1801C130.32 23.0833 129.86 22.9661 129.338 22.9661C128.993 22.9661 128.784 23.0442 128.624 23.104C128.524 23.1411 128.444 23.1711 128.362 23.1711C128.212 23.1711 128.024 23.0848 128.024 22.7826C128.024 22.0638 128.863 21.4349 129.876 20.6757C131.419 19.5197 133.364 18.0616 133.364 15.5241C133.364 13.182 131.697 11.876 129.402 11.876C127.107 11.876 125.493 13.9105 125.493 14.7794C125.493 14.9683 126.523 16.8301 126.689 16.8301C126.785 16.8301 126.915 16.5904 127.097 16.2547L127.097 16.2546C127.521 15.4709 128.228 14.1642 129.456 14.1642C130.485 14.1642 130.903 15.0114 130.903 15.9612C130.903 17.0139 129.99 17.7644 128.895 18.6642C127.255 20.011 125.209 21.6923 125.209 25.2219H125.204ZM136.263 22.3516C135.873 22.4501 135.56 22.5289 135.402 22.5289L135.407 22.5343C134.635 22.5343 134.565 21.6871 134.565 20.9045C134.565 17.7475 138.544 12.135 139.535 12.135H141.391C141.525 12.135 141.98 12.135 141.98 12.4588C141.98 12.5322 141.697 12.825 141.268 13.2684C139.93 14.6502 137.176 17.4946 137.176 19.7173C137.176 19.9224 137.262 19.9709 137.546 19.9709C137.916 19.9709 139.283 19.6957 139.45 18.9348C140.125 15.9828 141.557 14.7794 142.114 14.7794C142.211 14.7794 142.281 14.8603 142.281 14.9467C142.281 14.9819 142.251 15.0784 142.206 15.2262C142.057 15.7117 141.739 16.7518 141.739 18.0012C141.739 19.3395 141.975 19.4259 143.053 19.4259C143.113 19.4259 143.168 19.4235 143.217 19.4214C143.67 19.4023 143.696 19.4012 143.696 21.3417C143.696 21.8166 143.664 22.0055 143.476 22.0055C143.324 22.0055 143.127 21.9682 142.919 21.9288C142.686 21.8848 142.439 21.8382 142.227 21.8382C141.637 21.8382 141.401 21.9893 141.401 23.5327C141.401 23.8921 141.417 24.1877 141.433 24.4996C141.452 24.8482 141.471 25.2171 141.471 25.7183C141.471 26.0098 140.023 26.1447 139.348 26.1447C138.946 26.1447 138.828 26.0044 138.844 25.4971C138.844 25.0062 138.91 24.5343 138.979 24.0471C139.052 23.5273 139.128 22.9901 139.128 22.394C139.128 22.0163 138.828 21.9677 138.522 21.9677C137.785 21.9677 136.915 22.1871 136.263 22.3516Z" fill="black"/>
</g>
<defs>
<clipPath id="clip0_13_2767">
<rect width="166.855" height="86.8427" fill="white" transform="translate(0.727295 0.731934)"/>
</clipPath>
</defs>
</svg>
