<svg width="87" height="42" viewBox="0 0 87 42" fill="none" xmlns="http://www.w3.org/2000/svg">
<path fill-rule="evenodd" clip-rule="evenodd" d="M24.6295 5.1711C24.6295 2.51724 26.8129 0.365723 29.5068 0.365723C32.2007 0.365723 34.3849 2.51724 34.3849 5.1711C34.3849 7.82415 32.2007 9.97567 29.5068 9.97567C26.8129 9.97567 24.6295 7.82415 24.6295 5.1711ZM24.9215 13.0937C24.9215 13.092 24.9231 13.0912 24.9247 13.0912H34.0895C34.092 13.0912 34.0928 13.092 34.0928 13.0937V40.4483C34.0928 40.4499 34.092 40.4508 34.0895 40.4508H24.9247C24.9231 40.4508 24.9215 40.4499 24.9215 40.4483V13.0937ZM81.6374 9.97567C84.3313 9.97567 86.5155 7.82415 86.5155 5.17029C86.5155 2.51724 84.3313 0.365723 81.6374 0.365723C78.9435 0.365723 76.7601 2.51724 76.7601 5.17029C76.7601 7.82415 78.9435 9.97567 81.6374 9.97567ZM86.223 40.4513H77.0526V13.0909H86.223V40.4513ZM38.0202 13.0912C38.0186 13.0912 38.0169 13.092 38.0169 13.0937V40.4483C38.0169 40.4488 38.0171 40.4492 38.0173 40.4495C38.0175 40.4498 38.0177 40.45 38.018 40.4502C38.0186 40.4506 38.0194 40.4508 38.0202 40.4508H47.185C47.1874 40.4508 47.1882 40.4499 47.1882 40.4483V13.0937C47.1882 13.092 47.1874 13.0912 47.185 13.0912H38.0202ZM47.1873 2.6463H47.1881V4.45639V6.26647V8.07574H47.1873H45.3511V9.88501L45.3503 9.88582H43.5132H41.677L41.6762 9.88501L41.6754 9.88582H39.8391V8.07574H39.8383H38.0013V6.26566V4.45557L38.0021 2.6463H39.8383H39.8391V2.64549V0.837038V0.836221H41.6754H41.677H43.514H45.3511V2.64549V2.6463H47.1873ZM12.9742 40.4513H22.3669L17.8204 31.0226C20.0634 29.1586 21.4904 26.3708 21.4904 23.253C21.4904 17.7378 17.0298 13.2526 11.4696 13.0982V13.0909H0.860718V40.4513H9.45207V33.2705C9.46424 33.2721 9.47606 33.2744 9.48798 33.2767L9.50762 33.2803L12.9742 40.4513ZM64.5321 13.0901H74.753L74.7645 13.1056L66.9238 37.9085C66.2025 39.7921 64.372 41.0394 62.3283 41.0394C60.2724 41.0394 58.4721 39.8174 57.7394 37.9248L49.7876 13.1056L49.799 13.0901H60.0616L62.2973 20.127L64.5321 13.0901Z" fill="black"/>
</svg>
