<svg width="148" height="40" viewBox="0 0 148 40" fill="none" xmlns="http://www.w3.org/2000/svg">
<path d="M45.2053 12.3472H41.6587V18.8949C41.6587 19.4405 41.7681 19.822 42.0957 20.0948C42.3685 20.3676 42.7499 20.477 43.2956 20.5318C43.8412 20.5865 44.4963 20.5318 45.26 20.5318V24.2418C42.4771 24.5693 40.5127 24.2965 39.3675 23.4781C38.2215 22.6596 37.6758 21.1313 37.6758 18.9496V12.4019H34.9476V8.47299H37.6758V5.30861L41.7134 4.1087V8.52772H45.26V12.3472H45.2053Z" fill="black"/>
<path d="M52.4072 11.2075C52.7895 10.2257 53.3891 9.46192 54.2623 8.91547C55.1354 8.42456 56.1173 8.15174 57.1538 8.15174V12.681C55.8992 12.5168 54.8079 12.7897 53.8261 13.4448C52.8434 14.099 52.3525 15.1903 52.3525 16.6639V24.1934H48.315V8.47929H52.3525V11.2075H52.4072Z" fill="black"/>
<path d="M70.905 8.47596H74.9426V24.19H70.905V22.335C69.7043 23.8625 67.9587 24.6262 65.7762 24.6262C63.7031 24.6262 61.902 23.8078 60.3745 22.2256C58.847 20.6434 58.1372 18.6789 58.1372 16.333C58.1372 13.9871 58.901 12.0226 60.3745 10.4404C61.8481 8.85824 63.6483 8.03978 65.7762 8.03978C67.9587 8.03978 69.7043 8.80351 70.905 10.331V8.47596ZM63.4302 19.5521C64.2487 20.3706 65.2852 20.8067 66.5399 20.8067C67.7953 20.8067 68.8319 20.3706 69.6504 19.5521C70.4688 18.7336 70.905 17.6424 70.905 16.333C70.905 15.0236 70.4688 13.9871 69.6504 13.1139C68.8319 12.2954 67.7953 11.8593 66.5399 11.8593C65.2852 11.8593 64.2487 12.2954 63.4302 13.1139C62.6118 13.9324 62.1748 15.0236 62.1748 16.333C62.1748 17.6424 62.6118 18.7336 63.4302 19.5521Z" fill="black"/>
<path d="M87.3827 7.91729C89.1282 7.91729 90.5471 8.51765 91.6384 9.66366C92.7844 10.8088 93.33 12.391 93.33 14.465V24.1223H89.2924V14.9559C89.2924 13.9193 89.0196 13.1009 88.4192 12.5552C87.8736 12.0096 87.1099 11.7368 86.1281 11.7368C85.0907 11.7368 84.2183 12.0643 83.6179 12.7186C82.9629 13.3737 82.69 14.3555 82.69 15.6649V24.177H78.6525V8.46293H82.69V10.2093C83.6727 8.62629 85.2549 7.91729 87.3827 7.91729Z" fill="black"/>
<path d="M100.532 12.9526C100.532 13.3888 100.805 13.7163 101.351 13.9892C101.896 14.262 102.605 14.4801 103.369 14.6982C104.188 14.9171 104.952 15.1352 105.771 15.4627C106.589 15.7903 107.243 16.2812 107.789 16.9902C108.335 17.6992 108.607 18.5724 108.607 19.6636C108.607 21.3005 108.007 22.5013 106.807 23.3737C105.606 24.2468 104.079 24.6838 102.279 24.6838C99.0587 24.6838 96.8223 23.4284 95.6763 20.9191L99.2229 18.9546C99.6591 20.3187 100.696 21.0277 102.333 21.0277C103.806 21.0277 104.515 20.5915 104.515 19.6636C104.515 19.2274 104.242 18.8999 103.697 18.6271C103.151 18.3543 102.442 18.1362 101.678 17.9181C100.86 17.6992 100.096 17.4264 99.2777 17.1535C98.4592 16.8268 97.8041 16.3351 97.2585 15.6808C96.7128 15.0257 96.44 14.1525 96.44 13.116C96.44 11.5885 96.9856 10.3339 98.1316 9.46068C99.2777 8.58749 100.696 8.09658 102.387 8.09658C103.642 8.09658 104.843 8.3694 105.879 8.96976C106.916 9.57013 107.734 10.3878 108.389 11.4251L104.952 13.3349C104.46 12.2436 103.588 11.7519 102.442 11.7519C101.896 11.7519 101.46 11.8613 101.133 12.0794C100.75 12.2436 100.532 12.5703 100.532 12.9526Z" fill="black"/>
<path d="M119.574 5.64046C117.337 5.4771 116.246 6.34947 116.246 8.31393V8.47811H119.574V12.4062H116.246V24.2461H112.208V12.4062H109.917V8.47811H112.208V8.31393C112.208 6.07665 112.809 4.38582 114.063 3.23981C115.319 2.09381 117.174 1.6029 119.629 1.71235V5.64046H119.574Z" fill="black"/>
<path d="M124.268 18.0268C124.813 19.9913 126.287 20.9731 128.688 20.9731C130.215 20.9731 131.416 20.4274 132.234 19.3909L135.507 21.3006C133.98 23.5379 131.689 24.6831 128.633 24.6831C126.014 24.6831 123.94 23.9194 122.358 22.3372C120.776 20.755 120.012 18.7905 120.012 16.3899C120.012 14.044 120.776 12.0248 122.358 10.4426C123.94 8.8604 125.905 8.04194 128.36 8.04194C130.651 8.04194 132.561 8.8604 134.089 10.4426C135.617 12.0248 136.326 13.9892 136.326 16.3352C136.326 16.8808 136.272 17.4264 136.162 18.0268H124.268ZM124.213 14.8624H132.234C132.015 13.7711 131.524 13.0074 130.815 12.4618C130.106 11.9161 129.287 11.6972 128.36 11.6972C127.269 11.6972 126.341 11.97 125.632 12.5157C124.923 13.0613 124.431 13.8798 124.213 14.8624Z" fill="black"/>
<path d="M143.201 11.2075C143.583 10.2257 144.182 9.46192 145.056 8.91547C145.929 8.42456 146.911 8.15174 147.947 8.15174V12.681C146.693 12.5168 145.601 12.7897 144.619 13.4448C143.637 14.099 143.146 15.1903 143.146 16.6639V24.1934H139.108V8.47929H143.146V11.2075H143.201Z" fill="black"/>
<path d="M113.312 37.3604C112.842 37.3604 112.416 37.2648 112.033 37.0736C111.659 36.8735 111.359 36.5999 111.133 36.2519C110.907 35.904 110.781 35.5078 110.755 35.0651V33.1994C110.781 32.7477 110.907 32.3516 111.133 32.0126C111.368 31.6646 111.672 31.3951 112.046 31.2039C112.429 31.0038 112.851 30.9042 113.312 30.9042C113.877 30.9042 114.386 31.0471 114.837 31.3346C115.299 31.6213 115.659 32.0085 115.921 32.4953C116.181 32.9822 116.312 33.5303 116.312 34.1388C116.312 34.7473 116.181 35.2954 115.921 35.7822C115.659 36.2691 115.299 36.6562 114.837 36.943C114.386 37.2215 113.877 37.3604 113.312 37.3604ZM113.116 36.2519C113.508 36.2519 113.851 36.1604 114.146 35.9775C114.442 35.7953 114.677 35.547 114.851 35.2342C115.025 34.9123 115.112 34.5431 115.112 34.1257C115.112 33.7165 115.025 33.3514 114.851 33.0295C114.677 32.7085 114.442 32.4602 114.146 32.2862C113.851 32.1041 113.512 32.0126 113.129 32.0126C112.737 32.0126 112.394 32.1041 112.099 32.2862C111.803 32.4602 111.573 32.7085 111.408 33.0295C111.242 33.3514 111.159 33.7214 111.159 34.1388C111.159 34.5472 111.238 34.9123 111.395 35.2342C111.56 35.547 111.79 35.7953 112.086 35.9775C112.39 36.1604 112.733 36.2519 113.116 36.2519ZM110.051 37.2297V27.917H111.225V32.5476L111.003 34.0473L111.225 35.5601V37.2297H110.051Z" fill="black"/>
<path d="M119.435 37.2811L116.748 31.0332H118.052L120.048 35.9244H119.631L121.73 31.0332H123.035L120.139 37.2811H119.435ZM117.661 39.8247L119.487 36.0812L120.139 37.2811L118.965 39.8247H117.661Z" fill="black"/>
<path d="M126.827 37.2327V31.0371H128V37.2327H126.827ZM127.414 29.7979C127.196 29.7979 127.018 29.7285 126.879 29.5896C126.74 29.4418 126.67 29.2588 126.67 29.0415C126.67 28.8324 126.74 28.6585 126.879 28.5196C127.018 28.3718 127.196 28.2982 127.414 28.2982C127.631 28.2982 127.809 28.3718 127.948 28.5196C128.088 28.6585 128.157 28.8324 128.157 29.0415C128.157 29.2588 128.088 29.4418 127.948 29.5896C127.809 29.7285 127.631 29.7979 127.414 29.7979Z" fill="black"/>
<path d="M132.561 37.3665C131.952 37.3665 131.4 37.2227 130.904 36.936C130.418 36.6493 130.03 36.2621 129.744 35.7753C129.465 35.2795 129.326 34.7314 129.326 34.1318C129.326 33.5233 129.465 32.9752 129.744 32.4884C130.03 32.0016 130.418 31.6185 130.904 31.3407C131.4 31.0532 131.952 30.9103 132.561 30.9103C133.04 30.9103 133.482 31.0009 133.891 31.1839C134.3 31.3579 134.652 31.6144 134.948 31.9534L134.165 32.7359C133.974 32.5096 133.739 32.3405 133.461 32.227C133.191 32.1053 132.892 32.0448 132.561 32.0448C132.17 32.0448 131.822 32.1363 131.517 32.3185C131.213 32.4925 130.974 32.7359 130.8 33.0487C130.626 33.3624 130.539 33.7226 130.539 34.1318C130.539 34.5402 130.626 34.9013 130.8 35.2141C130.974 35.527 131.213 35.7753 131.517 35.9574C131.822 36.1404 132.17 36.2319 132.561 36.2319C132.892 36.2319 133.191 36.1755 133.461 36.062C133.739 35.9403 133.978 35.7663 134.178 35.54L134.948 36.3234C134.661 36.6534 134.309 36.9099 133.891 37.0928C133.482 37.275 133.04 37.3665 132.561 37.3665Z" fill="black"/>
<path d="M138.619 37.3665C138.054 37.3665 137.541 37.2276 137.08 36.9491C136.62 36.6624 136.254 36.2752 135.984 35.7883C135.724 35.3015 135.593 34.7534 135.593 34.1449C135.593 33.5364 135.724 32.9883 135.984 32.5014C136.254 32.0146 136.615 31.6274 137.067 31.3407C137.528 31.0532 138.045 30.9103 138.619 30.9103C139.089 30.9103 139.506 31.0099 139.871 31.21C140.245 31.4012 140.545 31.6707 140.772 32.0187C140.998 32.3577 141.124 32.7538 141.15 33.2056V35.0712C141.124 35.5139 140.998 35.9101 140.772 36.258C140.554 36.606 140.259 36.8796 139.884 37.0797C139.519 37.2709 139.097 37.3665 138.619 37.3665ZM138.815 36.258C139.398 36.258 139.867 36.062 140.223 35.6707C140.58 35.2705 140.758 34.7624 140.758 34.1449C140.758 33.7185 140.676 33.3493 140.51 33.0357C140.354 32.7146 140.128 32.4663 139.832 32.2923C139.536 32.1102 139.193 32.0187 138.802 32.0187C138.41 32.0187 138.063 32.1102 137.758 32.2923C137.463 32.4753 137.228 32.7277 137.054 33.0487C136.889 33.3624 136.806 33.7226 136.806 34.1318C136.806 34.5492 136.889 34.9184 137.054 35.2403C137.228 35.5531 137.467 35.8014 137.771 35.9836C138.076 36.1665 138.423 36.258 138.815 36.258ZM140.68 37.2358V35.5662L140.901 34.0534L140.68 32.5537V31.0401H141.867V37.2358H140.68Z" fill="black"/>
<path d="M143.576 37.2354V31.0397H144.75V37.2354H143.576ZM144.75 33.701L144.306 33.5049C144.306 32.7134 144.489 32.0828 144.855 31.614C145.22 31.1443 145.746 30.909 146.433 30.909C146.745 30.909 147.028 30.9662 147.28 31.0789C147.533 31.1835 147.767 31.3616 147.985 31.614L147.215 32.4096C147.084 32.2699 146.941 32.1702 146.785 32.109C146.629 32.0485 146.446 32.0183 146.237 32.0183C145.802 32.0183 145.446 32.1572 145.167 32.4357C144.889 32.7134 144.75 33.1357 144.75 33.701Z" fill="black"/>
<path d="M16.1139 9.7386L14.3503 7.66942L10.3712 2.99641C9.36679 1.83313 7.60532 1.6922 6.44204 2.69659C5.27947 3.70057 5.13783 5.46245 6.14222 6.62573L10.1213 11.2987L7.75775 13.3284C6.59518 14.3324 6.45425 16.0939 7.47956 17.2941C8.48354 18.4567 10.2447 18.5988 11.4457 17.5731L15.8773 13.7794C17.0196 12.738 17.1392 10.9388 16.1139 9.7386Z" fill="black" fill-opacity="0.25"/>
<path d="M13.045 13.0606L15.3613 15.7566L20.5096 21.7962C21.8215 23.3289 24.0851 23.4832 25.6174 22.1706C27.1508 20.8583 27.3044 18.5951 25.9925 17.0624L20.8443 11.0227L23.91 8.3978C25.4426 7.08589 25.634 4.80134 24.322 3.26865C23.0097 1.73525 20.7252 1.54394 19.1922 2.85696L13.4678 7.77617C11.8818 9.16799 11.7118 11.4902 13.045 13.0606Z" fill="black" fill-opacity="0.25"/>
</svg>
