<svg width="98" height="43" viewBox="0 0 98 43" fill="none" xmlns="http://www.w3.org/2000/svg">
<path fill-rule="evenodd" clip-rule="evenodd" d="M10.3408 4.91137C10.3408 7.58483 8.16234 9.66447 5.58771 9.66447C2.91424 9.66447 0.835419 7.486 0.835419 4.91137C0.835419 2.33674 3.01307 0.158265 5.58771 0.158265C8.16234 0.0594291 10.3408 2.2379 10.3408 4.91137ZM88.4658 28.2827V35.9069V36.0058C88.4658 39.0754 85.7923 41.5512 82.525 41.5512H79.5542V12.9346H88.3669V17.8861C89.5546 14.123 93.5154 12.3407 97.1797 12.3407V21.8461C93.7139 21.3511 88.4658 22.7373 88.4658 28.2827ZM29.7477 42.246C35.2931 42.246 40.0454 39.374 42.5212 34.9182L35.0946 30.7598C34.2035 32.7398 32.1239 33.9282 29.6489 33.9282C25.9854 33.9282 23.312 31.2548 23.312 27.294C23.312 23.3332 25.9854 20.6597 29.6489 20.6597C32.1239 20.6597 34.1047 21.8482 35.0946 23.8282L42.5212 19.4713C40.0454 15.0155 35.1935 12.1443 29.7477 12.1443C21.1335 12.1443 14.7957 18.6789 14.7957 27.1952C14.7957 35.7105 21.1335 42.246 29.7477 42.246ZM57.4734 42.3433C61.3353 42.3433 64.2065 41.056 66.0876 38.8775V41.551H74.8015V12.9352H66.0876V15.6086C64.2065 13.4302 61.3353 12.1428 57.4734 12.1428C49.8491 12.1428 43.6111 18.6783 43.6111 27.1936C43.5122 35.8079 49.8491 42.3433 57.4734 42.3433ZM59.1569 34.2241C55.1961 34.2241 52.2253 31.5506 52.2253 27.2925C52.2253 23.0352 55.0972 20.3617 59.1569 20.3617C63.1176 20.3617 66.0876 23.0352 66.0876 27.2925C66.0876 31.5506 63.2165 34.2241 59.1569 34.2241ZM6.18119 12.9366H1.13157V36.0062C1.13157 39.0758 3.60737 41.5508 6.67618 41.5508H9.9443V16.6997C9.9443 14.6201 8.26082 12.9366 6.18119 12.9366Z" fill="black"/>
</svg>
