<svg width="181" height="29" viewBox="0 0 181 29" fill="none" xmlns="http://www.w3.org/2000/svg">
<path fill-rule="evenodd" clip-rule="evenodd" d="M22.1908 24.7696C18.9156 26.6605 15.023 27.1734 11.3699 26.1945C7.71675 25.2157 4.60209 22.8252 2.71115 19.55C0.820197 16.2748 0.307738 12.3829 1.28659 8.72976C2.26545 5.07662 4.65549 1.96126 7.93071 0.0703125L15.0608 12.4199L22.1908 24.7696ZM128.951 26.3344H136.035V15.3824C136.035 11.0018 138.272 8.81107 142.001 8.81107C145.123 8.81107 146.987 10.256 146.987 13.5184V26.3344H154.071V11.9338C154.071 5.96852 150.483 2.93891 144.936 2.93891C139.717 2.93891 137.014 5.0357 135.848 9.41715H135.755L136.035 3.31138H128.951V26.3344ZM77.1605 26.3349H84.2448V16.408C84.2448 11.2816 86.3416 8.81156 89.3712 8.81156C91.6077 8.81156 92.9595 10.1634 92.9595 13.5189C92.9595 14.2173 92.913 15.3829 92.8198 16.5011H99.2515C99.3446 15.2898 99.4843 13.2387 99.4843 11.9343C99.4843 5.96901 96.7349 2.9394 92.0275 2.9394C87.5072 2.9394 85.0371 5.5026 84.0578 9.88323H83.9646L84.2448 3.31187H77.1605V26.3349ZM61.5152 26.7109C69.1117 26.7109 74.0518 22.3302 74.0518 14.8734C74.0518 7.3701 69.1117 2.94209 61.5152 2.94209C53.9187 2.94209 48.9786 7.3701 48.9786 14.8734C48.9786 22.3302 53.9187 26.7109 61.5152 26.7109ZM61.5152 21.3043C58.0666 21.3043 56.0621 18.9282 56.0621 14.8734C56.0621 10.7722 58.0666 8.34865 61.5152 8.34865C64.9638 8.34865 66.9683 10.7722 66.9683 14.8734C66.9683 18.9282 64.9638 21.3043 61.5152 21.3043ZM118.823 21.6774C118.123 24.9398 115.514 26.7106 111.319 26.7106C105.96 26.7106 102.231 24.3802 102.231 19.7202C102.231 15.9449 104.934 13.1954 111.04 13.1954H118.543V11.6574C118.543 8.86137 116.959 7.74232 113.696 7.74232C111.04 7.74232 109.502 8.86137 109.502 10.7254C109.502 10.865 109.502 11.2375 109.548 11.7039H103.024C102.977 11.3315 102.93 10.8185 102.93 10.3521C102.93 5.69209 107.032 2.94184 114.022 2.94184C121.339 2.94184 125.627 6.20424 125.627 12.3566V26.3382H118.543C118.683 25.1725 118.869 23.0758 118.869 21.6774H118.823ZM108.616 19.2073C108.616 20.9782 110.154 21.9101 112.718 21.9101C116.399 21.9101 118.543 20.2789 118.543 17.483V17.0166H111.692C109.781 17.0166 108.616 17.902 108.616 19.2073ZM173.708 21.6769C173.009 24.9393 170.399 26.7101 166.205 26.7101C160.845 26.7101 157.117 24.3797 157.117 19.7198C157.117 15.9444 159.819 13.195 165.925 13.195H173.429V11.6569C173.429 8.86089 171.844 7.74184 168.582 7.74184C165.925 7.74184 164.387 8.86089 164.387 10.7249C164.387 10.8646 164.387 11.237 164.434 11.7034H157.909C157.862 11.331 157.816 10.818 157.816 10.3516C157.816 5.6916 161.917 2.94136 168.907 2.94136C176.225 2.94136 180.512 6.20375 180.512 12.3561V26.3377H173.429C173.568 25.1721 173.755 23.0753 173.755 21.6769H173.708ZM163.502 19.2068C163.502 20.9777 165.04 21.9097 167.603 21.9097C171.284 21.9097 173.429 20.2785 173.429 17.4825V17.0161H166.577C164.667 17.0161 163.502 17.9015 163.502 19.2068ZM23.9692 2.6896C20.3161 1.71074 16.4235 2.22361 13.1483 4.11456L20.2783 16.4642L27.4084 28.8138C30.6836 26.9229 33.0737 23.8075 34.0525 20.1544C35.0314 16.5012 34.5189 12.6094 32.628 9.33413C30.737 6.05891 27.6224 3.66846 23.9692 2.6896Z" fill="black"/>
</svg>
