<svg width="177" height="39" viewBox="0 0 177 39" fill="none" xmlns="http://www.w3.org/2000/svg">
<path fill-rule="evenodd" clip-rule="evenodd" d="M33.3214 21.2343C33.3141 18.7781 33.3116 17.6901 33.3133 16.3276C33.3133 16.2492 33.3141 16.1912 33.3165 16.067V15.9371L33.3149 15.8032C33.3125 15.3948 33.2144 15.0313 33.0347 14.7315C32.8485 14.4219 32.5749 14.181 32.2269 14.0241C32.1403 13.9841 32.0603 13.9531 31.9867 13.9302C31.147 13.6688 30.3163 13.9384 29.9226 14.5943C29.8842 14.6596 29.8442 14.738 29.7944 14.8491C29.6204 15.2347 29.5199 15.6986 29.5167 16.1177C29.5138 16.5459 29.5117 16.9133 29.5084 17.4966L29.5036 18.3411C29.4889 18.573 29.4807 18.7838 29.4791 18.9806L29.4742 20.1079L29.4693 21.2351C29.4579 24.1144 29.4619 26.4513 29.4873 28.6959C29.5118 30.9536 29.3852 32.3537 28.8346 33.6165C31.3308 33.3028 33.2839 31.1864 33.31 28.4999C33.3296 26.4521 33.3304 24.6265 33.3214 21.2343ZM23.7719 35.1538C23.7494 35.1352 23.7249 35.1152 23.6984 35.0936L23.6563 35.0593L23.6061 35.0182C22.7803 34.3402 22.3302 33.9359 21.881 33.4254C20.5937 31.96 20.0946 30.1572 20.1028 27.7983C20.124 22.4358 20.1216 18.1442 20.1011 8.49097C20.0954 5.52835 18.416 3.41522 15.7385 2.96352C14.3687 2.73154 13.1361 2.97414 12.0767 3.66517L12.3716 3.8958L12.373 3.89692C12.4797 3.98036 12.5532 4.03782 12.5455 4.03193C13.3934 4.69519 13.9088 5.13791 14.4038 5.65904C15.6609 6.98148 16.2416 8.70743 16.2441 10.7413C16.2449 11.9478 16.2457 12.9133 16.2482 15.0836C16.2547 22.6841 16.2588 26.0609 16.2686 30.283C16.2743 32.5448 17.2904 34.154 19.339 35.1799C20.7007 35.8619 22.4928 35.8048 23.7719 35.1538ZM9.9644 3.9688C9.9783 4.00444 9.99473 4.0393 10.0137 4.07307C9.93069 4.06934 9.84984 4.07164 9.77158 4.08012C9.83762 4.04576 9.90211 4.00854 9.9644 3.9688ZM26.1252 34.9561C26.0669 34.9807 26.0095 35.0072 25.9534 35.0355C25.9472 35.0069 25.9395 34.9786 25.9304 34.9506C25.9966 34.9568 26.0616 34.9586 26.1252 34.9561ZM6.87022 9.59859C6.86205 7.72969 6.93883 6.58777 7.28353 5.5504C5.05278 5.88448 3.13896 7.98944 3.05973 10.4995C3.03277 11.3368 3.03033 12.0948 3.04013 13.4793L3.04176 13.695C3.04666 14.3427 3.04829 14.6302 3.04829 14.9913L3.04852 15.1819V15.182V15.1821V15.1821C3.04925 15.8062 3.04993 16.3775 3.04993 17.53C3.05074 21.124 3.05319 22.7209 3.06708 24.7156C3.0728 25.6476 3.5727 26.3345 4.39524 26.5902C5.23657 26.8507 6.06646 26.5812 6.46099 25.9212C6.70767 25.5095 6.86205 24.9279 6.8645 24.4019C6.8988 20.2116 6.89717 16.2059 6.87103 9.77992V9.77977C6.87103 9.68925 6.87103 9.6892 6.87022 9.59859ZM36.0635 28.5816C36.0121 33.3666 31.8912 36.9475 27.1087 36.4166C26.9861 36.4027 26.7207 36.4893 26.5647 36.6093C23.9378 38.6245 21.0536 39.0075 18.1497 37.6524C15.2026 36.2785 13.5878 33.7929 13.5257 30.5281C13.4873 28.5612 13.4832 26.9888 13.4947 23.4552C13.5004 21.8485 13.502 21.1346 13.5004 20.2426C13.4987 19.4585 13.4996 18.832 13.502 17.4221C13.5077 13.9686 13.5028 12.4354 13.4693 10.5216C13.4318 8.4338 12.0995 6.54611 10.2127 5.81996C10.1726 5.96453 10.1244 6.13035 10.0485 6.38356C9.77403 7.30984 9.68173 7.71336 9.66947 8.17323C9.62536 9.96861 9.61965 11.5925 9.63272 14.5387L9.63435 15.0076C9.64088 16.3725 9.64252 16.9794 9.64252 17.7374C9.64321 18.2244 9.6445 18.6285 9.64688 19.374L9.64689 19.3757L9.6469 19.3774L9.6469 19.3792L9.64691 19.3808L9.64691 19.3826L9.64692 19.3842L9.64692 19.3861L9.64823 19.7966C9.65069 20.5105 9.6515 20.8283 9.65232 21.2253C9.65559 22.6122 9.65232 23.6839 9.63925 24.7254C9.60984 27.3604 7.58249 29.4237 5.00377 29.4442C2.48714 29.4662 0.333988 27.4274 0.311934 24.9222L0.310298 24.7482C0.289061 22.4334 0.280894 21.4025 0.273542 20.1152C0.250671 16.3586 0.260472 13.3707 0.315199 10.4857C0.400966 5.9049 4.11098 2.51508 8.74074 2.68661C8.83223 2.68988 9.0544 2.59595 9.16386 2.48976C10.9094 0.823441 12.9482 0.0164146 15.2615 0.138939C19.5718 0.362751 22.835 3.82119 22.8514 8.18221C22.8628 11.2257 22.8685 14.4056 22.8694 18.154C22.8702 20.1683 22.8702 21.7791 22.8685 25.405C22.8685 26.7642 22.8685 27.3678 22.8677 28.1234C22.8677 30.4709 24.0374 32.397 25.9226 33.2301C26.4748 32.2802 26.7346 31.2542 26.7288 30.0919C26.7158 27.4928 26.7133 24.8724 26.7174 21.2302C26.7179 21.0297 26.7181 20.854 26.7184 20.6116V20.6101L26.719 20.0605C26.719 19.526 26.7197 19.2622 26.7205 18.9744L26.7207 18.8908C26.7207 18.7078 26.7239 18.5232 26.7305 18.3696C26.7305 17.4254 26.7346 16.5931 26.7436 15.7958C26.7738 13.1599 28.8003 11.0958 31.3782 11.0754C32.7211 11.0632 34.0068 11.6472 34.9028 12.6413C35.6298 13.4491 36.0496 14.4734 36.0701 15.5753L36.0711 16.0982C36.0722 16.6868 36.0734 17.3104 36.0766 18.4015L36.0798 19.7505L36.0831 21.2302C36.0905 24.0597 36.0856 26.3647 36.0635 28.5816ZM60.565 13.0198C62.5336 13.0198 64.1125 13.6552 65.3026 14.927C66.4919 16.1988 67.0865 18.0138 67.0865 20.372V30.2466H63.5799V20.7412C63.5799 19.2235 63.1903 18.0547 62.411 17.2337C61.6318 16.3932 60.565 15.9726 59.2115 15.9726C57.8172 15.9726 56.699 16.4243 55.8585 17.326C55.018 18.2082 54.5973 19.5102 54.5973 21.2329V30.2466H51.0907V13.2967H54.5973V17.0189C55.0482 15.7471 55.807 14.7629 56.8738 14.0653C57.9397 13.3685 59.1707 13.0198 60.565 13.0198ZM83.3694 14.1283C82.0567 13.4315 80.5807 13.0827 78.9397 13.0827C77.2987 13.0827 75.8227 13.4315 74.5101 14.1283C73.2179 14.8258 72.1927 15.8305 71.4339 17.1432C70.6955 18.4558 70.3263 19.9939 70.3263 21.7574C70.3263 23.5209 70.6955 25.0696 71.4339 26.4027C72.1927 27.7153 73.2179 28.72 74.5101 29.4176C75.8227 30.1143 77.2987 30.4631 78.9397 30.4631C80.5807 30.4631 82.0567 30.1143 83.3694 29.4176C84.682 28.72 85.7071 27.7153 86.4455 26.4027C87.1839 25.0901 87.5531 23.5414 87.5531 21.7574C87.5531 19.9939 87.1839 18.4558 86.4455 17.1432C85.7071 15.8305 84.682 14.8258 83.3694 14.1283ZM76.4484 16.7437C77.2064 16.3329 78.0371 16.1279 78.9397 16.1279C79.8423 16.1279 80.6722 16.3329 81.431 16.7437C82.1899 17.1538 82.7951 17.7893 83.246 18.6502C83.7181 19.4915 83.9542 20.5273 83.9542 21.7574C83.9542 23.0088 83.7181 24.0543 83.246 24.8948C82.7951 25.7362 82.1899 26.3619 81.431 26.7719C80.6722 27.182 79.8423 27.387 78.9397 27.387C78.0371 27.387 77.2064 27.182 76.4484 26.7719C75.6896 26.3619 75.0737 25.7362 74.6024 24.8948C74.1515 24.0543 73.9252 23.0088 73.9252 21.7574C73.9252 20.5273 74.1515 19.4915 74.6024 18.6502C75.0737 17.7893 75.6896 17.1538 76.4484 16.7437ZM99.4456 27.2005V30.2456H97.2924C95.4873 30.2456 94.1134 29.8151 93.1699 28.9542C92.2469 28.072 91.7862 26.6156 91.7862 24.5858V16.2804H89.3554V13.2965H91.7862V9.08168H95.3239V13.2965H99.4146V16.2804H95.3239V24.6471C95.3239 25.6109 95.4979 26.2775 95.8467 26.6467C96.2159 27.0159 96.8513 27.2005 97.7539 27.2005H99.4456ZM113.466 14.2206C112.38 13.4617 111.067 13.0827 109.529 13.0827C108.052 13.0827 106.73 13.4315 105.561 14.1283C104.412 14.8258 103.51 15.8305 102.854 17.1432C102.197 18.4558 101.87 19.9939 101.87 21.7574C101.87 23.5414 102.197 25.0901 102.854 26.4027C103.51 27.7153 104.412 28.72 105.561 29.4176C106.73 30.1143 108.052 30.4631 109.529 30.4631C111.067 30.4631 112.38 30.0833 113.466 29.3253C114.553 28.5665 115.323 27.561 115.774 26.3104V30.2475H119.28V13.2984H115.774V17.2355C115.323 15.9849 114.553 14.9794 113.466 14.2206ZM106.852 17.6659C107.796 16.6612 109.047 16.1589 110.606 16.1589C111.59 16.1589 112.472 16.395 113.251 16.8663C114.03 17.318 114.646 17.9739 115.096 18.8348C115.548 19.6761 115.774 20.6498 115.774 21.7574C115.774 22.8855 115.548 23.8697 115.096 24.7111C114.646 25.5516 114.03 26.2075 113.251 26.6796C112.472 27.1305 111.59 27.3559 110.606 27.3559C109.047 27.3559 107.796 26.8642 106.852 25.8799C105.93 24.8744 105.469 23.5005 105.469 21.7574C105.469 20.0143 105.93 18.6502 106.852 17.6659ZM126.996 16.6188C127.57 15.5111 128.39 14.6396 129.457 14.0041C130.523 13.3474 131.754 13.0198 133.148 13.0198V16.8344H132.102C130.564 16.8344 129.324 17.2134 128.38 17.9722C127.457 18.7106 126.996 19.9408 126.996 21.6635V30.2458H123.489V13.2967H126.996V16.6188ZM135.898 6.89774C135.488 7.28736 135.283 7.77991 135.283 8.37455C135.283 8.9692 135.488 9.45113 135.898 9.82033C136.309 10.1895 136.852 10.3741 137.528 10.3741C138.206 10.3741 138.749 10.1895 139.159 9.82033C139.59 9.45113 139.805 8.9692 139.805 8.37455C139.805 7.77991 139.59 7.28736 139.159 6.89774C138.749 6.50811 138.206 6.31371 137.528 6.31371C136.852 6.31371 136.309 6.50811 135.898 6.89774ZM139.282 30.2458V13.2967H135.776V30.2458H139.282ZM149.094 13.0827C151.083 13.0827 152.672 13.5957 153.862 14.6208C155.072 15.6255 155.81 16.979 156.077 18.6813H152.754C152.611 17.7582 152.211 17.0198 151.555 16.4668C150.919 15.8926 150.068 15.6051 149.002 15.6051C148.119 15.6051 147.433 15.8207 146.941 16.2512C146.469 16.6612 146.233 17.2257 146.233 17.9428C146.233 18.4762 146.407 18.9067 146.756 19.2351C147.105 19.5634 147.535 19.8199 148.048 20.0037C148.581 20.1883 149.33 20.3941 150.294 20.6196C151.565 20.9063 152.591 21.2036 153.37 21.5116C154.17 21.8187 154.846 22.3112 155.4 22.9884C155.974 23.6443 156.262 24.5469 156.262 25.6953C156.262 27.1101 155.718 28.2585 154.631 29.1407C153.564 30.022 152.119 30.4631 150.294 30.4631C148.182 30.4631 146.469 29.9706 145.156 28.9863C143.865 28.002 143.085 26.6281 142.818 24.8646H146.233C146.336 25.7876 146.746 26.5358 147.464 27.1101C148.182 27.6843 149.125 27.971 150.294 27.971C151.134 27.971 151.79 27.7562 152.262 27.3257C152.754 26.874 153.001 26.3104 153.001 25.6333C153.001 25.0386 152.816 24.5673 152.447 24.2185C152.078 23.8697 151.616 23.6034 151.062 23.4188C150.509 23.2138 149.75 23.0088 148.786 22.8038C147.556 22.5162 146.551 22.2295 145.772 21.942C145.013 21.6553 144.356 21.1938 143.803 20.5575C143.27 19.9016 143.003 19.0194 143.003 17.9126C143.003 16.4766 143.536 15.3184 144.603 14.4362C145.689 13.5336 147.187 13.0827 149.094 13.0827ZM170.513 14.2206C169.427 13.4617 168.114 13.0827 166.576 13.0827C165.1 13.0827 163.777 13.4315 162.608 14.1283C161.46 14.8258 160.557 15.8305 159.901 17.1432C159.245 18.4558 158.917 19.9939 158.917 21.7574C158.917 23.5414 159.245 25.0901 159.901 26.4027C160.557 27.7153 161.46 28.72 162.608 29.4176C163.777 30.1143 165.1 30.4631 166.576 30.4631C168.114 30.4631 169.427 30.0833 170.513 29.3253C171.601 28.5665 172.37 27.561 172.821 26.3104V30.2475H176.328V13.2984H172.821V17.2355C172.37 15.9849 171.601 14.9794 170.513 14.2206ZM163.9 17.6659C164.843 16.6612 166.094 16.1589 167.653 16.1589C168.637 16.1589 169.519 16.395 170.299 16.8663C171.078 17.318 171.693 17.9739 172.144 18.8348C172.596 19.6761 172.821 20.6498 172.821 21.7574C172.821 22.8855 172.596 23.8697 172.144 24.7111C171.693 25.5516 171.078 26.2075 170.299 26.6796C169.519 27.1305 168.637 27.3559 167.653 27.3559C166.094 27.3559 164.843 26.8642 163.9 25.8799C162.977 24.8744 162.516 23.5005 162.516 21.7574C162.516 20.0143 162.977 18.6502 163.9 17.6659Z" fill="black"/>
</svg>
